SplineFontDB: 3.0
FontName: AnkaCoder-C87-SkelI
FullName: Anna Shugol/Coder Condensed Italic
FamilyName: Anka/Coder Condensed
Weight: Book
Copyright: Copyright (c) 2010, Andrey Makarov (makarov@bmstu.ru, mka-at-mailru@mail.ru),\nwith Reserved Font Name Anka/Coder Condensed.\n---------------------------------\nThe Anka/* are members of Anna Shugol name font family; March 2010
Version: 001.000
StrokeWidth: 100
ItalicAngle: -12
UnderlinePosition: -292
UnderlineWidth: 50
Ascent: 1638
Descent: 410
LayerCount: 2
Layer: 0 0 "Back"  1
Layer: 1 0 "Fore"  0
StrokedFont: 1
NeedsXUIDChange: 1
XUID: [1021 77 1780377344 12776136]
UseXUID: 1
BaseHoriz: 0
FSType: 8
OS2Version: 1
OS2_WeightWidthSlopeOnly: 0
OS2_UseTypoMetrics: 1
CreationTime: 1260467214
ModificationTime: 1267186793
PfmFamily: 49
TTFWeight: 400
TTFWidth: 4
LineGap: 0
VLineGap: 0
Panose: 2 11 5 9 2 5 2 2 2 4
OS2TypoAscent: 0
OS2TypoAOffset: 1
OS2TypoDescent: 0
OS2TypoDOffset: 1
OS2TypoLinegap: 0
OS2WinAscent: 0
OS2WinAOffset: 1
OS2WinDescent: 0
OS2WinDOffset: 1
HheadAscent: 0
HheadAOffset: 1
HheadDescent: 0
HheadDOffset: 1
OS2SubXSize: 553
OS2SubYSize: 1229
OS2SubXOff: 0
OS2SubYOff: 283
OS2SupXSize: 553
OS2SupYSize: 1229
OS2SupXOff: 0
OS2SupYOff: 977
OS2StrikeYSize: 102
OS2StrikeYPos: 530
OS2FamilyClass: 1285
OS2Vendor: 'AVM1'
OS2CodePages: 40000097.cfd60000
OS2UnicodeRanges: 800002ef.000079eb.00000000.00000000
MacStyle: 2
DEI: 91125
ShortTable: maxp 16
  0
  0
  0
  0
  0
  0
  0
  2
  1
  0
  9
  0
  256
  0
  0
  0
EndShort
TtTable: prep
PUSHW_1
 511
SCANCTRL
SVTCA[y-axis]
MPPEM
PUSHB_1
 8
LT
IF
PUSHB_2
 1
 1
INSTCTRL
EIF
PUSHB_2
 70
 6
CALL
IF
POP
PUSHB_1
 16
EIF
MPPEM
PUSHB_1
 20
GT
IF
POP
PUSHB_1
 128
EIF
SCVTCI
PUSHB_1
 6
CALL
NOT
IF
EIF
EndTTInstrs
TtTable: fpgm
PUSHB_1
 0
FDEF
PUSHB_1
 0
SZP0
MPPEM
PUSHB_1
 42
LT
IF
PUSHB_1
 74
SROUND
EIF
PUSHB_1
 0
SWAP
MIAP[rnd]
RTG
PUSHB_1
 6
CALL
IF
RTDG
EIF
MPPEM
PUSHB_1
 42
LT
IF
RDTG
EIF
DUP
MDRP[rp0,rnd,grey]
PUSHB_1
 1
SZP0
MDAP[no-rnd]
RTG
ENDF
PUSHB_1
 1
FDEF
DUP

StartChar: exclam
Encoding: 33 33 1
Width: 1075
VWidth: 1708
GlyphClass: 2
Flags: W
HStem: -23 236<273.831 467.094>
VStem: 246 249<6.3129 184.037>
LayerCount: 2
Fore
SplineSet
555 31 m 4xe0
 555 -38 496 -87 430 -87 c 4
 366 -87 306 -37 306 31 c 4
 306 93 360 149 430 149 c 4
 495 149 555 101 555 31 c 4xe0
716 1418 m 0
 790 1418 859 1383 836 1290 c 2
 613 384 l 1
 402 384 l 1
 556 1291 l 2
 573 1388 651 1418 716 1418 c 0
EndSplineSet
EndChar

StartChar: quotedbl
Encoding: 34 34 2
Width: 1075
VWidth: 1708
GlyphClass: 2
Flags: W
HStem: 1406 20G<497 538 917 958>
LayerCount: 2
Fore
SplineSet
412 1076 m 6
 395 1057 376 1049 359 1049 c 7
 331 1049 309 1070 309 1102 c 7
 309 1114 312 1127 319 1141 c 6
 429 1368 l 6
 449 1409 481 1426 513 1426 c 7
 563 1426 613 1384 613 1331 c 7
 613 1309 604 1285 582 1261 c 6
 412 1076 l 6
832 1076 m 6
 815 1057 796 1049 779 1049 c 7
 751 1049 729 1070 729 1102 c 7
 729 1114 732 1127 739 1141 c 6
 849 1368 l 6
 869 1409 901 1426 933 1426 c 7
 983 1426 1033 1384 1033 1331 c 7
 1033 1309 1024 1285 1002 1261 c 6
 832 1076 l 6
EndSplineSet
EndChar

StartChar: numbersign
Encoding: 35 35 3
Width: 1075
VWidth: 1708
GlyphClass: 2
Flags: W
VStem: -82 792<0 792> 220 792<573 1365>
DStem2: -124.299 -199 667.701 -199 0.207912 0.978148<368.112 1601.41>
LayerCount: 2
Fore
SplineSet
-72 0 m 1x80
 222 1350 l 1
 1138 1350 l 1x40
 843 0 l 1
 -72 0 l 1x80
20 973 m 25
 1086 973 l 25
-18 416 m 25
 1047 416 l 25
908 1425 m 25
 575 -99 l 25
480 1425 m 25
 148 -99 l 25
EndSplineSet
EndChar

StartChar: dollar
Encoding: 36 36 4
Width: 1075
VWidth: 2334
GlyphClass: 2
Flags: W
VStem: -132 922<-93 829> 205 922<569 1491>
DStem2: -179.4 -316 742.6 -316 0.207912 0.978148<419.677 1847.43>
LayerCount: 2
Fore
SplineSet
-127 -93 m 1x80
 204 1491 l 1
 1270 1491 l 1x40
 939 -93 l 1
 -127 -93 l 1x80
775 1674 m 25
 377 -216 l 25
128 357 m 0
 124 340 124 324 124 308 c 0
 129 175 264 50 427 50 c 10
 448 50 l 18
 626 50 810 183 842 337 c 10
 848 367 l 18
 853 390 856 416 855 442 c 0
 851 532 816 663 716 716 c 2
 439 850 l 2
 365 886 321 905 319 969 c 0
 318 985 322 1017 326 1033 c 2
 332 1063 l 2
 364 1218 524 1350 703 1350 c 10
 711 1350 l 18
 865 1350 981 1292 998 1177 c 1
 1000 1169 1000 1161 1000 1153 c 0
 1001 1135 992 1083 989 1063 c 0
EndSplineSet
EndChar

StartChar: percent
Encoding: 37 37 5
Width: 1075
VWidth: 1708
GlyphClass: 2
Flags: W
HStem: 64 375<503.598 719.699> 957 376<275.516 489.217>
VStem: 223 320<1011.48 1280.79> 451.894 320<118.028 387.143>
LayerCount: 2
Fore
SplineSet
15 76 m 25
 1131 1325 l 25xc0
465 957 m 3
 363 957 306 1043 305 1145 c 3
 305 1248 362 1333 465 1333 c 3
 570 1333 625 1249 625 1145 c 3xe0
 625 1049 571 957 465 957 c 3
730 64 m 3
 628 64 570 144 570 252 c 3
 570 356 626 439 729 439 c 3
 833 439 889 355 890 252 c 3xd0
 890 154 836 64 730 64 c 3
EndSplineSet
EndChar

StartChar: ampersand
Encoding: 38 38 6
Width: 1075
VWidth: 2334
GlyphClass: 2
Flags: W
LayerCount: 2
Fore
SplineSet
843 10 m 5
 522 811 l 6
 486 881 434 954 431 1047 c 4
 430 1068 438 1121 442 1140 c 6
 446 1162 l 6
 471 1278 562 1350 696 1350 c 14
 718 1350 l 22
 836 1350 905 1298 909 1209 c 4
 909 1192 908 1175 904 1157 c 6
 891 1098 l 6
 882 1049 795 973 745 939 c 6
 332 639 l 5
 233 576 152 471 130 367 c 14
 124 337 l 22
 121 319 113 269 114 252 c 4
 119 125 244 50 401 50 c 14
 421 50 l 22
 567 50 683 121 762 240 c 6
 977 590 l 4
EndSplineSet
EndChar

StartChar: quotesingle
Encoding: 39 39 7
Width: 1075
VWidth: 1708
GlyphClass: 2
Flags: W
HStem: 1406 20G<767 808>
LayerCount: 2
Fore
SplineSet
682 1076 m 2
 665 1057 646 1049 629 1049 c 3
 601 1049 579 1070 579 1102 c 3
 579 1114 582 1127 589 1141 c 2
 699 1368 l 2
 719 1409 751 1426 783 1426 c 3
 833 1426 883 1384 883 1331 c 3
 883 1309 874 1285 852 1261 c 2
 682 1076 l 2
EndSplineSet
EndChar

StartChar: parenleft
Encoding: 40 40 8
Width: 1075
VWidth: 1708
GlyphClass: 2
Flags: W
LayerCount: 2
Fore
SplineSet
919 1480 m 21
 651 1320 383 1072 312 732 c 20
 298 665 286 569 288 507 c 4
 297 255 431 49 593 -80 c 13
EndSplineSet
EndChar

StartChar: parenright
Encoding: 41 41 9
Width: 1075
VWidth: 1708
GlyphClass: 2
Flags: W
LayerCount: 2
Fore
SplineSet
528 1480 m 21
 690 1351 827 1162 836 910 c 4
 839 848 837 799 823 732 c 12
 752 392 470 80 202 -80 c 13
EndSplineSet
EndChar

StartChar: asterisk
Encoding: 42 42 10
Width: 1075
VWidth: 1708
GlyphClass: 2
Flags: W
LayerCount: 2
Fore
SplineSet
276 305 m 29
 554 600 l 29
 638.757 1000 l 29
554 600 m 29
 705 305 l 29
932 745 m 29
 554 600 l 29
 237 745 l 29
EndSplineSet
EndChar

StartChar: plus
Encoding: 43 43 11
Width: 1075
VWidth: 1708
GlyphClass: 2
Flags: W
HStem: 157 854<155 792>
VStem: -28 820<157 977> 155 820<191 1011>
LayerCount: 2
Fore
SplineSet
49 157 m 1xc0
 232 1011 l 1
 1052 1011 l 1xa0
 869 157 l 1
 49 157 l 1xc0
427 1 m 25
 672 1156 l 25
63 600 m 25
 1065 600 l 25
EndSplineSet
EndChar

StartChar: comma
Encoding: 44 44 12
Width: 1075
VWidth: 1947
GlyphClass: 2
Flags: W
HStem: -277.916 56.917<241.796 320.313>
VStem: 363.375 194.25<-3.68353 110.805>
LayerCount: 2
Fore
SplineSet
633.876 6.79688 m 21
 605.454 -122.11 549.176 -300.304 318.796 -277.916 c 13
 315.559 -220.999 l 21
 388.249 -210.891 547.313 -145.534 465.068 -37.0645 c 13
 633.876 6.79688 l 21
634.625 29 m 4
 634.625 -22.75 594.875 -68.5 537.125 -68.5 c 4
 481.625 -68.5 440.375 -23.5 440.375 29 c 4
 440.375 80 478.625 126.5 537.125 126.5 c 4
 594.125 126.5 634.625 81.5 634.625 29 c 4
EndSplineSet
EndChar

StartChar: hyphen
Encoding: 45 45 13
Width: 1075
VWidth: 1708
GlyphClass: 2
Flags: W
LayerCount: 2
Fore
SplineSet
127 600 m 25
 949 600 l 25
EndSplineSet
EndChar

StartChar: period
Encoding: 46 46 14
Width: 1075
VWidth: 1708
GlyphClass: 2
Flags: W
HStem: -68 194<378.398 542.285>
VStem: 363 195<-52.3284 110.08>
LayerCount: 2
Fore
SplineSet
635 29 m 4
 635 -23 595 -68 537 -68 c 4
 482 -68 440 -24 440 29 c 4
 440 80 479 126 537 126 c 4
 594 126 635 82 635 29 c 4
EndSplineSet
EndChar

StartChar: slash
Encoding: 47 47 15
Width: 1075
VWidth: 1708
GlyphClass: 2
Flags: W
LayerCount: 2
Fore
SplineSet
99 -25 m 29
 1046 1425 l 29
EndSplineSet
EndChar

StartChar: zero
Encoding: 48 48 16
Width: 1075
VWidth: 1708
GlyphClass: 2
Flags: W
LayerCount: 2
Fore
SplineSet
201 1476 m 1
 1162 1476 l 1
 1213 1218 l 1
 948 -51 l 1
 -9 -51 l 1
 -66 187 l 1
 201 1476 l 1
-136 -25 m 25
 1279 1425 l 25
707 1350 m 3
 882 1350 941 1217 947 1052 c 0
 951 949 939 858 913 732 c 0
 843 401 716 50 438 50 c 3
 263 50 204 185 198 349 c 0
 194 454 219 609 245 732 c 0
 313 1056 424 1350 707 1350 c 3
EndSplineSet
EndChar

StartChar: one
Encoding: 49 49 17
Width: 1075
VWidth: 1708
GlyphClass: 2
Flags: W
HStem: 1405 20G<700.247 1113>
LayerCount: 2
Fore
SplineSet
-37 335 m 5
 418 767 l 5
 454 938 l 5
 381 1024 l 5
 801 1425 l 5
 1256 1425 l 5
 954 -25 l 5
 -112 -25 l 5
 -37 335 l 5
510 -138 m 29
 821 1350 l 29
 268 983 l 29
EndSplineSet
EndChar

StartChar: two
Encoding: 50 50 18
Width: 1075
VWidth: 2334
GlyphClass: 2
Flags: W
VStem: 292 832<647 1479>
DStem2: -48.2557 -125 784.204 -125 0.207912 0.978148<547.255 1639.69>
LayerCount: 2
Fore
SplineSet
-8 -25 m 1
 305 1479 l 1
 1267 1479 l 1
 1010 241 l 1
 906 241 l 1
 850 -25 l 1
 -8 -25 l 1
362 1181 m 1
 438 1290 518 1350 696 1350 c 10
 717 1350 l 18
 889 1350 981 1303 985 1181 c 0
 986 1155 977 1095 970 1064 c 10
 962 1024 l 18
 949 966 902 929 821 854 c 2
 340 384 l 2
 254 331 176 179 121 75 c 1
 1034 75 l 9
EndSplineSet
EndChar

StartChar: three
Encoding: 51 51 19
Width: 1075
VWidth: 2334
GlyphClass: 2
Flags: W
LayerCount: 2
Fore
SplineSet
372 1190 m 5
 441 1296 574 1350 696 1350 c 14
 717 1350 l 22
 847 1350 928 1286 932 1171 c 4
 933 1147 924 1090 918 1063 c 14
 909 1022 l 22
 887 912 761 809 606 809 c 5
 411 809 l 13
 605 809 l 22
 768 809 843 694 849 549 c 4
 850 510 846 466 836 417 c 14
 831 397 l 22
 786 177 656 50 448 50 c 14
 427 50 l 22
 304 50 168 104 163 242 c 4
 162 262 169 315 174 337 c 5
EndSplineSet
EndChar

StartChar: four
Encoding: 52 52 20
Width: 1075
VWidth: 1708
GlyphClass: 2
Flags: W
HStem: 1405 20G<276.747 1023>
VStem: -22 742<0 742> 281 742<683 1425>
DStem2: -75.1391 -250 666.861 -250 0.207912 0.978148<409.856 1712.44>
LayerCount: 2
Fore
SplineSet
294 1425 m 5xa0
 1152 1425 l 5xa0
 855 0 l 5
 -3 0 l 5xc0
 294 1425 l 5xa0
638 -150 m 29
 952 1352 l 29
 173 427 l 29
 1115 427 l 29
EndSplineSet
EndChar

StartChar: five
Encoding: 53 53 21
Width: 1075
VWidth: 2334
GlyphClass: 2
Flags: W
HStem: 1405 20G<186.759 964>
LayerCount: 2
Fore
SplineSet
190 1425 m 5
 1084 1425 l 5
 1028 1154 l 5
 1199 1154 l 5
 948 -54 l 5
 -118 -54 l 5
 -76 141 l 5
 403 393 l 5
 436 556 l 5
 70 845 l 5
 190 1425 l 5
1202 1325 m 5
 483 1325 l 5
 276 707 l 5
206 495 m 5
 253 714 471 879 599 879 c 14
 620 879 l 22
 783 879 858 763 863 619 c 4
 864 579 860 535 851 487 c 14
 838 427 l 22
 791 201 656 50 448 50 c 14
 369 50 l 22
 254 50 110 104 105 245 c 4
 104 264 111 316 116 337 c 5
EndSplineSet
EndChar

StartChar: six
Encoding: 54 54 22
Width: 1075
VWidth: 2334
GlyphClass: 2
Flags: W
LayerCount: 2
Fore
SplineSet
194 432 m 25
 306 974 l 17
 348 1169 488 1350 696 1350 c 10
 717 1350 l 18
 863 1350 952 1320 978 1232 c 1
206 487 m 10
 193 427 l 18
 184 386 181 348 182 313 c 0
 188 157 285 50 427 50 c 10
 448 50 l 18
 656 50 791 201 838 427 c 10
 851 487 l 18
 860 536 865 580 863 619 c 0
 858 764 783 879 620 879 c 10
 599 879 l 18
 391 879 252 711 206 487 c 10
EndSplineSet
EndChar

StartChar: seven
Encoding: 55 55 23
Width: 1075
VWidth: 1708
GlyphClass: 2
Flags: W
HStem: 1465 20G<199.744 1036>
VStem: -112 832<0 832> 204 832<653 1485>
DStem2: -153.023 -193 678.977 -193 0.207912 0.978148<370.294 1715.56>
LayerCount: 2
Fore
SplineSet
203 1485 m 5xa0
 1165 1485 l 5xa0
 855 0 l 5
 -107 0 l 5xc0
 203 1485 l 5xa0
273 1325 m 29
 1024 1325 l 21
 687 893 358 379 161 -93 c 13
EndSplineSet
EndChar

StartChar: eight
Encoding: 56 56 24
Width: 1075
VWidth: 2334
GlyphClass: 2
Flags: W
VStem: 327.883 496.511<966.389 1156.96>
LayerCount: 2
Fore
SplineSet
717 1350 m 10
 696 1350 l 18
 540 1350 411 1221 377 1064 c 2
 369 1024 l 2
 366 1009 361 977 362 961 c 0
 365 862 450 809 583 809 c 10
 606 809 l 18
 761 809 887 912 909 1022 c 10
 918 1063 l 18
 924 1090 933 1147 932 1171 c 0
 928 1286 847 1350 717 1350 c 10
191 417 m 10
 186 397 l 18
 178 360 169 294 170 263 c 0
 176 113 283 50 427 50 c 10
 448 50 l 18
 656 50 786 177 831 397 c 10
 836 417 l 18
 846 466 850 510 849 549 c 0
 843 694 768 809 605 809 c 10
 584 809 l 18
 376 809 237 641 191 417 c 10
EndSplineSet
EndChar

StartChar: nine
Encoding: 57 57 25
Width: 1075
VWidth: 2334
GlyphClass: 2
Flags: W
VStem: 255.373 592.418<854.134 1053.19>
LayerCount: 2
Fore
SplineSet
957 1000 m 25
 841 443 l 17
 807 280 656 50 448 50 c 10
 427 50 l 18
 281 50 192 80 168 168 c 1
942 930 m 18
 895 706 760 553 552 553 c 10
 531 553 l 18
 368 553 293 669 288 813 c 0
 286 853 287 882 297 930 c 10
 303 958 l 18
 357 1216 488 1350 696 1350 c 10
 717 1350 l 18
 859 1350 956 1244 962 1087 c 0
 963 1052 956 999 948 958 c 10
 942 930 l 18
EndSplineSet
EndChar

StartChar: less
Encoding: 60 60 28
Width: 1075
VWidth: 1708
GlyphClass: 2
Flags: W
VStem: -45 742<-110 632> 268 742<622 1364>
DStem2: -66.2557 -210 675.744 -210 0.207912 0.978148<256.505 1609.1>
LayerCount: 2
Fore
SplineSet
345 1364 m 1x40
 1087 1364 l 1x40
 774 -110 l 1
 32 -110 l 1x80
 345 1364 l 1x40
1121 1192 m 25
 245 600 l 29
 870 8 l 25
EndSplineSet
EndChar

StartChar: equal
Encoding: 61 61 29
Width: 1075
VWidth: 1708
GlyphClass: 2
Flags: W
LayerCount: 2
Fore
SplineSet
194 842 m 29
 1016 842 l 29
100 400 m 29
 922 400 l 29
EndSplineSet
EndChar

StartChar: greater
Encoding: 62 62 30
Width: 1075
VWidth: 1708
GlyphClass: 2
Flags: W
VStem: -45 742<-110 632> 268 742<622 1364>
DStem2: -66.2557 -210 675.744 -210 0.207912 0.978148<256.505 1609.1>
LayerCount: 2
Fore
SplineSet
345 1364 m 1x40
 1087 1364 l 1x40
 774 -110 l 1
 32 -110 l 1x80
 345 1364 l 1x40
-12 8 m 25
 863 600 l 29
 239 1192 l 25
EndSplineSet
EndChar

StartChar: question
Encoding: 63 63 31
Width: 1075
VWidth: 1708
GlyphClass: 2
Flags: W
HStem: -87 236<333.831 527.094> 330 1239<36 1271>
VStem: 306 249<-57.6871 120.037>
LayerCount: 2
Fore
SplineSet
555 31 m 0
 555 -38 496 -87 430 -87 c 0
 366 -87 306 -37 306 31 c 0
 306 93 360 149 430 149 c 0
 495 149 555 101 555 31 c 0
36 330 m 1
 -8 1569 l 1
 1271 1569 l 1
 1316 330 l 1
 36 330 l 1
475 232 m 25
 526 480 l 18
 538 531 609 665 681 728 c 2
 855 881 l 2
 914 933 951.886 974.695 962 1024 c 10
 970 1063 l 18
 1010.3 1247.22 976.37 1350 717 1350 c 10
 696 1350 l 18
 488 1350 362 1242 325 1063 c 9
EndSplineSet
EndChar

StartChar: at
Encoding: 64 64 32
Width: 1075
VWidth: 1708
GlyphClass: 2
Flags: W
HStem: 338 1219<-81 1083>
VStem: -81 1164<338 1557>
LayerCount: 2
Fore
SplineSet
1262 338 m 5
 -84 338 l 5
 -129 1557 l 5
 1216 1557 l 5
 1262 338 l 5
808 1000 m 6
 808 1000 927 1001 1004 1001 c 29
 928 639 l 6
 914 575 805 435 690 435 c 7
 583 435 537 493 534 587 c 4
 532 621 544 692 552 734 c 4
 586 895 663 1000 808 1000 c 6
776 130 m 5
 675 55 539 50 438 50 c 7
 233 50 151 228 144 435 c 4
 141 519 157 642 176 732 c 4
 243 1056 424 1350 707 1350 c 7
 871 1350 1010 1232 1015 1089 c 4
 1016 1071 1015 1053 1011 1033 c 6
 843 226 l 21
EndSplineSet
EndChar

StartChar: B
Encoding: 66 66 33
Width: 1075
VWidth: 1947
GlyphClass: 2
Flags: W
LayerCount: 2
Fore
SplineSet
819 337 m 10
 849 485 l 18
 856 517 859 545 858 571 c 0
 853 693 772 787 600 787 c 10
 267 787 l 25
 542 787 l 2
 750 787 866 844 904 1025 c 2
 912 1063 l 2
 919 1095 929 1156 928 1181 c 0
 924 1296 834 1325 655 1325 c 2
 379 1325 l 1
 121 75 l 1
 454 75 l 2
 662 75 781 156 819 337 c 10
EndSplineSet
EndChar

StartChar: C
Encoding: 67 67 34
Width: 1075
VWidth: 1947
GlyphClass: 2
Flags: W
LayerCount: 2
Fore
SplineSet
783 315 m 5
 708 167 598 50 438 50 c 7
 263 50 204 185 198 349 c 4
 194 454 219 609 245 732 c 4
 313 1056 424 1350 707 1350 c 7
 874 1350 935 1227 945 1074 c 5
EndSplineSet
EndChar

StartChar: D
Encoding: 68 68 35
Width: 1075
VWidth: 1947
GlyphClass: 2
Flags: W
DStem2: 62.7443 -40 627.307 -40 0.207912 0.978148<431.249 1209.75>
LayerCount: 2
Fore
SplineSet
702 1325 m 6
 880 1325 939 1198 945 1037 c 4
 948 965 947 899 930 820 c 6
 885 610 l 6
 822 320 688 75 444 75 c 6
 121 75 l 5
 379 1325 l 5
 702 1325 l 6
EndSplineSet
EndChar

StartChar: E
Encoding: 69 69 36
Width: 1075
VWidth: 1708
GlyphClass: 2
Flags: W
LayerCount: 2
Fore
SplineSet
-480 -66 m 5
 -112 1707 l 5
 1212 1707 l 5
 1054 948 l 5
 943 938 l 5
 864 559 l 5
 972 551 l 5
 843 -66 l 5
 -480 -66 l 5
1097 787 m 29
 267 787 l 29
1235 1325 m 29
 379 1325 l 29
 121 76 l 29
 976 76 l 29
EndSplineSet
EndChar

StartChar: F
Encoding: 70 70 37
Width: 1075
VWidth: 1708
GlyphClass: 2
Flags: W
LayerCount: 2
Fore
SplineSet
-464 0 m 1
 -112 1707 l 1
 1212 1707 l 1
 1054 948 l 1
 943 938 l 1
 864 559 l 1
 972 551 l 1
 859 0 l 1
 -464 0 l 1
1097 787 m 25
 267 787 l 25
1235 1325 m 25
 379 1325 l 25
 67 -176 l 25
EndSplineSet
EndChar

StartChar: G
Encoding: 71 71 38
Width: 1075
VWidth: 1947
GlyphClass: 2
Flags: W
LayerCount: 2
Fore
SplineSet
945 1074 m 5
 935 1227 874 1350 707 1350 c 7
 466 1350 334 1145 277 876 c 6
 220 609 l 6
 200 517 195 421 198 349 c 4
 204 185 263 50 438 50 c 7
 598 50 729 109 804 257 c 13
 878 617 l 5
 604 617 l 29
EndSplineSet
EndChar

StartChar: H
Encoding: 72 72 39
Width: 1075
VWidth: 1947
GlyphClass: 2
Flags: W
HStem: 0 1396<-372 1492>
LayerCount: 2
Fore
SplineSet
-407 0 m 1
 -459 1396 l 1
 1695 1396 l 1
 1747 0 l 1
 -407 0 l 1
257 732 m 25
 902 732 l 25
1074 1560 m 25
 722 -128 l 25
429 1560 m 25
 77 -128 l 25
EndSplineSet
EndChar

StartChar: I
Encoding: 73 73 40
Width: 1075
VWidth: 1947
GlyphClass: 2
Flags: W
HStem: -108 21G<-44.958 711.282> 1643 20G<326.241 1082.48>
VStem: -44.958 752<-108 644> 330.481 751.999<911.001 1663>
DStem2: -66.2137 -208 685.786 -208 0.207912 0.978148<258.584 1912.59>
LayerCount: 2
Fore
SplineSet
-25 -108 m 5xe0
 343 1663 l 5
 1212 1663 l 5xd0
 844 -108 l 5
 -25 -108 l 5xe0
-89 75 m 25
 1057 75 l 25
449 92 m 17
123 1325 m 25
 1246 1325 l 1
702 1326 m 1
 444 75 l 9
EndSplineSet
EndChar

StartChar: J
Encoding: 74 74 41
Width: 1075
VWidth: 1947
GlyphClass: 2
Flags: W
HStem: -108 21G<-194.958 711.282> 1643 20G<556.17 1082.48>
VStem: -194.958 902<-108 794>
LayerCount: 2
Fore
SplineSet
-199 -108 m 1
 60 1136 l 1
 502 1160 l 1
 608 1663 l 1
 1212 1663 l 1
 844 -108 l 1
 -199 -108 l 1
107 208 m 1
 115 92 198 50 323 50 c 10
 344 50 l 18
 500 50 625 156 663 337 c 10
 868 1325 l 25
352 1325 m 25
 1327 1325 l 25
EndSplineSet
EndChar

StartChar: K
Encoding: 75 75 42
Width: 1075
VWidth: 1947
GlyphClass: 2
Flags: W
VStem: -112 922<0 922> 186 922<478 1400>
DStem2: -163.226 -241 758.774 -241 0.207912 0.978148<438.079 1677.75>
LayerCount: 2
Fore
SplineSet
185 1400 m 5x40
 1251 1400 l 5x40
 959 0 l 5
 -107 0 l 5x80
 185 1400 l 5x40
825 -141 m 25
 504 797 l 25
1158 1524 m 25
 204 485 l 25
422 1528 m 25
 75 -136 l 25
EndSplineSet
EndChar

StartChar: L
Encoding: 76 76 43
Width: 1075
VWidth: 1947
GlyphClass: 2
Flags: W
VStem: -152.819 831<-192 639> 186 831<569 1400>
DStem2: -174.075 -292 656.925 -292 0.207912 0.978148<275.009 1729.89>
LayerCount: 2
Fore
SplineSet
185 1400 m 5x40
 1146 1400 l 5x40
 814 -192 l 5
 -147 -192 l 5x80
 185 1400 l 5x40
436 1596 m 29
 121 76 l 29
 1092 76 l 29
EndSplineSet
EndChar

StartChar: M
Encoding: 77 77 44
Width: 1075
VWidth: 1947
GlyphClass: 2
Flags: W
VStem: 186 922<478 1400>
LayerCount: 2
Fore
SplineSet
-107 0 m 1
 185 1400 l 1
 1251 1400 l 1
 959 0 l 1
 599 0 l 1
 644 210 l 1
 305 210 l 1
 260 0 l 1
 -107 0 l 1
-12 -75 m 25
 419 1401 l 25
 500 351 l 25
 1018 1401 l 25
 832 -75 l 25
EndSplineSet
EndChar

StartChar: N
Encoding: 78 78 45
Width: 1075
VWidth: 1947
GlyphClass: 2
Flags: W
VStem: -112 922<0 922> 186 922<478 1400>
DStem2: -168.965 -268 753.035 -268 0.207912 0.978148<465.682 1705.35>
LayerCount: 2
Fore
SplineSet
185 1400 m 5x40
 1251 1400 l 5x40
 959 0 l 5
 -107 0 l 5x80
 185 1400 l 5x40
68 -168 m 25
 384 1350 l 25
 760 49 l 25
 1073 1556 l 25
EndSplineSet
EndChar

StartChar: O
Encoding: 79 79 46
Width: 1075
VWidth: 1947
GlyphClass: 2
Flags: W
DStem2: 46.9647 -65 623.822 -65 0.207912 0.978148<477.914 1245.63>
LayerCount: 2
Fore
SplineSet
707 1350 m 7
 882 1350 941 1217 947 1052 c 4
 950 962 944 889 923 781 c 6
 894 645 l 6
 830 369 701 50 438 50 c 7
 263 50 204 185 198 349 c 4
 194 440 215 577 235 683 c 6
 255 779 l 6
 324 1086 437 1350 707 1350 c 7
EndSplineSet
EndChar

StartChar: P
Encoding: 80 80 47
Width: 1075
VWidth: 1947
GlyphClass: 2
Flags: W
VStem: -112 922<0 922> 186 922<478 1400>
DStem2: -169.603 -271 752.397 -271 0.207912 0.978148<468.749 1708.42>
LayerCount: 2
Fore
SplineSet
185 1400 m 5x40
 1251 1400 l 5x40
 959 0 l 5
 -107 0 l 5x80
 185 1400 l 5x40
254 717 m 25
 587 717 l 2
 795 717 914 791 951 972 c 2
 970 1063 l 2
 980 1112 987 1156 986 1181 c 0
 981 1296 892 1325 712 1325 c 2
 379 1325 l 1
 68 -171 l 1
EndSplineSet
EndChar

StartChar: Q
Encoding: 81 81 48
Width: 1075
VWidth: 1947
GlyphClass: 2
Flags: W
DStem2: 8.91708 -244 585.774 -244 0.207912 0.978148<660.913 1428.63>
LayerCount: 2
Fore
SplineSet
707 1350 m 7
 882 1350 941 1217 947 1052 c 4
 950 962 944 889 923 781 c 6
 894 645 l 6
 830 369 701 50 438 50 c 7
 263 50 204 185 198 349 c 4
 194 440 215 577 235 683 c 6
 255 779 l 6
 324 1086 437 1350 707 1350 c 7
509 399 m 29
 718 -144 l 29
EndSplineSet
EndChar

StartChar: R
Encoding: 82 82 49
Width: 1075
VWidth: 1947
GlyphClass: 2
Flags: W
VStem: -112 922<0 922> 198 922<536 1458>
DStem2: -171.516 -280 750.484 -280 0.207912 0.978148<477.95 1776.85>
LayerCount: 2
Fore
SplineSet
197 1458 m 5x40
 1263 1458 l 5x40
 959 0 l 5
 -107 0 l 5x80
 197 1458 l 5x40
822 -102 m 25
 575 712 l 25
254 717 m 25
 587 717 l 2
 795 717 914 792 951 973 c 2
 970 1063 l 2
 980 1112 987 1156 986 1181 c 0
 981 1296 892 1325 712 1325 c 2
 379 1325 l 1
 66 -180 l 1
EndSplineSet
EndChar

StartChar: S
Encoding: 83 83 50
Width: 1075
VWidth: 2334
GlyphClass: 2
Flags: W
LayerCount: 2
Fore
SplineSet
128 357 m 4
 125 341 123 324 124 308 c 4
 129 176 264 50 427 50 c 14
 448 50 l 22
 626 50 810 183 842 337 c 14
 848 367 l 22
 853 391 855 416 854 442 c 4
 851 532 817 663 716 716 c 6
 439 850 l 6
 365 887 321 905 318 969 c 4
 318 986 323 1018 326 1033 c 6
 332 1063 l 6
 364 1218 524 1350 703 1350 c 14
 711 1350 l 22
 865 1350 981 1292 998 1177 c 5
 1000 1170 1000 1162 1001 1153 c 4
 1001 1135 993 1084 989 1063 c 4
EndSplineSet
EndChar

StartChar: T
Encoding: 84 84 51
Width: 1075
VWidth: 1947
GlyphClass: 2
Flags: W
VStem: -42 782<0 782> 268 782<676 1458>
DStem2: -107.255 -307 674.745 -307 0.207912 0.978148<476.445 1804.45>
LayerCount: 2
Fore
SplineSet
278 1458 m 5x40
 1182 1458 l 5x40
 878 0 l 5
 -26 0 l 5x80
 278 1458 l 5x40
383 -207 m 29
 702 1325 l 29
100 1325 m 29
 1293 1325 l 29
EndSplineSet
EndChar

StartChar: U
Encoding: 85 85 52
Width: 1075
VWidth: 1947
GlyphClass: 2
Flags: W
VStem: -207 1062<-99 963> 114 1062<338 1400>
LayerCount: 2
Fore
SplineSet
102 1400 m 5x40
 1330 1400 l 5x40
 1015 -99 l 5
 -213 -99 l 5x80
 102 1400 l 5x40
424 1536 m 25
 174 337 l 18
 167 305 159 244 160 218 c 0
 164 96 256 50 427 50 c 10
 448 50 l 18
 656 50 781 156 819 337 c 10
 1072 1551 l 25
EndSplineSet
EndChar

StartChar: V
Encoding: 86 86 53
Width: 1075
VWidth: 1708
GlyphClass: 2
Flags: W
VStem: -117 922<-25 897> 186 922<478 1400>
DStem2: -138.256 -125 783.744 -125 0.207912 0.978148<293.929 1559.09>
LayerCount: 2
Fore
SplineSet
-112 -25 m 5x80
 185 1400 l 5
 1251 1400 l 5x40
 954 -25 l 5
 -112 -25 l 5x80
362 1494 m 29
 428 5 l 29
 1166 1605 l 29
EndSplineSet
EndChar

StartChar: W
Encoding: 87 87 54
Width: 1075
VWidth: 1947
GlyphClass: 2
Flags: W
VStem: -112 922<0 922>
LayerCount: 2
Fore
SplineSet
185 1400 m 5
 552 1400 l 5
 508 1190 l 5
 846 1190 l 5
 891 1400 l 5
 1251 1400 l 5
 959 0 l 5
 -107 0 l 5
 185 1400 l 5
312 1475 m 29
 127 -1 l 29
 645 1049 l 29
 725 -1 l 29
 1156 1475 l 29
EndSplineSet
EndChar

StartChar: X
Encoding: 88 88 55
Width: 1075
VWidth: 1947
GlyphClass: 2
Flags: W
VStem: -112 922<0 922> 186 922<478 1400>
DStem2: -150.26 -180 771.74 -180 0.207912 0.978148<375.716 1615.39>
LayerCount: 2
Fore
SplineSet
185 1400 m 5x40
 1251 1400 l 5x40
 959 0 l 5
 -107 0 l 5x80
 185 1400 l 5x40
1104 1480 m 29
 41 -80 l 29
366 1480 m 29
 778 -80 l 29
EndSplineSet
EndChar

StartChar: Y
Encoding: 89 89 56
Width: 1075
VWidth: 1947
GlyphClass: 2
Flags: W
VStem: -121 922<-25 897> 186 922<478 1400>
DStem2: -173.289 -271 748.711 -271 0.207912 0.978148<443.19 1709.18>
LayerCount: 2
Fore
SplineSet
185 1400 m 5x40
 1251 1400 l 5x40
 949 -25 l 5
 -116 -25 l 5x80
 185 1400 l 5x40
1104 1480 m 21
 533 513 l 5
 387 -171 l 13
366 1480 m 29
 533 513 l 29
EndSplineSet
EndChar

StartChar: Z
Encoding: 90 90 57
Width: 1075
VWidth: 1947
GlyphClass: 2
Flags: W
HStem: 1405 20G<276.752 1023>
VStem: -27 742<-25 717> 281 742<683 1425>
DStem2: -48.2557 -125 693.744 -125 0.207912 0.978148<256.505 1584.58>
LayerCount: 2
Fore
SplineSet
294 1425 m 5xa0
 1152 1425 l 5xa0
 850 -25 l 5
 -8 -25 l 5xc0
 294 1425 l 5xa0
169 1325 m 29
 1071 1325 l 29
 75 76 l 29
 1011 76 l 29
EndSplineSet
EndChar

StartChar: bracketleft
Encoding: 91 91 58
Width: 1075
VWidth: 1947
GlyphClass: 2
Flags: W
VStem: -88.957 651<-315 336> 336.369 651<1035 1686>
DStem2: -110.213 -415 540.787 -415 0.207912 0.978148<237.585 2147.94>
LayerCount: 2
Fore
SplineSet
349 1686 m 5x40
 1101 1686 l 5x40
 684 -315 l 5
 -69 -315 l 5x80
 349 1686 l 5x40
1219 1480 m 21
 607 1480 l 5
 281 -80 l 29
 894 -80 l 13
EndSplineSet
EndChar

StartChar: backslash
Encoding: 92 92 59
Width: 1075
VWidth: 1708
GlyphClass: 2
Flags: W
LayerCount: 2
Fore
SplineSet
744 -25 m 29
 401 1425 l 29
EndSplineSet
EndChar

StartChar: bracketright
Encoding: 93 93 60
Width: 1075
VWidth: 1947
GlyphClass: 2
Flags: W
VStem: 3.04297 651<-315 336> 428.369 651.001<1035 1686>
DStem2: -18.2127 -415 632.787 -415 0.207912 0.978148<237.585 2147.94>
LayerCount: 2
Fore
SplineSet
455 1686 m 5x40
 1207 1686 l 5x40
 790 -315 l 5
 38 -315 l 5x80
 455 1686 l 5x40
285 1480 m 21
 863 1480 l 5
 538 -80 l 29
 -40 -80 l 13
EndSplineSet
EndChar

StartChar: asciicircum
Encoding: 94 94 61
Width: 1075
VWidth: 1947
GlyphClass: 2
Flags: W
HStem: 1405 20G<186.747 1113>
VStem: -112 922<0 922> 191 922<503 1425>
DStem2: -133.256 -100 788.744 -100 0.207912 0.978148<293.929 1559.09>
LayerCount: 2
Fore
SplineSet
268 1425 m 5xa0
 1190 1425 l 5xa0
 887 0 l 5
 -35 0 l 5xc0
 268 1425 l 5xa0
357 989 m 29
 721 1385 l 29
 915 989 l 29
EndSplineSet
EndChar

StartChar: underscore
Encoding: 95 95 62
Width: 1075
VWidth: 1947
GlyphClass: 2
Flags: W
LayerCount: 2
Fore
SplineSet
35 -92 m 29
 777 -92 l 29
EndSplineSet
EndChar

StartChar: grave
Encoding: 96 96 63
Width: 1075
VWidth: 1708
GlyphClass: 2
Flags: W
HStem: 1405 20G<591.5 618>
LayerCount: 2
Fore
SplineSet
815 1106 m 2
 820 1095 822 1085 822 1075 c 3
 822 1058 815 1043 800 1032 c 0
 790 1025 779 1022 767 1022 c 3
 750 1022 732 1029 720 1044 c 2
 532 1273 l 2
 518 1290 511 1312 511 1333 c 3
 511 1364 525 1394 551 1411 c 0
 564 1420 582 1425 601 1425 c 3
 635 1425 673 1409 689 1375 c 2
 815 1106 l 2
EndSplineSet
EndChar

StartChar: a
Encoding: 97 97 64
Width: 1075
VWidth: 1947
GlyphClass: 2
Flags: W
HStem: -25 60<251.427 490.344> 989 75<411.666 700.454>
VStem: 0 148<130.068 575.75>
LayerCount: 2
Fore
SplineSet
228 597 m 10
 193 427 l 18
 184 386 181 348 182 313 c 0
 188 157 285 50 427 50 c 10
 448 50 l 18
 656 50 791 201 838 427 c 10
 873 597 l 18
 883 645 895 722 893 762 c 0
 888 906 802 974 639 974 c 10
 618 974 l 18
 410 974 275 821 228 597 c 10
24 -25 m 1
 -17 1064 l 1
 867 1064 l 1
 857 1024 l 1
 1166 1024 l 1
 1072 242 l 1
 1043 242 l 1
 986 -25 l 1
 24 -25 l 1
992 1168 m 17
 819 337 l 2
 788 189 815 75 1068 74 c 9
EndSplineSet
EndChar

StartChar: b
Encoding: 98 98 65
Width: 1075
VWidth: 2334
GlyphClass: 2
Flags: W
HStem: -47 82<238.722 504.334> 989 411<404.805 708.235>
VStem: 222 998<402 1400>
DStem2: -123.613 -224 22.6257 -224 0.207912 0.978148<583.344 1122.07> 580.626 -224 873.378 -224 0.207912 0.978148<412.352 1003.63>
LayerCount: 2
Fore
SplineSet
-65 0 m 1
 227 1400 l 1
 1381 1400 l 1
 1077 -47 l 1
 254 -47 l 1
 256 0 l 1
 -65 0 l 1
425 1542 m 25
 78 -124 l 25
228 597 m 14
 193 427 l 22
 184 386 181 348 182 313 c 4
 188 157 285 50 427 50 c 14
 448 50 l 22
 656 50 791 201 838 427 c 14
 873 597 l 22
 883 645 895 722 893 762 c 4
 888 906 802 974 639 974 c 14
 618 974 l 22
 410 974 275 821 228 597 c 14
EndSplineSet
EndChar

StartChar: c
Encoding: 99 99 66
Width: 1075
VWidth: 2334
GlyphClass: 2
Flags: W
LayerCount: 2
Fore
SplineSet
905 830 m 1
 889 936 798 973 639 973 c 10
 618 973 l 18
 410 973 275 821 228 597 c 10
 193 427 l 18
 184 386 181 348 182 313 c 0
 188 157 285 50 427 50 c 10
 448 50 l 18
 605 50 709 86 770 188 c 1
EndSplineSet
EndChar

StartChar: d
Encoding: 100 100 67
Width: 1075
VWidth: 1947
GlyphClass: 2
Flags: W
HStem: -72 107<234.835 511.195> -25 60<533.6 546> 989 411<404.805 708.106>
VStem: 186 922<478 1400>
DStem2: -191.922 -376 -9.68291 -376 0.207912 0.978148<746.12 1284.95> 548.317 -376 729.393 -376 0.207912 0.978148<567.748 1158.58>
LayerCount: 2
Fore
SplineSet
185 1400 m 1xb0
 1251 1400 l 1
 953 -25 l 1
 640 -25 l 1x70
 630 -72 l 1
 -122 -72 l 1
 185 1400 l 1xb0
1077 1575 m 25
 691 -276 l 25
228 597 m 14
 193 427 l 22
 184 386 181 348 182 313 c 4
 188 157 285 50 427 50 c 14
 448 50 l 22xb0
 656 50 791 201 838 427 c 14
 873 597 l 22
 883 646 895 722 893 762 c 4
 888 906 802 974 639 974 c 14
 618 974 l 22
 410 974 275 821 228 597 c 14
EndSplineSet
EndChar

StartChar: e
Encoding: 101 101 68
Width: 1075
VWidth: 1947
GlyphClass: 2
Flags: W
LayerCount: 2
Fore
SplineSet
220 561 m 25
 865 561 l 25
 899 719 l 18
 905 751 908 779 907 805 c 0
 902 927 811 974 639 974 c 10
 618 974 l 18
 410 974 291 898 254 719 c 10
 174 337 l 18
 174 337 159 244 160 218 c 0
 164 96 256 50 427 50 c 10
 448 50 l 18
 612 50 720 90 778 202 c 1
EndSplineSet
EndChar

StartChar: f
Encoding: 102 102 69
Width: 1075
VWidth: 1947
GlyphClass: 2
Flags: W
LayerCount: 2
Fore
SplineSet
1087 1283 m 5
 1061 1335 997 1353 920 1353 c 15
 790 1353 695 1284 673 1184 c 14
 396 -128 l 22
 377 -218 263 -312 145 -312 c 7
 82 -312 10 -280 -19 -221 c 5
274 827 m 29
 958 827 l 29
EndSplineSet
EndChar

StartChar: g
Encoding: 103 103 70
Width: 1075
VWidth: 2334
GlyphClass: 2
Flags: W
HStem: 989 70<418.617 696.408>
DStem2: -226.995 -541 -44.7547 -541 0.207912 0.978148<914.911 1453.64> 513.245 -541 696.349 -541 0.207912 0.978148<736.434 1327.71>
LayerCount: 2
Fore
SplineSet
114 1059 m 1
 861 1059 l 1
 858 1024 l 1
 1174 1024 l 1
 867 -441 l 1
 102 -441 l 1
 184 -48 l 1
 -114 -33 l 1
 114 1059 l 1
33 -294 m 25
 361 -294 l 18
 571 -294 709 -176 746 0 c 10
 988 1148 l 25
228 597 m 10
 193 427 l 18
 184 386 181 348 182 313 c 0
 188 157 285 50 427 50 c 10
 448 50 l 18
 656 50 791 201 838 427 c 10
 873 597 l 18
 883 645 895 722 893 762 c 0
 888 906 802 974 639 974 c 10
 618 974 l 18
 410 974 275 821 228 597 c 10
EndSplineSet
EndChar

StartChar: h
Encoding: 104 104 71
Width: 1075
VWidth: 1947
GlyphClass: 2
Flags: W
VStem: -111 921<0 921> 186 922<478 1400>
DStem2: -171.154 -283 749.846 -283 0.207912 0.978148<480.809 1720.48>
LayerCount: 2
Fore
SplineSet
185 1400 m 5x40
 1251 1400 l 5x40
 959 0 l 5
 -106 0 l 5x80
 185 1400 l 5x40
710 -183 m 25
 899 719 l 18
 905 751 908 779 907 805 c 0
 902 927 811 974 639 974 c 10
 618 974 l 18
 435 974 255 731 228 597 c 10
 210 513 l 25
425 1542 m 25
 68 -171 l 25
EndSplineSet
EndChar

StartChar: k
Encoding: 107 107 74
Width: 1075
VWidth: 1947
GlyphClass: 2
Flags: W
HStem: 1405 20G<186.747 1113>
VStem: -112 922<0 922> 191 922<503 1425>
DStem2: -168.965 -268 753.035 -268 0.207912 0.978148<465.682 1730.84>
LayerCount: 2
Fore
SplineSet
190 1425 m 5xa0
 1256 1425 l 5xa0
 959 0 l 5
 -107 0 l 5xc0
 190 1425 l 5xa0
898 -132 m 17
 641 88 l 2
 506 205 425 395 404 561 c 9
957 1002 m 17
 849 956 l 2
 756 904 676 856 605 788 c 2
 497 686 l 2
 331 529 210 291 138 160 c 9
456 1692 m 25
 68 -168 l 25
EndSplineSet
EndChar

StartChar: l
Encoding: 108 108 75
Width: 1075
VWidth: 1947
GlyphClass: 2
Flags: W
HStem: 1405 20G<368.747 930>
VStem: 70 557<0 557> 373 557<868 1425>
DStem2: 48.7443 -100 605.744 -100 0.207912 0.978148<218.041 1559.09>
LayerCount: 2
Fore
SplineSet
401 1425 m 5xa0
 1044 1425 l 5xa0
 747 0 l 5
 103 0 l 5xc0
 401 1425 l 5xa0
-64 75 m 29
 928 75 l 29
449 92 m 21
194 1325 m 29
 702 1325 l 29
 444 75 l 29
EndSplineSet
EndChar

StartChar: m
Encoding: 109 109 76
Width: 1075
VWidth: 1947
GlyphClass: 2
Flags: W
VStem: -112 922<0 922> 111.183 921.997<128.003 1050>
LayerCount: 2
Fore
SplineSet
112 1050 m 1x40
 1178 1050 l 1x40
 959 0 l 1
 -107 0 l 1x80
 112 1050 l 1x40
774 -99 m 25
 963 809 l 18
 969 837 971 860 971 881 c 0
 968 959 916 974 841 974 c 10
 829 974 l 18
 716 974 605 853 576 719 c 10
 551 603 l 25
405 -99 m 25
 595 809 l 18
 600 837 603 860 602 881 c 0
 599 959 547 974 472 974 c 10
 461 974 l 18
 347 974 236 853 207 719 c 10
 183 603 l 25
309 1196 m 25
 37 -99 l 25
EndSplineSet
EndChar

StartChar: n
Encoding: 110 110 77
Width: 1075
VWidth: 1947
GlyphClass: 2
Flags: W
VStem: -112 922<0 922>
LayerCount: 2
Fore
SplineSet
102 1024 m 5
 452 1024 l 5
 459 1049 l 5
 1178 1050 l 5
 959 0 l 5
 -107 0 l 5
 102 1024 l 5
715 -159 m 29
 899 719 l 22
 905 751 908 779 907 805 c 4
 902 927 811 974 639 974 c 14
 618 974 l 22
 435 974 255 731 228 597 c 14
 210 513 l 29
362 1238 m 29
 70 -159 l 29
EndSplineSet
EndChar

StartChar: o
Encoding: 111 111 78
Width: 1075
VWidth: 1947
GlyphClass: 2
Flags: W
LayerCount: 2
Fore
SplineSet
228 597 m 14
 193 427 l 22
 184 386 181 348 182 313 c 4
 188 157 285 50 427 50 c 14
 448 50 l 22
 656 50 791 201 838 427 c 14
 873 597 l 22
 883 646 895 722 893 762 c 4
 888 906 802 974 639 974 c 14
 618 974 l 22
 410 974 275 821 228 597 c 14
EndSplineSet
EndChar

StartChar: p
Encoding: 112 112 79
Width: 1075
VWidth: 1947
GlyphClass: 2
Flags: W
HStem: -384 419<234.652 511.195> 989 85<404.805 704.396> 989 35<370 375>
VStem: -194 922<-384 538>
DStem2: -265.448 -700 -78.5512 -700 0.207912 0.978148<1078.43 1617.16> 479.449 -700 661.205 -700 0.207912 0.978148<898.986 1490.26>
LayerCount: 2
Fore
SplineSet
101 1024 m 5xb0
 418 1024 l 5xb0
 427 1074 l 5
 1183 1074 l 5xd0
 878 -384 l 5
 -187 -384 l 5
 101 1024 l 5xb0
228 597 m 10
 193 427 l 18
 184 386 181 348 182 313 c 0
 188 157 285 50 427 50 c 10
 448 50 l 18
 656 50 791 201 838 427 c 10
 873 597 l 18
 883 645 895 722 893 762 c 0
 888 906 802 974 639 974 c 10
 618 974 l 18xd0
 410 974 275 821 228 597 c 10
354 1199 m 25
 -22 -600 l 25
EndSplineSet
EndChar

StartChar: q
Encoding: 113 113 80
Width: 1075
VWidth: 1947
GlyphClass: 2
Flags: W
HStem: -384 419<234.835 511.195> 989 94<404.805 708.106>
VStem: -194 922<-384 538>
DStem2: -249.949 -649 -67.7108 -649 0.207912 0.978148<1025.22 1564.05> 490.289 -649 670.393 -649 0.207912 0.978148<846.847 1437.68>
LayerCount: 2
Fore
SplineSet
119 1083 m 5
 842 1083 l 5
 831 1024 l 5
 1170 1024 l 5
 878 -384 l 5
 -187 -384 l 5
 119 1083 l 5
1008 1244 m 29
 634 -549 l 29
228 597 m 14
 193 427 l 22
 184 386 181 348 182 313 c 4
 188 157 285 50 427 50 c 14
 448 50 l 22
 656 50 791 201 838 427 c 14
 873 597 l 22
 883 646 895 722 893 762 c 4
 888 906 802 974 639 974 c 14
 618 974 l 22
 410 974 275 821 228 597 c 14
EndSplineSet
EndChar

StartChar: r
Encoding: 114 114 81
Width: 1075
VWidth: 1947
GlyphClass: 2
Flags: W
VStem: -114.999 922<0 922>
LayerCount: 2
Fore
SplineSet
101 1024 m 5
 446 1024 l 5
 455 1074 l 5
 1183 1074 l 5
 955 0 l 5
 -110 0 l 5
 101 1024 l 5
931 597 m 16
 941 645 954 726 952 773 c 0
 951 806 946 836 936 864 c 1
 910 937 844 974 720 974 c 10
 699 974 l 18
 491 974 249 694 202 470 c 10
 166 300 l 17
362 1238 m 25
 64 -189 l 25
EndSplineSet
EndChar

StartChar: s
Encoding: 115 115 82
Width: 1075
VWidth: 1947
GlyphClass: 2
Flags: W
LayerCount: 2
Fore
SplineSet
899 719 m 21
 902 734 903 749 903 764 c 4
 902 780 899 795 895 810 c 5
 866 908 759 974 639 974 c 14
 618 974 l 22
 462 974 303 952 268 789 c 6
 265 777 l 6
 251 720 329 615 383 594 c 5
 663 486 l 6
 707 469 833 402 811 301 c 6
 803 255 l 6
 774 119 604 50 448 50 c 14
 392 50 l 22
 253 50 134 142 130 260 c 4
 129 275 136 322 139 337 c 12
EndSplineSet
EndChar

StartChar: t
Encoding: 116 116 83
Width: 1075
VWidth: 1947
GlyphClass: 2
Flags: W
HStem: 1405 20G<277.746 931>
VStem: -39 831<-84 747> 282 649<776 1425>
LayerCount: 2
Fore
SplineSet
295 1425 m 5xa0
 1046 1425 l 5xa0
 902 737 l 5
 1113 737 l 5
 941 -84 l 5
 -19 -84 l 5xc0
 295 1425 l 5xa0
7 933 m 29
 1082 933 l 29
791 215 m 21
 786 193 776 171 760 150 c 5
 713 87 627 50 548 50 c 14
 528 50 l 22
 437 50 353 105 350 182 c 4
 350 193 352 205 354 216 c 6
 625 1506 l 13
EndSplineSet
EndChar

StartChar: u
Encoding: 117 117 84
Width: 1075
VWidth: 1947
GlyphClass: 2
Flags: W
VStem: 101 928<96 1024>
LayerCount: 2
Fore
SplineSet
101 1024 m 5
 1174 1024 l 5
 955 0 l 5
 641 0 l 5
 633 -33 l 5
 -114 -33 l 5
 101 1024 l 5
354 1199 m 25
 174 337 l 18
 173 333 157 236 158 206 c 0
 163 93 239 50 404 50 c 10
 425 50 l 18
 607 50 814 313 842 447 c 10
 859 531 l 25
706 -204 m 25
 999 1199 l 25
EndSplineSet
EndChar

StartChar: v
Encoding: 118 118 85
Width: 1075
VWidth: 1947
GlyphClass: 2
Flags: W
VStem: -117 922<-25 897> 106 922<102 1024>
LayerCount: 2
Fore
SplineSet
107 1024 m 1x40
 1173 1024 l 1x40
 954 -25 l 1
 -112 -25 l 1x80
 107 1024 l 1x40
334 1325 m 17
 291 1005 l 2
 286 956 286 893 289 811 c 3
 292 721 297 595 320 510 c 2
 438 50 l 1
 650 513 l 2
 718 646 822 825 920 957 c 2
 1174 1325 l 9
EndSplineSet
EndChar

StartChar: w
Encoding: 119 119 86
Width: 1075
VWidth: 1947
GlyphClass: 2
Flags: W
VStem: -112 922<0 922>
LayerCount: 2
Fore
SplineSet
107 1024 m 5
 473 1024 l 5
 457 949 l 5
 796 949 l 5
 812 1024 l 5
 1173 1024 l 5
 959 0 l 5
 -107 0 l 5
 107 1024 l 5
234 1099 m 21
 208 935 l 6
 182 772 157 592 154 429 c 6
 144 75 l 5
 315 429 l 6
 356 498 420 630 484 707 c 6
 605 855 l 5
 612 701 l 6
 616 620 622 506 645 426 c 6
 743 75 l 5
 838 429 l 6
 881 578 939 777 1007 938 c 6
 1077 1099 l 13
EndSplineSet
EndChar

StartChar: x
Encoding: 120 120 87
Width: 1075
VWidth: 1947
GlyphClass: 2
Flags: W
VStem: -112 922<0 922> 106 922<102 1024>
LayerCount: 2
Fore
SplineSet
107 1024 m 5x40
 1173 1024 l 5x40
 959 0 l 5
 -107 0 l 5x80
 107 1024 l 5x40
1084 1226 m 21
 841 887 l 6
 659 633 453 334 245 127 c 6
 -85 -174 l 13
250 1214 m 21
 800 -120 l 13
EndSplineSet
EndChar

StartChar: y
Encoding: 121 121 88
Width: 1075
VWidth: 1947
GlyphClass: 2
Flags: W
VStem: -199 922<-410 512> 106 922<102 1024>
DStem2: -220.256 -510 701.744 -510 0.207912 0.978148<293.929 1568.31>
LayerCount: 2
Fore
SplineSet
-192 -410 m 5x80
 107 1024 l 5
 1173 1024 l 5x40
 874 -410 l 5
 -192 -410 l 5x80
1131 1325 m 1
 458 -110 l 2
 413 -186 320 -294 207 -294 c 1
 123 -294 51 -240 34 -170 c 1
 31 -161 30 -151 29 -142 c 0
 29 -131 30 -121 32 -110 c 9
565 109 m 1
 385 437 314 840 316 1271 c 9
EndSplineSet
EndChar

StartChar: z
Encoding: 122 122 89
Width: 1075
VWidth: 1947
GlyphClass: 2
Flags: W
VStem: -30 750<-25 725>
LayerCount: 2
Fore
SplineSet
270 1049 m 5
 1079 1049 l 5
 856 -25 l 5
 -11 -25 l 5
 145 722 l 5
 208 749 l 5
 270 1049 l 5
67 949 m 29
 992 949 l 29
 75 75 l 29
 895 75 l 29
EndSplineSet
EndChar

StartChar: braceleft
Encoding: 123 123 90
Width: 1075
VWidth: 1947
GlyphClass: 2
Flags: W
VStem: -108 651<-410 241> 327 651.002<986.998 1638>
DStem2: -129.256 -510 521.744 -510 0.207912 0.978148<237.585 2195.92>
LayerCount: 2
Fore
SplineSet
-31 -410 m 5x80
 404 1638 l 5
 1055 1638 l 5x40
 620 -410 l 5
 -31 -410 l 5x80
1130 1480 m 21
 900 1480 l 6
 750 1480 611.432 1391.91 579 1242 c 6
 527 1002 l 6
 504 894 399 764 247 764 c 6
 67 764 l 5
 247 764 l 6
 371.199 764 420.298 645.205 420.298 537.08 c 4
 420.298 512.878 417.487 487.606 412 462 c 6
 349 158 l 6
 344.961 138.728 343.095 119.927 343.095 101.826 c 4
 343.095 -20.8715 437.284 -80 568 -80 c 14
 798 -80 l 13
EndSplineSet
EndChar

StartChar: bar
Encoding: 124 124 91
Width: 1075
VWidth: 1947
GlyphClass: 2
Flags: W
VStem: -39.5801 651<-78 573> 290.729 651.002<824.998 1476>
DStem2: -93.3569 -331 557.643 -331 0.207912 0.978148<394.003 1847.37>
LayerCount: 2
Fore
SplineSet
37.4199 -78 m 5x80
 367.729 1476 l 5
 1018.73 1476 l 5x40
 688.42 -78 l 5
 37.4199 -78 l 5x80
373.9 -231 m 25
 769.066 1614 l 25
EndSplineSet
EndChar

StartChar: braceright
Encoding: 125 125 92
Width: 1075
VWidth: 1947
GlyphClass: 2
Flags: W
VStem: -108 651<-410 241> 327 651.002<986.998 1638>
DStem2: -129.256 -510 521.744 -510 0.207912 0.978148<237.585 2195.92>
LayerCount: 2
Fore
SplineSet
-31 -410 m 5x80
 404 1638 l 5
 1055 1638 l 5x40
 620 -410 l 5
 -31 -410 l 5x80
230 1480 m 21
 490 1480 l 6
 620.229 1480 715.247 1421.55 715.247 1299.54 c 4
 715.247 1281.02 713.147 1261.79 709 1242 c 6
 651.562 968 l 6
 646.127 942.641 643.351 917.61 643.351 893.621 c 4
 643.351 785.17 700.094 698 824.562 698 c 6
 1035.56 698 l 5
 824.562 698 l 6
 672.562 698 559.562 536 529.562 396 c 6
 479 158 l 6
 446.615 8.292 308 -80 158 -80 c 14
 -102 -80 l 13
EndSplineSet
EndChar

StartChar: asciitilde
Encoding: 126 126 93
Width: 1075
VWidth: 1947
GlyphClass: 2
Flags: W
LayerCount: 2
Fore
SplineSet
281 832 m 21
 335 940 417 987 490 987 c 14
 505 987 l 22
 534 987 573.5 972 594.5 945 c 6
 661 873 l 6
 682.307 849.932 715 833 742 833 c 14
 757 833 l 22
 838 833 907 886 957 977 c 13
EndSplineSet
EndChar

StartChar: cent
Encoding: 162 162 96
Width: 1075
VWidth: 1947
GlyphClass: 2
Flags: W
VStem: -135.595 922<-111 811> 149.428 922.002<306.998 1229>
LayerCount: 2
Fore
SplineSet
-130 -111 m 5x80
 150 1229 l 5
 1215 1229 l 5x40
 936 -111 l 5
 -130 -111 l 5x80
254 -252 m 25
 919 1391 l 25
905 830 m 1
 889 936 798 973 639 973 c 10
 618 973 l 18
 410 973 275 821 228 597 c 10
 193 427 l 18
 184 386 181 348 182 313 c 0
 188 157 285 50 427 50 c 10
 448 50 l 18
 605 50 709 86 770 188 c 1
EndSplineSet
EndChar

StartChar: sterling
Encoding: 163 163 97
Width: 1075
VWidth: 1947
GlyphClass: 2
Flags: W
LayerCount: 2
Fore
SplineSet
-199 -111 m 5
 -59 561 l 5
 98 579 l 5
 168 917 l 5
 18 932 l 5
 135 1491 l 5
 1327 1491 l 5
 1211 932 l 5
 918 914 l 5
 844 558 l 5
 1129 540 l 5
 994 -111 l 5
 -199 -111 l 5
35 731 m 21
 1029 731 l 13
955 1232 m 5
 913 1312 821 1350 717 1350 c 14
 696 1350 l 22
 501 1350 363 1252 325 1063 c 14
 317 1024 l 22
 317 1021 319 959 342 896 c 6
 411 710 l 6
 426 669 428 558 419 516 c 14
 410 470 l 22
 375 305 182 125 48 58 c 6
 6 37 l 5
 48 58 l 6
 181 125 239 124 338 124 c 14
 372 124 l 22
 411 124 446 129 470 114 c 6
 543 67 l 6
 561 57 581 50 604 50 c 14
 656 50 l 22
 730 50 822 76 868 115 c 13
EndSplineSet
EndChar

StartChar: euro
Encoding: 8364 8364 98
Width: 1075
VWidth: 1947
GlyphClass: 2
Flags: W
LayerCount: 2
Fore
SplineSet
875 314 m 1
 799 167 690 50 530 50 c 3
 355 50 296 185 290 349 c 0
 287 440 307 577 328 683 c 2
 348 779 l 2
 417 1086 530 1350 799 1350 c 3
 936 1350 1008 1294 1034 1184 c 1
719 565 m 25
 80 565 l 25
941 907 m 25
 186 907 l 25
EndSplineSet
EndChar

StartChar: yen
Encoding: 165 165 99
Width: 1075
VWidth: 1947
GlyphClass: 2
Flags: W
VStem: -54 738<-160 578>
LayerCount: 2
Fore
SplineSet
-103 123 m 21
 1043 123 l 13
-46 381 m 21
 1101 381 l 13
185 1400 m 5
 1251 1400 l 5
 1032 860 l 5
 819 -160 l 5
 -34 -160 l 5
 178 854 l 5
 185 1400 l 5
1154 1569 m 21
 533 513 l 5
 358 -327 l 13
349 1563 m 29
 533 513 l 29
EndSplineSet
EndChar

StartChar: section
Encoding: 167 167 101
Width: 1075
VWidth: 1947
GlyphClass: 2
Flags: W
LayerCount: 2
Fore
SplineSet
168 92 m 1
 212 2 320 -83 429 -83 c 10
 448 -83 l 18
 589 -83 708 33 708 160 c 10
 708 183 l 18
 708 285.938 597.99 389.601 478.333 418.254 c 2
 458 422.375 l 0
902 1310 m 1
 857 1396 751 1480 645 1480 c 10
 626 1480 l 18
 485 1480 365 1348 365 1227 c 10
 365 1204 l 18
 365 1097.58 474.133 994.023 593 964.399 c 2
 616.5 959.543 l 0
548 966 m 10
 528 966 l 18
 372 966 245 867 245 733 c 10
 245 667 l 18
 245 527 372 415 528 415 c 10
 548 415 l 18
 704 415 830 526 830 667 c 10
 830 733 l 18
 830 867 704 966 548 966 c 10
EndSplineSet
EndChar

StartChar: copyright
Encoding: 169 169 103
Width: 1075
VWidth: 1947
GlyphClass: 2
Flags: W
LayerCount: 2
Fore
SplineSet
538 1066.95 m 7
 841 1066.95 996 838.1 996 593.15 c 7
 996 356.25 841 117.05 538 117.05 c 7
 239 117.05 80 348.2 80 593.15 c 7
 80 841.55 243 1066.95 538 1066.95 c 7
707 431 m 5
 669 390.75 612 364.3 538 364.3 c 7
 388 364.3 309 470.1 309 592 c 7
 309 717.35 391 819.7 538 819.7 c 7
 612 819.7 668 795.55 706 755.3 c 5
EndSplineSet
EndChar

StartChar: ordfeminine
Encoding: 170 170 104
Width: 1075
VWidth: 1947
GlyphClass: 2
Flags: W
VStem: 217.674 921.996<629.004 1551>
LayerCount: 2
Fore
SplineSet
-26 -111 m 5
 100 495 l 5
 -1 510 l 5
 216 1551 l 5
 1282 1551 l 5
 1071 539 l 5
 701 539 l 5
 677 423 l 5
 943 423 l 5
 832 -111 l 5
 -26 -111 l 5
-98 319 m 21
 1026 319 l 13
911 1013 m 25
 629 1013 l 18
 452 1013 346 929 331 854 c 10
 322 815 l 18
 320 807 319 798 319 788 c 0
 322 715 384 593 540 593 c 10
 559 593 l 18
 691 593 862 777 879 854 c 9
439 1266 m 1
 492 1343 580 1381 705 1381 c 10
 722 1381 l 18
 869 1381 943 1329 947 1225 c 0
 948 1203 946 1179 940 1152 c 10
 799 470 l 25
EndSplineSet
EndChar

StartChar: guillemotleft
Encoding: 171 171 105
Width: 1075
VWidth: 1947
GlyphClass: 2
Flags: W
LayerCount: 2
Fore
SplineSet
764 124 m 29
 647 425 l 29
 666 512 l 29
 910 814 l 29
344 124 m 29
 227 425 l 29
 246 512 l 29
 490 814 l 29
EndSplineSet
EndChar

StartChar: logicalnot
Encoding: 172 172 106
Width: 1075
VWidth: 1947
GlyphClass: 2
Flags: W
VStem: -15.7109 872<214 1086> 199.428 872.002<356.998 1229>
LayerCount: 2
Fore
SplineSet
61.2891 214 m 5x80
 276.428 1229 l 5
 1148.43 1229 l 5x40
 933.289 214 l 5
 61.2891 214 l 5x80
33 600 m 25
 833 600 l 25
 711.376 30 l 25
EndSplineSet
EndChar

StartChar: softhyphen
Encoding: 173 173 107
Width: 1075
VWidth: 1947
GlyphClass: 2
Flags: W
LayerCount: 2
Fore
SplineSet
299 600 m 29
 777 600 l 29
EndSplineSet
EndChar

StartChar: registered
Encoding: 174 174 108
Width: 1075
VWidth: 1947
GlyphClass: 2
Flags: W
LayerCount: 2
Fore
SplineSet
722 326.45 m 29
 563 584.05 l 29
391 586.35 m 29
 555 586.35 l 6
 658 586.35 710 619.7 710 688.7 c 6
 710 728.95 l 6
 710 797.95 664 822.1 555 822.1 c 6
 391 822.1 l 5
 391 326.45 l 5
538 1086.95 m 7
 841 1086.95 996 840.4 996 595.45 c 7
 996 358.55 841 117.05 538 117.05 c 7
 239 117.05 80 350.5 80 595.45 c 7
 80 843.85 243 1086.95 538 1086.95 c 7
EndSplineSet
EndChar

StartChar: degree
Encoding: 176 176 110
Width: 1075
VWidth: 1947
GlyphClass: 2
Flags: W
HStem: 882 451<461.727 742.014>
VStem: 376 450<967.489 1249.77>
LayerCount: 2
Fore
SplineSet
678 1333 m 7
 827 1333 903 1229 903 1108 c 7
 903 991 827 882 678 882 c 7
 531 882 453 987 453 1108 c 7
 453 1231 533 1333 678 1333 c 7
EndSplineSet
EndChar

StartChar: plusminus
Encoding: 177 177 111
Width: 1075
VWidth: 1947
GlyphClass: 2
Flags: W
LayerCount: 2
Fore
SplineSet
39 108 m 25
 861 108 l 25
515 419 m 25
 697 1273 l 25
198 862 m 25
 1020 862 l 25
EndSplineSet
EndChar

StartChar: twosuperior
Encoding: 178 178 112
Width: 1075
VWidth: 2334
GlyphClass: 2
Flags: W
VStem: 113 457<-25 432>
DStem2: 91.7443 -125 548.744 -125 0.207912 0.978148<197.25 1060.58>
LayerCount: 2
Fore
SplineSet
568 1264 m 1
 607 1324 647 1365 732 1365 c 10
 742 1365 l 18
 823.675 1365 864.513 1330.97 864.513 1264.03 c 0
 864.513 1249.83 862.675 1234.15 859 1217 c 10
 854 1195 l 18
 847 1163 813 1093 774 1052 c 2
 547 843 l 2
 501 796 459 707 431 650 c 1
 899 650 l 9
190 -25 m 1
 509 1479 l 1
 1201 1479 l 1
 1063.56 830 l 1
 826.332 819.5 l 1
 647 -25 l 1
 190 -25 l 1
EndSplineSet
EndChar

StartChar: threesuperior
Encoding: 179 179 113
Width: 1075
VWidth: 2334
GlyphClass: 2
Flags: W
LayerCount: 2
Fore
SplineSet
523 1264 m 1
 561 1322 619 1360 689 1360 c 10
 701 1360 l 18
 777.181 1360 841.857 1313.84 841.857 1247.24 c 3
 841.857 1236.03 840.593 1224.24 838 1212 c 10
 833 1189 l 18
 821 1129 738 1022 650 1022 c 1
 538 1022 l 9
 649 1022 l 18
 745.493 1022 799.673 1005.34 799.673 920.829 c 3
 799.673 901.116 797.107 879.453 792 856 c 10
 790 845 l 18
 764 724 695 632 576 632 c 10
 564 632 l 18
 492.228 632 411.823 703.439 411.823 783.038 c 0
 411.823 792.164 412.84 801.817 415 812 c 1
EndSplineSet
EndChar

StartChar: micro
Encoding: 181 181 115
Width: 1075
VWidth: 2334
GlyphClass: 2
Flags: W
VStem: 105 921<103 1024>
LayerCount: 2
Fore
SplineSet
-179 -349 m 5
 106 1024 l 5
 1170 1024 l 5
 950 -42 l 5
 638 -42 l 5
 573 -349 l 5
 -179 -349 l 5
-168 -564 m 17
 2 -375 56 -231 99 -25 c 10
 211 516 l 25
375 1304 m 25
 186 397 l 18
 182 380 170 297 171 266 c 3
 176 134 259 50 427 50 c 10
 448 50 l 18
 631 50 803 263 831 397 c 10
 859 531 l 25
807 -228 m 0
 783 -174 766 -95 763 -15 c 3
 762 30 762 58 771 99 c 2
 1020 1304 l 9
EndSplineSet
EndChar

StartChar: paragraph
Encoding: 182 182 116
Width: 1075
VWidth: 2334
GlyphClass: 2
Flags: W
VStem: -115 923<0 923> 229 922<680 1602>
DStem2: -177.704 -295 745.296 -295 0.207912 0.978148<493.493 1940.1>
LayerCount: 2
Fore
SplineSet
-110 0 m 5x80
 228 1602 l 5
 1293 1602 l 5x40
 957 0 l 5
 -110 0 l 5x80
434 890 m 29
 509 1240 l 29
708 -195 m 29
 1041 1400 l 29
 625 1400 l 29
491 759 m 29
 471 759 l 6
 386 759 285 788 279 943 c 4
 278 980 279 1006 290 1057 c 6
 297 1095 l 6
 335 1281 494 1400 604 1400 c 6
 625 1400 l 5
 292 -195 l 5
EndSplineSet
EndChar

StartChar: periodcentered
Encoding: 183 183 117
Width: 1075
VWidth: 1947
GlyphClass: 2
Flags: W
HStem: 636 222<424.767 600.466>
VStem: 402 221<658.729 835.565>
LayerCount: 2
Fore
SplineSet
700 747 m 0
 700 688 654 636 589 636 c 0
 526 636 479 687 479 747 c 0
 479 805 523 858 589 858 c 0
 654 858 700 807 700 747 c 0
EndSplineSet
EndChar

StartChar: onesuperior
Encoding: 185 185 119
Width: 1075
VWidth: 1708
GlyphClass: 2
Flags: W
HStem: 1405 20G<671.45 956>
LayerCount: 2
Fore
SplineSet
304 857 m 5
 552 1045 l 5
 581 1180 l 5
 541 1236 l 5
 773 1425 l 5
 1033 1425 l 5
 868 641 l 5
 260 641 l 5
 304 857 l 5
587 470 m 29
 783 1374 l 29
 475 1204 l 29
EndSplineSet
EndChar

StartChar: ordmasculine
Encoding: 186 186 120
Width: 1075
VWidth: 1947
GlyphClass: 2
Flags: W
HStem: 598 787<465 655>
VStem: 217.674 921.996<629.004 1551>
LayerCount: 2
Fore
SplineSet
-26 -111 m 1
 100 495 l 1
 -1 510 l 1
 216 1551 l 1
 1282 1551 l 1
 1071 539 l 1
 967 539 l 1
 832 -111 l 1
 -26 -111 l 1
-98 319 m 17
 1026 319 l 9
715 1385 m 3
 868 1385 933 1305 938 1171 c 3
 940 1124 923 1022 911 962 c 0
 863 733 757 598 551 598 c 3
 399 598 340 711 335 845 c 3
 334 893 329 902 342 962 c 0
 389 1189 508 1385 715 1385 c 3
EndSplineSet
EndChar

StartChar: guillemotright
Encoding: 187 187 121
Width: 1075
VWidth: 1947
GlyphClass: 2
Flags: W
LayerCount: 2
Fore
SplineSet
142 124 m 25
 385 425 l 25
 404 512 l 25
 288 814 l 25
562 124 m 25
 805 425 l 25
 824 512 l 25
 708 814 l 25
EndSplineSet
EndChar

StartChar: OE
Encoding: 338 338 122
Width: 1075
VWidth: 1947
GlyphClass: 2
Flags: W
HStem: 1405 20G<124.832 1013>
DStem2: -209.256 -196 -51.5249 -196 0.207912 0.978148<448.557 1543.19> 368.475 -196 615.378 -196 0.207912 0.978148<794.576 1244.45> 368.475 -196 668.377 -196 0.207912 0.978148<324.373 787.193 1273.87 1416.42>
LayerCount: 2
Fore
SplineSet
-191 -96 m 1
 119 1425 l 1
 1140 1425 l 1
 1046 974 l 1
 981 956 l 1
 893 531 l 1
 950 513 l 1
 824 -96 l 1
 -191 -96 l 1
1021 75 m 17
 513 75 l 1
 548 244 l 1
 737 1156 l 2
 771 1325 l 1
 1280 1325 l 1
1098 732 m 1
 648 732 l 1
251 1156 m 2
 271 1248 379 1325 498 1325 c 2
 563 1325 l 2
 657 1325 737 1274 740 1191 c 0
 740 1180 739 1168 737 1156 c 2
 548 244 l 2
 528 150 411 75 305 75 c 2
 240 75 l 2
 136 75 62 131 59 210 c 0
 59 221 60 233 62 244 c 10
 251 1156 l 2
EndSplineSet
EndChar

StartChar: oe
Encoding: 339 339 123
Width: 1075
VWidth: 1947
GlyphClass: 2
Flags: W
HStem: 969 20G<330.5 419.438>
DStem2: -24.3661 -65 335.634 -65 0.207912 0.978148<250.482 998.56>
LayerCount: 2
Fore
SplineSet
888 219 m 0
 867 115 758 50 646 50 c 3
 552 50 473 102 469 186 c 0
 469 197 470 208 472 219 c 2
 594 805 l 2
 613 899 730 974 836 974 c 3
 935 974 1010 931 1014 847 c 0
 1014 834 1013 820 1010 805 c 10
 955 542 l 1
 539 542 l 1
178 805 m 2
 199 908 308 974 420 974 c 3
 514 974 594 923 597 840 c 0
 597 829 596 817 594 805 c 2
 472 219 l 2
 453 125 336 50 229 50 c 3
 130 50 56 95 53 179 c 0
 52 192 53 206 56 219 c 10
 178 805 l 2
EndSplineSet
EndChar

StartChar: AE
Encoding: 198 198 132
Width: 1075
VWidth: 1947
GlyphClass: 2
Flags: W
HStem: 1405 20G<184.775 1013>
LayerCount: 2
Fore
SplineSet
-107 0 m 5
 188 1425 l 5
 1140 1425 l 5
 1046 974 l 5
 981 956 l 5
 893 531 l 5
 950 513 l 5
 824 -96 l 5
 228 -96 l 5
 224 0 l 5
 -107 0 l 5
-81 -201 m 17
 443 1168 l 2
 479 1262 578 1325 703 1325 c 10
 771 1325 l 25
1137 75 m 17
 513 75 l 1
 771 1325 l 1
 1395 1325 l 1
1221 764 m 1
 285 764 l 1
EndSplineSet
EndChar

StartChar: Eth
Encoding: 208 208 142
Width: 1075
VWidth: 1947
GlyphClass: 2
Flags: W
VStem: -80.1162 992<-57 935> 277 992<646 1638>
DStem2: -101.372 -157 77.8752 -157 0.207912 0.978148<259.115 1567.49>
LayerCount: 2
Fore
SplineSet
-68 -57 m 1x80
 282 1638 l 1
 1428 1638 l 1x40
 1079 -57 l 1
 -68 -57 l 1x80
-90 788 m 25
 580 788 l 25
702 1325 m 2
 880 1325 939 1198 945 1037 c 0
 949 939 939 855 913 732 c 0
 843 401 722 75 444 75 c 2
 167 75 l 1
 426 1325 l 1
 702 1325 l 2
EndSplineSet
EndChar

StartChar: multiply
Encoding: 215 215 149
Width: 1075
VWidth: 1708
GlyphClass: 2
Flags: W
LayerCount: 2
Fore
SplineSet
783 309 m 29
 331 923 l 29
201 309 m 29
 913 923 l 29
EndSplineSet
EndChar

StartChar: Thorn
Encoding: 222 222 156
Width: 1075
VWidth: 1947
GlyphClass: 2
Flags: W
VStem: -114 1036<0 1036> 213 1036<502 1538>
DStem2: -165.226 -241 870.774 -241 0.207912 0.978148<461.781 1818.76>
LayerCount: 2
Fore
SplineSet
-109 0 m 5x80
 211 1538 l 5
 1409 1538 l 5x40
 1088 0 l 5
 -109 0 l 5x80
197 445 m 25
 530 445 l 2
 738 445 867 566 904 747 c 2
 951 970 l 2
 958 1002 957 1014 956 1039 c 0
 952 1154 873 1230 693 1230 c 2
 361 1230 l 1
452 1671 m 1
 74 -141 l 1
EndSplineSet
EndChar

StartChar: germandbls
Encoding: 223 223 157
Width: 1075
VWidth: 1947
GlyphClass: 2
Flags: W
VStem: -194.261 1036<-387 649> 213 1036<502 1538>
DStem2: -255.69 -676 780.31 -676 0.207912 0.978148<510.853 2263.06>
LayerCount: 2
Fore
SplineSet
-188 -387 m 5x80
 211 1538 l 5
 1409 1538 l 5x40
 1010 -387 l 5
 -188 -387 l 5x80
-17 -576 m 5
 325 1064 l 6
 362 1243 488 1350 696 1350 c 6
 717 1350 l 6
 847 1350 924 1307 929 1190 c 7
 930 1162 920 1099 912 1063 c 6
 904 1025 l 6
 866 844 750 787 542 787 c 6
 522 787 l 29
 600 787 l 22
 772 787 853 693 858 571 c 4
 859 545 856 517 849 485 c 14
 819 337 l 22
 781 156 656 50 500 50 c 6
 491 50 l 6
 427 50 384 61 347 97 c 5
EndSplineSet
EndChar

StartChar: ae
Encoding: 230 230 164
Width: 1075
VWidth: 1947
GlyphClass: 2
Flags: W
LayerCount: 2
Fore
SplineSet
888 219 m 4
 867 115 758 50 646 50 c 7
 552 50 473 102 469 186 c 4
 469 197 470 208 472 219 c 6
 594 805 l 6
 613 899 730 974 836 974 c 7
 935 974 1010 931 1014 847 c 4
 1014 834 1013 820 1010 805 c 14
 955 542 l 5
 335 542 l 6
 223 574 106 461 84 358 c 6
 56 219 l 22
 53 206 52 192 53 179 c 4
 56 95 130 50 229 50 c 7
 336 50 453 125 472 219 c 6
 594 805 l 6
 596 817 597 829 597 840 c 4
 594 923 514 974 420 974 c 7
 309 974 199 908 178 805 c 4
EndSplineSet
EndChar

StartChar: eth
Encoding: 240 240 174
Width: 1075
VWidth: 1947
GlyphClass: 2
Flags: W
LayerCount: 2
Fore
SplineSet
334 1099 m 25
 1060 1339 l 25
838 430 m 25
 878 620 l 18
 886 660 896 733 894 774 c 0
 885 1032 690 1277 506 1432 c 9
199 457 m 10
 193 427 l 18
 184 386 181 348 182 313 c 0
 188 157 285 50 427 50 c 10
 448 50 l 18
 656 50 791 201 838 427 c 10
 844 457 l 18
 854 506 858 551 857 591 c 0
 851 734 777 849 614 849 c 10
 593 849 l 18
 385 849 246 681 199 457 c 10
EndSplineSet
EndChar

StartChar: divide
Encoding: 247 247 181
Width: 1075
VWidth: 1947
GlyphClass: 2
Flags: W
HStem: 118 247<308.191 492.925> 835 250<459.74 645.575>
VStem: 275 248<151.525 333.143> 428 248<866.462 1053.54>
LayerCount: 2
Fore
SplineSet
143 600 m 25
 961 600 l 25xc0
753 960 m 0xd0
 753 900 702 835 631 835 c 0
 553 835 505 906 505 960 c 0
 505 1014 553 1085 631 1085 c 0
 702 1085 753 1020 753 960 c 0xd0
600 243 m 4xe0
 600 181 550 118 478 118 c 4
 407 118 352 183 352 243 c 4
 352 298 404 365 478 365 c 4
 552 365 600 298 600 243 c 4xe0
EndSplineSet
EndChar

StartChar: oslash
Encoding: 248 248 182
Width: 1075
VWidth: 1947
GlyphClass: 2
Flags: W
LayerCount: 2
Fore
SplineSet
228 597 m 14
 193 427 l 22
 184 386 181 348 182 313 c 4
 188 157 285 50 427 50 c 14
 448 50 l 22
 656 50 791 201 838 427 c 14
 873 597 l 22
 883 646 895 722 893 762 c 4
 888 906 802 974 639 974 c 14
 618 974 l 22
 410 974 275 821 228 597 c 14
50 -48 m 25
 1020 1062 l 25
EndSplineSet
EndChar

StartChar: thorn
Encoding: 254 254 188
Width: 1075
VWidth: 1947
GlyphClass: 2
Flags: W
HStem: -383 418<234.835 511.195> 989 411<404.805 708.106>
VStem: -194 1018<-383 635> 183 1018<382 1400>
DStem2: -255.004 -670 -72.1745 -670 0.207912 0.978148<1046.81 1585.64> 485.825 -670 762.996 -670 0.207912 0.978148<868.316 1459.15>
LayerCount: 2
Fore
SplineSet
228 597 m 10xc0
 193 427 l 18
 184 386 181 348 182 313 c 0
 188 157 285 50 427 50 c 10
 448 50 l 18
 656 50 791 201 838 427 c 10
 873 597 l 18
 883 646 895 722 893 762 c 0
 888 906 802 974 639 974 c 10
 618 974 l 18
 410 974 275 821 228 597 c 10xc0
-187 -383 m 5xe0
 182 1400 l 5
 1359 1400 l 5xd0
 989 -383 l 5
 -187 -383 l 5xe0
-15 -570 m 25
 442 1623 l 25
EndSplineSet
EndChar

StartChar: minus
Encoding: 8722 8722 190
Width: 1075
VWidth: 1708
GlyphClass: 2
Flags: W
LayerCount: 2
Fore
SplineSet
50 600 m 25
 1025 600 l 25
EndSplineSet
EndChar

StartChar: quoteleft
Encoding: 8216 8216 192
Width: 1075
VWidth: 1947
GlyphClass: 2
Flags: W
HStem: 1366 56.92<728.278 806.795>
VStem: 490.966 194.25<1034.19 1148.68>
LayerCount: 2
Fore
SplineSet
616 1139 m 17
 644 1268 700 1446 931 1423 c 9
 934 1366 l 17
 861 1356 702 1291 785 1183 c 9
 616 1139 l 17
605 1116 m 0
 605 1168 645 1214 703 1214 c 0
 758 1214 799 1169 799 1116 c 0
 799 1065 761 1019 703 1019 c 0
 646 1019 605 1064 605 1116 c 0
EndSplineSet
EndChar

StartChar: gravemodifier
Encoding: 715 715 193
Width: 1075
VWidth: 2334
GlyphClass: 2
Flags: W
LayerCount: 2
Fore
SplineSet
707 1647 m 29
 861 1438 l 29
EndSplineSet
EndChar

StartChar: acute
Encoding: 180 180 194
Width: 1075
VWidth: 1947
GlyphClass: 2
Flags: W
LayerCount: 2
Fore
SplineSet
863 1587 m 29
 605 1308 l 29
EndSplineSet
EndChar

StartChar: circumflex
Encoding: 710 710 195
Width: 1075
VWidth: 1947
GlyphClass: 2
Flags: W
HStem: 700 938<236 959>
VStem: 37 922<700 1622> 236 922<716 1638>
LayerCount: 2
Fore
SplineSet
536 1460 m 29
 766 1600 l 29
 936 1460 l 29x80
114 700 m 5xc0
 313 1638 l 5
 1235 1638 l 5xa0
 1036 700 l 5
 114 700 l 5xc0
EndSplineSet
EndChar

StartChar: tilde
Encoding: 732 732 196
Width: 1075
VWidth: 1947
GlyphClass: 2
Flags: W
LayerCount: 2
Fore
SplineSet
466 1502 m 17
 492 1528 l 2
 535 1571 583 1612 652 1612 c 10
 668 1612 l 18
 703 1612 733 1595 751 1576 c 2
 766 1559 l 2
 784 1539 814 1522 850 1522 c 10
 867 1522 l 18
 937 1522 985 1562 1030 1609 c 2
 1052 1632 l 9
EndSplineSet
EndChar

StartChar: macronmodifier
Encoding: 713 713 197
Width: 1075
VWidth: 1947
GlyphClass: 2
Flags: W
LayerCount: 2
Fore
SplineSet
984 1538 m 1
 531 1538 l 1
EndSplineSet
EndChar

StartChar: breve
Encoding: 728 728 198
Width: 1075
VWidth: 1947
GlyphClass: 2
Flags: W
LayerCount: 2
Fore
SplineSet
996 1593 m 4
 922 1523 830 1480 738 1480 c 7
 647 1480 575 1523 532 1592 c 4
EndSplineSet
EndChar

StartChar: dotaccent
Encoding: 729 729 199
Width: 1075
VWidth: 1947
GlyphClass: 2
Flags: W
HStem: 1425 204<591.294 757.75>
VStem: 573 204<1443.91 1610.09>
LayerCount: 2
Fore
SplineSet
650 1527 m 31
 650 1583 694 1629 751 1629 c 31
 807 1629 854 1583 854 1527 c 31
 854 1471 807 1425 751 1425 c 31
 694 1425 650 1471 650 1527 c 31
EndSplineSet
EndChar

StartChar: dieresis
Encoding: 168 168 200
Width: 1075
VWidth: 1947
GlyphClass: 2
Flags: W
HStem: 1444 198<333.719 491.283 710.928 867.598>
VStem: 316 193<1461.19 1625.9> 694 191<1461.46 1626.07>
LayerCount: 2
Fore
SplineSet
596 1545 m 4
 596 1491 553 1444 500 1444 c 4
 448 1444 403 1489 403 1545 c 4
 403 1605 451 1642 499 1642 c 4
 554 1642 596 1597 596 1545 c 4
1031 1545 m 4
 1031 1486 984 1444 936 1444 c 4
 885 1444 840 1490 840 1545 c 4
 840 1601 885 1642 936 1642 c 4
 983 1642 1031 1605 1031 1545 c 4
EndSplineSet
EndChar

StartChar: ring
Encoding: 730 730 202
Width: 1075
VWidth: 1947
GlyphClass: 2
Flags: W
HStem: 1223 110<572.515 727.788> 1517 110<572.515 727.788>
VStem: 448 110<1346.23 1503.77> 742 110<1348.51 1501.49>
LayerCount: 2
Fore
SplineSet
525 1425 m 31
 525 1537 613 1627 725 1627 c 31
 837 1627 929 1537 929 1425 c 31
 929 1313 837 1223 725 1223 c 31
 613 1223 525 1313 525 1425 c 31
635 1425 m 31
 635 1374 675 1333 726 1333 c 31
 777 1333 819 1374 819 1425 c 31
 819 1476 777 1517 726 1517 c 31
 675 1517 635 1476 635 1425 c 31
EndSplineSet
EndChar

StartChar: cedilla
Encoding: 184 184 203
Width: 1075
VWidth: 1947
GlyphClass: 2
Flags: W
LayerCount: 2
Fore
SplineSet
463 88 m 21
 463 0 l 5
 426 -132 l 5
 548.915 -132 598.117 -176.836 598.117 -240.671 c 7
 598.117 -337.391 495.743 -411 379 -411 c 31
 300.85 -411 236 -379 194 -334 c 13
EndSplineSet
EndChar

StartChar: ogonek
Encoding: 731 731 204
Width: 1075
VWidth: 1947
GlyphClass: 2
Flags: W
LayerCount: 2
Fore
SplineSet
510 -290 m 5
 478 -314 l 6
 451.44 -333.92 419 -345 387 -345 c 7
 326.095 -345 284.115 -301.092 284.115 -242.917 c 4
 284.115 -189.339 317.583 -146.799 342 -126 c 14
 495 0 l 29
 510 72 l 29
EndSplineSet
EndChar

StartChar: caron
Encoding: 711 711 205
Width: 1075
VWidth: 1947
GlyphClass: 2
Flags: W
HStem: 1422 314<257 1112>
LayerCount: 2
Fore
SplineSet
566 1600 m 29
 736 1460 l 29
 966 1600 l 29
267 1422 m 5
 334 1736 l 5
 1256 1736 l 5
 1189 1422 l 5
 267 1422 l 5
EndSplineSet
EndChar

StartChar: dotlessi
Encoding: 305 305 206
Width: 1075
VWidth: 1947
GlyphClass: 2
Flags: W
VStem: 64 558<-25 533> 367 558<842 1400>
DStem2: 42.7443 -125 600.744 -125 0.207912 0.978148<218.249 1559.09>
LayerCount: 2
Fore
SplineSet
97 -25 m 1x80
 395 1400 l 1
 1040 1400 l 1x40
 742 -25 l 1
 97 -25 l 1x80
-18 75 m 25
 905 75 l 25
449 92 m 17
162 949 m 25
 623 949 l 25
 444 75 l 25
EndSplineSet
EndChar

StartChar: currency
Encoding: 164 164 210
Width: 1075
VWidth: 1947
GlyphClass: 2
Flags: W
LayerCount: 2
Fore
SplineSet
883.911 342.083 m 21
 734.403 555.529 l 5
341.597 1008.47 m 5
 192.089 1221.92 l 13
108.184 423.615 m 21
 299.917 602.353 l 5
777.197 962.687 m 5
 967.816 1140.38 l 13
547 1077.55 m 22
 688 1077.55 828 936.1 828 798.1 c 14
 828 770.5 l 22
 828 624.45 688 491.05 547 491.05 c 14
 529 491.05 l 22
 388 491.05 248 625.6 248 770.5 c 14
 248 798.1 l 22
 248 936.1 388 1077.55 529 1077.55 c 14
 547 1077.55 l 22
EndSplineSet
EndChar

StartChar: brokenbar
Encoding: 166 166 211
Width: 1075
VWidth: 1947
GlyphClass: 2
Flags: W
HStem: -75 675<104.527 612.057> 833 643<290.729 805.258>
VStem: -38.9434 651<-75 576> 104.527 651.002<-51.002 600> 154.258 651<833 1484> 290.729 651.002<824.998 1476>
DStem2: -93.9955 -334 557.005 -334 0.207912 0.978148<400.137 954.865 1328.46 1850.44>
LayerCount: 2
Fore
SplineSet
38.0566 -75 m 5xe0
 181.527 600 l 5
 832.529 600 l 5xd0
 689.057 -75 l 5
 38.0566 -75 l 5xe0
231.258 833 m 5xc8
 367.729 1476 l 5
 1018.73 1476 l 5xc4
 882.258 833 l 5
 231.258 833 l 5xc8
373.263 -234 m 21
 767.153 1605 l 5
EndSplineSet
EndChar

StartChar: onequarter
Encoding: 188 188 212
Width: 1075
VWidth: 1708
GlyphClass: 2
Flags: W
VStem: 320 409<-209 200> 487 408<166 574>
DStem2: 271.112 -439 680.112 -439 0.207912 0.978148<320.174 1035.75>
LayerCount: 2
Fore
SplineSet
564 574 m 5x40
 1036 574 l 5x40
 873 -209 l 5
 400 -209 l 5x80
 564 574 l 5x40
722 -339 m 29
 901 525 l 29
 478 40 l 29
 1131 40 l 29
-81 972 m 1
 209 1207 l 1
 257 1244 l 1
 178 1351 l 1
 443 1555 l 1
 744 1555 l 1
 583 808 l 1
 -120 808 l 1
 -81 972 l 1
283 645 m 25
 457 1504 l 25
 103 1319 l 25
99 -25 m 25
 1046 1425 l 25
EndSplineSet
EndChar

StartChar: onehalf
Encoding: 189 189 213
Width: 1075
VWidth: 1708
GlyphClass: 2
Flags: W
VStem: 477 576<43 619>
LayerCount: 2
Fore
SplineSet
-81 972 m 5
 209 1207 l 5
 257 1244 l 5
 178 1351 l 5
 443 1555 l 5
 744 1555 l 5
 583 808 l 5
 -120 808 l 5
 -81 972 l 5
283 645 m 29
 457 1504 l 29
 103 1319 l 29
584 372 m 5
 627 432 673 473 771 473 c 14
 783 473 l 22
 877 473 925 440 927 373 c 4
 928 359 926 343 922 325 c 14
 918 303 l 22
 912 271 876 201 832 160 c 6
 577 -49 l 6
 520 -128 486 -153 456 -210 c 5
 1066 -210 l 13
350 -345 m 5
 551 619 l 5
 1217 619 l 5
 1078 -45 l 5
 901 -63 l 5
 842 -345 l 5
 350 -345 l 5
99 -25 m 29
 1046 1425 l 29
EndSplineSet
EndChar

StartChar: threequarters
Encoding: 190 190 214
Width: 1075
VWidth: 1708
GlyphClass: 2
Flags: W
VStem: 320 409<-209 200> 487 408<166 574>
DStem2: 271.112 -439 680.112 -439 0.207912 0.978148<320.174 1035.75>
LayerCount: 2
Fore
SplineSet
564 574 m 1x40
 1036 574 l 1x40
 873 -209 l 1
 400 -209 l 1x80
 564 574 l 1x40
722 -339 m 25
 901 525 l 25
 478 40 l 25
 1131 40 l 25
291 1432 m 1
 330 1490 400 1528 472 1528 c 10
 485 1528 l 18
 562 1528 621 1484 623 1419 c 0
 624 1407 622 1394 620 1380 c 10
 622 1389 l 18
 610 1329 532 1254 441 1254 c 1
 324 1254 l 9
 439 1254 l 18
 538 1254 580 1176 583 1095 c 0
 584 1074 582 1050 576 1024 c 10
 574 1013 l 18
 549 892 493 864 370 864 c 10
 357 864 l 18
 283 864 188 888 185 965 c 0
99 -25 m 25
 1046 1425 l 25
EndSplineSet
EndChar

StartChar: Lslash
Encoding: 321 321 216
Width: 1075
VWidth: 1947
GlyphClass: 2
Flags: W
VStem: -186 903<0 903> 115 903<497 1400>
DStem2: -207.256 -100 695.744 -100 0.207912 0.978148<289.978 1534.22>
LayerCount: 2
Fore
SplineSet
-192 0 m 1x80
 103 1400 l 1
 1147 1400 l 1x40
 851 0 l 1
 -192 0 l 1x80
46 512 m 29
 787 730 l 29
430 1566 m 25
 121 76 l 25
 1023 76 l 25
EndSplineSet
EndChar

StartChar: lslash
Encoding: 322 322 257
Width: 1075
VWidth: 1947
GlyphClass: 2
Flags: W
HStem: 1405 20G<368.756 930>
LayerCount: 2
Fore
SplineSet
185 512 m 25
 926 730 l 25
401 1425 m 1
 1044 1425 l 1
 950 973 l 1
 1144 961 l 1
 1008 308 l 1
 802 260 l 1
 747 0 l 1
 103 0 l 1
 159 260 l 1
 -18 304 l 1
 118 957 l 1
 306 973 l 1
 401 1425 l 1
-64 75 m 25
 928 75 l 25
449 92 m 17
194 1325 m 25
 702 1325 l 25
 444 75 l 25
EndSplineSet
EndChar

StartChar: dotlessj
Encoding: 567 567 260
Width: 1075
VWidth: 1947
GlyphClass: 2
Flags: W
VStem: 453.074 766.926<633.074 1400>
LayerCount: 2
Fore
SplineSet
-202 -456 m 1
 -1 508 l 1
 312 528 l 1
 494 1400 l 1
 1381 1400 l 1
 993 -456 l 1
 -202 -456 l 1
205 -146 m 0
 208 -228 280 -294 383 -294 c 11
 513 -294 608 -230 634 -110 c 2
 853 949 l 25
 226 949 l 25
EndSplineSet
EndChar

StartChar: eng
Encoding: 331 331 261
Width: 1075
VWidth: 2334
GlyphClass: 2
Flags: W
HStem: -410 269.25<-141.918 180>
LayerCount: 2
Fore
SplineSet
-194 -410 m 5
 -136 -140 l 5
 236 -144 l 5
 298 0 l 5
 -107 0 l 5
 112 1022 l 5
 430 1022 l 5
 443 1072 l 5
 1319 1072 l 5
 1005 -410 l 5
 -194 -410 l 5
228 -228 m 1
 258 -271 316 -294 381 -294 c 10
 440 -294 l 18
 595 -294 713 -170 743 -28 c 10
 899 719 l 18
 905 751 908 779 907 805 c 0
 902 927 811 974 639 974 c 10
 618 974 l 18
 435 974 255 731 228 597 c 10
 210 513 l 25
373 1293 m 25
 88 -76 l 25
EndSplineSet
EndChar

StartChar: ellipsis
Encoding: 8230 8230 266
Width: 1075
VWidth: 1947
GlyphClass: 2
Flags: W
HStem: 27 171<82.4571 223.76 390.422 530.76 697.674 838.76>
VStem: 72 162<36.6866 188.154> 380 162<37.0584 187.782> 687 163<37.0584 187.782>
LayerCount: 2
Fore
SplineSet
992 113 m 0
 992 69 957 27 910 27 c 0
 865 27 829 67 829 113 c 0
 829 157 864 198 910 198 c 0
 958 198 992 155 992 113 c 0
280 113 m 0
 280 69 246 27 199 27 c 0
 153 27 118 67 118 113 c 0
 118 157 152 198 199 198 c 0
 246 198 280 155 280 113 c 0
636 113 m 0
 636 69 601 27 554 27 c 0
 509 27 474 67 474 113 c 0
 474 157 508 198 554 198 c 0
 602 198 636 155 636 113 c 0
EndSplineSet
EndChar

StartChar: uparrow
Encoding: 8593 8593 267
Width: 1075
VWidth: 1708
GlyphClass: 2
Flags: W
HStem: -99 1143<0 922>
VStem: 0 922<-99 1044>
LayerCount: 2
Fore
SplineSet
999 -99 m 5
 77 -99 l 5
 77 1044 l 5
 999 1044 l 5
 999 -99 l 5
898 620 m 29
 538 991 l 29
 178 620 l 29
538 991 m 29
 538 209 l 29
EndSplineSet
EndChar

StartChar: downarrow
Encoding: 8595 8595 268
Width: 1075
VWidth: 1708
GlyphClass: 2
Flags: W
HStem: 156 1143<0 922>
VStem: 0 922<156 1299>
LayerCount: 2
Fore
SplineSet
999 156 m 1
 77 156 l 1
 77 1299 l 1
 999 1299 l 1
 999 156 l 1
898 580 m 25
 538 209 l 25
 178 580 l 25
538 209 m 25
 538 991 l 25
EndSplineSet
EndChar

StartChar: spaceopenbox
Encoding: 9251 9251 269
Width: 1075
VWidth: 1947
GlyphClass: 2
Flags: W
HStem: -615 771<-79 679>
LayerCount: 2
Fore
SplineSet
-79 156 m 1
 996 156 l 1
 756 -615 l 1
 -243 -615 l 1
 -79 156 l 1
773 321 m 25
 685 -92 l 25
 50 -92 l 25
 138 321 l 25
EndSplineSet
EndChar

StartChar: foursuperior
Encoding: 8308 8308 271
Width: 1075
VWidth: 1947
GlyphClass: 2
Flags: W
HStem: 1405 20G<304.755 983>
VStem: 122 674<544 1218> 309 674<751 1425>
LayerCount: 2
Fore
SplineSet
327 1425 m 5xa0
 1106 1425 l 5xa0
 922 544 l 5
 143 544 l 5xc0
 327 1425 l 5xa0
661 327 m 25
 880 1402 l 25
 275 839 l 25
 1073 839 l 25
EndSplineSet
EndChar

StartChar: Eng
Encoding: 330 330 273
Width: 1075
VWidth: 2334
GlyphClass: 2
Flags: W
HStem: -410 269.25<-141.918 180>
DStem2: -222.256 -510 815.744 -510 0.207912 0.978148<318.046 377.884 594.548 1952.73>
LayerCount: 2
Fore
SplineSet
-194 -410 m 5
 -136 -140 l 5
 236 -144 l 5
 298 0 l 5
 -107 0 l 5
 183 1400 l 5
 501 1400 l 5
 514 1450 l 5
 1390 1450 l 5
 1005 -410 l 5
 -194 -410 l 5
228 -228 m 1
 258 -271 316 -294 381 -294 c 10
 440 -294 l 18
 595 -294 713 -170 743 -28 c 10
 970 1063 l 18
 977 1095 986 1155 985 1181 c 0
 981 1303 889 1350 717 1350 c 10
 696 1350 l 18
 514 1350 330 1092 303 958 c 10
 292 906 l 25
434 1584 m 25
 83 -96 l 25
EndSplineSet
EndChar

StartChar: dcroat
Encoding: 273 273 274
Width: 1075
VWidth: 1947
GlyphClass: 2
Flags: W
HStem: -72 122<288.66 621.156> -25 75<640 656> 974 103<444.844 607.635>
DStem2: -186.617 -376 22.3171 -376 0.207912 0.978148<672.814 1277.77> 667.317 -376 825.393 -376 0.207912 0.978148<588.567 1234.04>
LayerCount: 2
Fore
SplineSet
675 1400 m 1xa0
 1198 1400 l 1
 900 -25 l 1
 640 -25 l 1x60
 630 -72 l 1
 -122 -72 l 1
 114.507 1062 l 1
 607.635 1077 l 1
 675 1400 l 1xa0
523 1280 m 25
 1345 1280 l 25
1077 1575 m 25
 691 -276 l 25
228 597 m 10
 193 427 l 18
 184 386 181 348 182 313 c 0
 188 157 285 50 427 50 c 10
 448 50 l 18xa0
 656 50 791 201 838 427 c 10
 873 597 l 18
 883 646 895 722 893 762 c 0
 888 906 802 974 639 974 c 10
 618 974 l 18
 410 974 275 821 228 597 c 10
EndSplineSet
EndChar

StartChar: bullet
Encoding: 8226 8226 280
Width: 1075
VWidth: 1947
GlyphClass: 2
Flags: W
HStem: 496 343<356.75 564.903>
VStem: 296 329<556.864 780.967>
LayerCount: 2
Fore
SplineSet
719 669 m 4
 719 584 645 496 554 496 c 4
 462 496 390 587 390 669 c 4
 390 757 466 839 554 839 c 4
 642 839 719 757 719 669 c 4
EndSplineSet
EndChar

StartChar: florin
Encoding: 402 402 281
Width: 1075
VWidth: 1947
GlyphClass: 2
Flags: W
LayerCount: 2
Fore
SplineSet
1120 1280 m 1
 1094 1332 1030 1350 954 1350 c 11
 837 1350 733 1280 707 1181 c 10
 365 -127 l 18
 341 -212 232 -311 114 -311 c 3
 50 -311 -21 -279 -50 -220 c 1
274 827 m 25
 958 827 l 25
EndSplineSet
EndChar

StartChar: dagger
Encoding: 8224 8224 282
Width: 1075
VWidth: 1947
GlyphClass: 2
Flags: W
HStem: 1405 20G<275.653 1021.89>
VStem: -104.261 742<-387 355> 279.893 741.997<683.003 1425>
DStem2: -161.226 -655 580.774 -655 0.207912 0.978148<428.258 2126.26>
LayerCount: 2
Fore
SplineSet
293 1425 m 1xa0
 1151 1425 l 1xa0
 774 -387 l 1
 -84 -387 l 1xc0
 293 1425 l 1xa0
756 1590 m 29
 310 -555 l 25
91 950 m 25
 1237 950 l 25
EndSplineSet
EndChar

StartChar: daggerdbl
Encoding: 8225 8225 283
Width: 1075
VWidth: 1947
GlyphClass: 2
Flags: W
HStem: 1405 20G<275.653 1021.89>
VStem: -104.261 742<-387 355> 279.893 741.997<683.003 1425>
DStem2: -154.849 -625 587.151 -625 0.207912 0.978148<397.588 2095.59>
LayerCount: 2
Fore
SplineSet
293 1425 m 1xa0
 1151 1425 l 1xa0
 774 -387 l 1
 -84 -387 l 1xc0
 293 1425 l 1xa0
-110 89 m 25
 1049 89 l 25
752 1569 m 29
 317 -525 l 25
67 950 m 25
 1226 950 l 25
EndSplineSet
EndChar

StartChar: trademark
Encoding: 8482 8482 284
Width: 1075
VWidth: 1947
GlyphClass: 2
Flags: W
VStem: 222 886<514 1400>
LayerCount: 2
Fore
SplineSet
100 466 m 5
 299 1400 l 5
 1185 1400 l 5
 986 466 l 5
 800 466 l 5
 811 519 l 5
 664 519 l 5
 653 466 l 5
 100 466 l 5
505.562 252 m 29
 751 1401 l 29
 757 615 l 29
 1097 1401 l 29
 850.562 252 l 29
266.562 310 m 29
 479 1308 l 29
29 1308 m 29
 679 1308 l 29
EndSplineSet
EndChar

StartChar: Ecyrillic
Encoding: 1028 1028 290
Width: 1075
VWidth: 1947
GlyphClass: 2
Flags: W
LayerCount: 2
Fore
SplineSet
782 314 m 1
 707 167 597 50 438 50 c 3
 263 50 204 185 198 349 c 0
 194 440 215 577 235 683 c 2
 255 779 l 2
 324 1086 437 1350 707 1350 c 3
 871 1350 933 1231 945 1082 c 1
317 756 m 25
 694 755 l 25
EndSplineSet
EndChar

StartChar: Becyrillic
Encoding: 1041 1041 298
Width: 1075
VWidth: 2334
GlyphClass: 2
Flags: W
VStem: -193.622 916.622<-384 532.622>
DStem2: -214.878 -484 701.744 -484 0.207912 0.978148<292.81 1721.32>
LayerCount: 2
Fore
SplineSet
-187 -384 m 1
 186 1401 l 1
 1041 1401 l 1
 968 1049 l 1
 1178 1050 l 1
 873 -384 l 1
 -187 -384 l 1
267 787 m 25
 600 787 l 2
 772 787 854 695 858 573 c 7
 859 546 856 517 849 485 c 2
 813 312 l 2
 776 133 666 50 448 50 c 2
 115 50 l 1
 379 1325 l 9
 1189 1325 l 25
EndSplineSet
EndChar

StartChar: Gecyrillic
Encoding: 1043 1043 299
Width: 1075
VWidth: 2334
GlyphClass: 2
Flags: W
HStem: 1405 20G<183.197 1020>
VStem: -110.535 916.623<0 916.623>
LayerCount: 2
Fore
SplineSet
-105 0 m 5
 186 1425 l 5
 1149 1425 l 5
 1076 1049 l 5
 1178 1050 l 5
 954 0 l 5
 -105 0 l 5
69 -165 m 29
 379 1324 l 29
 1339 1324 l 29
EndSplineSet
EndChar

StartChar: Decyrillic
Encoding: 1044 1044 300
Width: 1075
VWidth: 1947
GlyphClass: 2
Flags: W
HStem: 1405 20G<186.761 1113>
VStem: 191 922<503 1425>
DStem2: -196.104 -400 725.896 -400 0.207912 0.978148<621.19 1865.6>
LayerCount: 2
Fore
SplineSet
-39 -300 m 17
 40 76 l 9
 847 76 l 21
 768 -300 l 13
190 1425 m 1
 1256 1425 l 1
 985 118 l 1
 834 -162 l 1
 -41 -162 l 1
 -81 118 l 1
 190 1425 l 1
156 76 m 17
 505 966 l 2
 548 1079 714 1277 865 1325 c 9
 1001 1325 l 17
 743 76 l 9
EndSplineSet
EndChar

StartChar: Zhecyrillic
Encoding: 1046 1046 302
Width: 1075
VWidth: 1947
GlyphClass: 2
Flags: W
VStem: -112 922<0 922>
LayerCount: 2
Fore
SplineSet
185 1400 m 1
 551 1400 l 1
 540 1350 l 1
 874 1350 l 1
 888 1400 l 1
 1251 1400 l 1
 959 0 l 1
 -107 0 l 1
 185 1400 l 1
837 -85 m 25
 739 702 l 25
-55 -147 m 25
 410 700 l 25
310 1500 m 25
 472 215 l 25
 1225 1602 l 25
739 1503 m 25
 407 -93 l 25
EndSplineSet
EndChar

StartChar: Zecyrillic
Encoding: 1047 1047 303
Width: 1075
VWidth: 1947
GlyphClass: 2
Flags: W
LayerCount: 2
Fore
SplineSet
349 1190 m 1
 418 1296 551 1350 673 1350 c 10
 717 1350 l 18
 847 1350 928 1286 932 1171 c 3
 933 1147 924 1090 918 1063 c 10
 909 1022 l 18
 887 912 744 813 589 811 c 2
 411 809 l 9
 605 809 l 18
 768 809 843 694 849 549 c 3
 850 510 846 466 836 417 c 10
 831 397 l 18
 786 177 656 50 448 50 c 10
 404 50 l 18
 280 50 145 104 139 242 c 3
 139 262 146 315 151 337 c 1
EndSplineSet
EndChar

StartChar: Iicyrillic
Encoding: 1048 1048 304
Width: 1075
VWidth: 1947
GlyphClass: 2
Flags: W
VStem: -112 922<0 922> 186 922<478 1400>
DStem2: -178.53 -313 743.47 -313 0.207912 0.978148<511.687 1751.36>
LayerCount: 2
Fore
SplineSet
185 1400 m 5x40
 1251 1400 l 5x40
 959 0 l 5
 -107 0 l 5x80
 185 1400 l 5x40
704 -213 m 29
 1029 1350 l 29
 115 49 l 29
 436 1593 l 29
EndSplineSet
EndChar

StartChar: Elcyrillic
Encoding: 1051 1051 307
Width: 1075
VWidth: 1947
GlyphClass: 2
Flags: W
HStem: 1405 20G<186.747 1113>
VStem: -112 922<0 922> 191 922<503 1425>
DStem2: -181.081 -325 740.919 -325 0.207912 0.978148<523.955 1789.12>
LayerCount: 2
Fore
SplineSet
190 1425 m 5xa0
 1256 1425 l 5xa0
 959 0 l 5
 -107 0 l 5xc0
 190 1425 l 5xa0
-38 -225 m 16
 493 966 l 2
 556 1108 714 1277 865 1325 c 9
 1024 1325 l 25
 705 -210 l 25
EndSplineSet
EndChar

StartChar: Pecyrillic
Encoding: 1055 1055 311
Width: 1075
VWidth: 1947
GlyphClass: 2
Flags: W
HStem: 1405 20G<186.747 1113>
VStem: -112 922<0 922> 191 922<503 1425>
DStem2: -180.443 -322 741.557 -322 0.207912 0.978148<520.888 1786.05>
LayerCount: 2
Fore
SplineSet
190 1425 m 5xa0
 1256 1425 l 5xa0
 959 0 l 5
 -107 0 l 5xc0
 190 1425 l 5xa0
57 -222 m 29
 379 1325 l 29
 1024 1325 l 29
 702 -222 l 29
EndSplineSet
EndChar

StartChar: Ucyrillic
Encoding: 1059 1059 315
Width: 1075
VWidth: 1947
GlyphClass: 2
Flags: W
VStem: -121 922<-40 882> 186 922<478 1400>
DStem2: -142.256 -140 779.744 -140 0.207912 0.978148<293.929 1574.6>
LayerCount: 2
Fore
SplineSet
185 1400 m 5x40
 1251 1400 l 5x40
 950 -40 l 5
 -116 -40 l 5x80
 185 1400 l 5x40
1104 1480 m 16
 492 214 l 2
 419 73 328 51 251 50 c 2
 219 50 l 2
 196 50 173 54 152 61 c 2
 120 73 l 9
366 1480 m 25
 603 459 l 25
EndSplineSet
EndChar

StartChar: Efcyrillic
Encoding: 1060 1060 316
Width: 1075
VWidth: 1947
GlyphClass: 2
Flags: W
HStem: 155 1100<387.998 615.034> 1405 20G<184.775 1111>
VStem: -117.102 922<-24 898> 189 922<503 1425>
DStem2: -202.762 -427 -79.9808 -427 0.207912 0.978148<944.741 1549.11> 596.876 -427 719.238 -427 0.207912 0.978148<800.392 1426.86>
LayerCount: 2
Fore
SplineSet
688 1255 m 7xc0
 892 1255 990 1145 997 960 c 7
 999 904 996 854 981 781 c 6
 952 645 l 6
 892 362 728 155 460 155 c 7
 254 155 159 284 152 467 c 7
 150 521 163 615 177 683 c 6
 197 779 l 6
 261 1085 424 1255 688 1255 c 7xc0
188 1425 m 5xd0
 1254 1425 l 5xd0
 954 -24 l 5
 -112 -24 l 5xe0
 188 1425 l 5xd0
748 1545 m 29
 358 -327 l 29
EndSplineSet
EndChar

StartChar: Tsecyrillic
Encoding: 1062 1062 318
Width: 1075
VWidth: 1947
GlyphClass: 2
Flags: W
VStem: -176 870<-302 568> 186 870<530 1400>
DStem2: -197.256 -402 672.744 -402 0.207912 0.978148<283.117 1842.31>
LayerCount: 2
Fore
SplineSet
185 1400 m 1x40
 1191 1400 l 1x40
 836 -302 l 1
 -170 -302 l 1x80
 185 1400 l 1x40
691 60 m 25
 845 60 l 25
 627 -189 l 25
421 1527 m 25
 121 75 l 25
 685 75 l 17
 985 1527 l 9
EndSplineSet
EndChar

StartChar: Checyrillic
Encoding: 1063 1063 319
Width: 1075
VWidth: 1947
GlyphClass: 2
Flags: W
VStem: -114 921<0 921> 186 921<479 1400>
DStem2: -183.081 -325 737.919 -325 0.207912 0.978148<523.747 1764.04>
LayerCount: 2
Fore
SplineSet
185 1400 m 1x40
 1250 1400 l 1x40
 955 0 l 1
 -109 0 l 1x80
 185 1400 l 1x40
855 512 m 25
 523 512 l 2
 351 512 269 605 265 728 c 7
 264 754 267 783 273 814 c 2
 424 1539 l 17
1069 1539 m 1
 702 -225 l 1
EndSplineSet
EndChar

StartChar: Shacyrillic
Encoding: 1064 1064 320
Width: 1075
VWidth: 1947
GlyphClass: 2
Flags: W
VStem: -224 1111<0 1111>
LayerCount: 2
Fore
SplineSet
58 1400 m 1
 541 1400 l 1
 495 1184 l 1
 840 1184 l 1
 882 1400 l 1
 1342 1400 l 1
 1048 0 l 1
 -236 0 l 1
 58 1400 l 1
728 1451 m 17
 444 75 l 9
367 1548 m 25
 63 75 l 25
 824 75 l 25
 1128 1548 l 25
EndSplineSet
EndChar

StartChar: Shchacyrillic
Encoding: 1065 1065 321
Width: 1075
VWidth: 1947
GlyphClass: 2
Flags: W
VStem: -176.002 902<-302 600>
LayerCount: 2
Fore
SplineSet
185 1400 m 1
 520 1400 l 1
 474 1184 l 1
 825 1184 l 1
 867 1400 l 1
 1228 1400 l 1
 873 -302 l 1
 -170 -302 l 1
 185 1400 l 1
675 1359 m 17
 415 75 l 9
764 60 m 25
 887 60 l 29
 662 -189 l 25
373 1590 m 25
 63 75 l 25
 766 75 l 17
 1075 1590 l 9
EndSplineSet
EndChar

StartChar: Hardsigncyrillic
Encoding: 1066 1066 322
Width: 1075
VWidth: 1947
GlyphClass: 2
Flags: W
HStem: 1405 20G<246.743 1113>
LayerCount: 2
Fore
SplineSet
260 1425 m 1
 1256 1425 l 1
 946 -60 l 1
 -120 -60 l 1
 42 712 l 1
 204 714 l 1
 254 959 l 1
 162 959 l 1
 260 1425 l 1
433 747 m 25
 662 747 l 2
 775 747 846 656 850 536 c 3
 851 509 849 479 842 445 c 2
 819 337 l 2
 782 158 662 75 523 75 c 2
 294 75 l 1
 553 1325 l 9
 319 1325 l 25
 85 896 l 25
EndSplineSet
EndChar

StartChar: Yericyrillic
Encoding: 1067 1067 323
Width: 1075
VWidth: 1947
GlyphClass: 2
Flags: W
VStem: -114 921<0 921> 186 921<479 1400>
DStem2: -172.24 -274 748.76 -274 0.207912 0.978148<471.608 1711.9>
LayerCount: 2
Fore
SplineSet
185 1400 m 1x40
 1250 1400 l 1x40
 955 0 l 1
 -109 0 l 1x80
 185 1400 l 1x40
1103 1518 m 17
 754 -174 l 9
236 797 m 25
 314 797 l 2
 485 797 567 705 571 583 c 7
 572 557 569 528 562 495 c 2
 530 337 l 2
 493 158 383 75 165 75 c 2
 86 75 l 1
 389 1518 l 1
EndSplineSet
EndChar

StartChar: Softsigncyrillic
Encoding: 1068 1068 324
Width: 1075
VWidth: 1947
GlyphClass: 2
Flags: W
VStem: -114 921<0 921> 186 921<479 1400>
DStem2: -135.256 -100 785.744 -100 0.207912 0.978148<293.721 1534.01>
LayerCount: 2
Fore
SplineSet
185 1400 m 1x40
 1250 1400 l 1x40
 955 0 l 1
 -109 0 l 1x80
 185 1400 l 1x40
259 747 m 25
 592 747 l 2
 764 747 845 655 850 532 c 7
 851 506 848 477 842 445 c 2
 819 337 l 2
 782 158 672 75 454 75 c 2
 121 75 l 1
 431 1569 l 1
EndSplineSet
EndChar

StartChar: Ereversedcyrillic
Encoding: 1069 1069 325
Width: 1075
VWidth: 1947
GlyphClass: 2
Flags: W
LayerCount: 2
Fore
SplineSet
527 756 m 25
 904 755 l 25
200 315 m 1
 214 167 277 50 438 50 c 3
 700 50 834 353 895 651 c 2
 931 828 l 2
 947 907 949 976 946 1050 c 3
 940 1216 881 1350 707 1350 c 3
 539 1350 429 1227 354 1074 c 1
EndSplineSet
EndChar

StartChar: IUcyrillic
Encoding: 1070 1070 326
Width: 1075
VWidth: 1947
GlyphClass: 2
Flags: W
HStem: 35 1330<507 789>
DStem2: -164.718 -250 263.786 -250 0.207912 0.978148<667.279 1601.12> 627.079 -250 817.281 -250 0.207912 0.978148<446.623 1367.27>
LayerCount: 2
Fore
SplineSet
185 1400 m 5
 501 1400 l 5
 535 1503 l 5
 1336 1503 l 5
 1002 -129 l 5
 215 -129 l 5
 213 0 l 5
 -109 0 l 5
 185 1400 l 5
251 700 m 29
 529 700 l 29
379 1596 m 21
 14 -150 l 13
880 1350 m 7
 976 1350 1003 1217 1007 1098 c 7
 1011 1001 1005 935 997 897 c 6
 919 528 l 6
 871 301 748 50 611 50 c 7
 515 50 488 187 484 306 c 7
 480 402 493 498 500 530 c 6
 576 897 l 6
 630 1157 742 1350 880 1350 c 7
EndSplineSet
EndChar

StartChar: IAcyrillic
Encoding: 1071 1071 327
Width: 1075
VWidth: 1947
GlyphClass: 2
Flags: W
VStem: -112 922<0 922> 198 922<536 1458>
DStem2: -178.53 -313 743.47 -313 0.207912 0.978148<511.687 1810.58>
LayerCount: 2
Fore
SplineSet
197 1458 m 1x40
 1263 1458 l 1x40
 959 0 l 1
 -107 0 l 1x80
 197 1458 l 1x40
-13 -102 m 25
 575 712 l 25
899 717 m 25
 566 717 l 2
 394 717 306 779 301 902 c 7
 300 928 299 942 306 973 c 2
 325 1063 l 2
 366 1259 473 1325 692 1325 c 2
 1024 1325 l 1
 704 -213 l 1
EndSplineSet
EndChar

StartChar: becyrillic
Encoding: 1073 1073 329
Width: 1075
VWidth: 1947
GlyphClass: 2
Flags: W
HStem: -99 134<234.835 511.195>
VStem: -138 993<-99 894>
DStem2: -159.256 -199 27.9396 -199 0.207912 0.978148<566.196 1105.03> 585.94 -199 833.744 -199 0.207912 0.978148<386.794 977.626>
LayerCount: 2
Fore
SplineSet
228 597 m 14
 193 427 l 22
 184 386 181 348 182 313 c 4
 188 157 285 50 427 50 c 14
 448 50 l 22
 656 50 791 201 838 427 c 14
 873 597 l 22
 883 646 895 722 893 762 c 4
 888 906 802 974 639 974 c 14
 618 974 l 22
 410 974 275 821 228 597 c 14
335 1506 m 1
 1062 1506 l 1
 987 1136 l 1
 1263 1083 l 1
 1015 -99 l 1
 -133 -99 l 1
 104 1029 l 1
 240 1047 l 1
 335 1506 l 1
1139 1325 m 25
 381 1325 l 25
 821 917 l 25
EndSplineSet
EndChar

StartChar: vecyrillic
Encoding: 1074 1074 330
Width: 1075
VWidth: 2334
GlyphClass: 2
Flags: W
HStem: 60 489<210.607 352 391 558.609>
VStem: 127.805 594.195<224.763 475.5>
LayerCount: 2
Fore
SplineSet
431 75 m 6
 476 75 l 6
 684 75 808 181 836 316 c 14
 838 325 l 22
 842 344 844 361 843 378 c 7
 839 481 751 549 573 549 c 6
 218 549 l 5
 315 549 l 6
 491 549 777 889 814 1064 c 6
 837 1172 l 6
 839 1186 841 1199 840 1212 c 4
 837 1303 746 1349 635 1349 c 6
 598 1349 l 6
 409 1349 372 1276 352 1184 c 6
 169 312 l 22
 166 296 161 262 161 250 c 7
 165 150 291 75 431 75 c 6
EndSplineSet
EndChar

StartChar: gecyrillic
Encoding: 1075 1075 331
Width: 1075
VWidth: 1947
GlyphClass: 2
Flags: W
LayerCount: 2
Fore
SplineSet
261 810 m 1
 330 908 463 974 583 974 c 10
 604 974 l 18
 742 974 879 960 883 840 c 3
 884 825 883 808 879 789 c 2
 876 777 l 2
 865 723 811 648 740 625 c 2
 269 450 l 2
 194 423 145 368 132 301 c 2
 123 255 l 2
 120 241 119 228 119 215 c 3
 123 103 253 50 392 50 c 10
 448 50 l 18
 605 50 791 203 819 337 c 8
EndSplineSet
EndChar

StartChar: decyrillic
Encoding: 1076 1076 332
Width: 1075
VWidth: 1947
GlyphClass: 2
Flags: W
LayerCount: 2
Fore
SplineSet
367 1274 m 17
 487 1338 519 1325 692 1325 c 2
 712 1325 l 2
 897 1314 959 1197 963 1083 c 3
 964 1052 956 1000 953 981 c 2
 873 597 l 9
228 597 m 10
 193 427 l 18
 184 386 181 348 182 313 c 3
 188 157 285 50 427 50 c 10
 448 50 l 18
 656 50 791 201 838 427 c 10
 873 597 l 18
 883 646 895 722 893 762 c 3
 888 906 802 974 639 974 c 10
 618 974 l 18
 410 974 275 821 228 597 c 10
EndSplineSet
EndChar

StartChar: zhecyrillic
Encoding: 1078 1078 334
Width: 1075
VWidth: 1947
GlyphClass: 2
Flags: W
VStem: -112 922<0 922>
LayerCount: 2
Fore
SplineSet
140 1184 m 1
 481 1184 l 1
 449 1024 l 1
 828 1024 l 1
 890 1184 l 1
 1206 1184 l 1
 959 0 l 1
 -107 0 l 1
 140 1184 l 1
825 -142 m 25
 679 475 l 25
-32 -142 m 25
 368 473 l 25
208 1049 m 25
 457 149 l 25
 1077 1049 l 25
685 1242 m 25
 423 -15 l 25
EndSplineSet
EndChar

StartChar: zecyrillic
Encoding: 1079 1079 335
Width: 1075
VWidth: 1947
GlyphClass: 2
Flags: W
LayerCount: 2
Fore
SplineSet
271 813 m 1
 340 919 472 973 595 973 c 10
 639 973 l 18
 778 973 865 917 868 837 c 3
 868 828 867 818 865 808 c 10
 863 797 l 18
 840 686 709 560 554 560 c 2
 428 560 l 9
 553 560 l 18
 733 560 819 478 822 380 c 3
 823 365 821 350 818 334 c 10
 814 314 l 18
 791 201 656 50 448 50 c 10
 427 50 l 18
 300 50 160 108 156 225 c 0
EndSplineSet
EndChar

StartChar: iicyrillic
Encoding: 1080 1080 336
Width: 1075
VWidth: 1947
GlyphClass: 2
Flags: W
VStem: 105 922<101 1023>
LayerCount: 2
Fore
SplineSet
344 1152 m 25
 182 380 l 18
 172 334 157 235 158 206 c 3
 162 92 239 50 404 50 c 10
 425 50 l 18
 607 50 814 313 842 447 c 10
 859 531 l 25
703 -216 m 25
 989 1152 l 25
106 1023 m 1
 1172 1023 l 1
 959 0 l 1
 628 0 l 1
 600 -70 l 1
 -122 -70 l 1
 106 1023 l 1
EndSplineSet
EndChar

StartChar: kacyrillic
Encoding: 1082 1082 338
Width: 1075
VWidth: 1947
GlyphClass: 2
Flags: W
VStem: -112 922<0 922>
LayerCount: 2
Fore
SplineSet
105 1024 m 5
 639 1024 l 5
 689 1190 l 5
 1207 1190 l 5
 959 0 l 5
 -107 0 l 5
 105 1024 l 5
871 -118 m 21
 682 101 l 6
 623 164 534 321 522 488 c 6
 513 599 l 13
988 981 m 21
 856 902 l 6
 666 757 491 614 349 422 c 6
 131 126 l 13
356 1214 m 29
 68 -170 l 29
EndSplineSet
EndChar

StartChar: elcyrillic
Encoding: 1083 1083 339
Width: 1075
VWidth: 1947
GlyphClass: 2
Flags: W
VStem: -112 922<0 922> 111 922<126 1048>
LayerCount: 2
Fore
SplineSet
112 1048 m 5x40
 1178 1048 l 5x40
 959 0 l 5
 -107 0 l 5x80
 112 1048 l 5x40
15 -99 m 16
 371 604 l 2
 438 745 636 900 786 948 c 9
 946 948 l 25
 723 -122 l 25
EndSplineSet
EndChar

StartChar: emcyrillic
Encoding: 1084 1084 340
Width: 1075
VWidth: 1947
GlyphClass: 2
Flags: W
VStem: 106 922<102 1024>
LayerCount: 2
Fore
SplineSet
-107 0 m 1
 107 1024 l 1
 1173 1024 l 1
 959 0 l 1
 599 0 l 1
 616 75 l 1
 277 75 l 1
 260 0 l 1
 -107 0 l 1
-12 -75 m 25
 319 1021 l 25
 452 119 l 25
 961 1021 l 25
 832 -75 l 25
EndSplineSet
EndChar

StartChar: encyrillic
Encoding: 1085 1085 341
Width: 1075
VWidth: 1947
GlyphClass: 2
Flags: W
VStem: -112 922<0 922> 104 922<102 1024>
LayerCount: 2
Fore
SplineSet
105 1024 m 5x40
 1170 1024 l 5x40
 959 0 l 5
 -107 0 l 5x80
 105 1024 l 5x40
202 470 m 29
 847 470 l 29
988 1146 m 29
 720 -138 l 29
343 1146 m 29
 75 -138 l 29
EndSplineSet
EndChar

StartChar: tecyrillic
Encoding: 1090 1090 346
Width: 1075
VWidth: 1947
GlyphClass: 2
Flags: W
VStem: -112 922<0 922> 111.183 921.997<128.003 1050>
LayerCount: 2
Fore
SplineSet
112 1050 m 5x40
 1178 1050 l 5x40
 959 0 l 5
 -107 0 l 5x80
 112 1050 l 5x40
774 -99 m 25
 963 809 l 18
 969 837 971 860 971 881 c 0
 968 959 916 974 841 974 c 10
 829 974 l 18
 716 974 605 853 576 719 c 10
 551 603 l 25
405 -99 m 25
 595 809 l 18
 600 837 603 860 602 881 c 0
 599 959 547 974 472 974 c 10
 461 974 l 18
 347 974 236 853 207 719 c 10
 183 603 l 25
309 1196 m 25
 37 -99 l 25
EndSplineSet
EndChar

StartChar: efcyrillic
Encoding: 1092 1092 348
Width: 1075
VWidth: 1947
GlyphClass: 2
Flags: W
VStem: -194 922<-384 538> 110 922<127 1049>
DStem2: -235.829 -578 -104.899 -578 0.207912 0.978148<958.543 1399.66> 557.231 -578 686.171 -578 0.207912 0.978148<779.177 1212.68>
LayerCount: 2
Fore
SplineSet
111 1049 m 1x40
 1176 1049 l 1x40
 878 -384 l 1
 -187 -384 l 1x80
 111 1049 l 1x40
670 1170 m 25
 326 -478 l 25
323 50 m 2
 189 50 132 199 127 329 c 3
 126 358 126 390 133 423 c 2
 150 513 l 2
 186 694 310 905 528 905 c 2
 699 905 l 2
 849 905 917 753 922 612 c 3
 923 582 923 548 915 513 c 2
 897 423 l 2
 849 196 703 50 539 50 c 2
 323 50 l 2
EndSplineSet
EndChar

StartChar: tsecyrillic
Encoding: 1094 1094 350
Width: 1075
VWidth: 1947
GlyphClass: 2
Flags: W
VStem: -194 922<-384 538> 104 922<102 1024>
DStem2: -215.256 -484 706.744 -484 0.207912 0.978148<293.929 1541.42>
LayerCount: 2
Fore
SplineSet
105 1024 m 1x40
 1170 1024 l 1x40
 878 -384 l 1
 -187 -384 l 1x80
 105 1024 l 1x40
355 1202 m 25
 174 337 l 18
 166 301 157 235 158 206 c 3
 162 93 239 50 404 50 c 10
 425 50 l 18
 607 50 814 313 842 447 c 10
 859 531 l 25
1000 1202 m 25
 766 79 l 17
 795 48 805 1 806 -30 c 3
 809 -106 736 -179 609 -228 c 0
EndSplineSet
EndChar

StartChar: checyrillic
Encoding: 1095 1095 351
Width: 1075
VWidth: 1947
GlyphClass: 2
Flags: W
VStem: -111.998 922<0 922> 104.001 921.999<102.001 1024>
LayerCount: 2
Fore
SplineSet
105 1024 m 1x40
 1170 1024 l 1x40
 959 0 l 1
 -107 0 l 1x80
 105 1024 l 1x40
345 1156 m 25
 256 729 l 18
 248 693 238 628 239 599 c 7
 243 485 316 427 482 427 c 10
 503 427 l 18
 685 427 896 705 924 839 c 10
 937 908 l 25
990 1156 m 25
 711 -182 l 17
EndSplineSet
EndChar

StartChar: shacyrillic
Encoding: 1096 1096 352
Width: 1075
VWidth: 1947
GlyphClass: 2
Flags: W
VStem: 104.001 921.999<102.001 1024>
LayerCount: 2
Fore
SplineSet
105 1024 m 1
 1170 1024 l 1
 959 0 l 1
 732 0 l 1
 702 -80 l 1
 -124 -80 l 1
 105 1024 l 1
302 1172 m 25
 104 215 l 18
 98 188 95 164 96 144 c 3
 99 66 150 50 225 50 c 10
 236 50 l 18
 350 50 468 203 497 337 c 10
 513 421 l 25
671 1172 m 25
 472 215 l 18
 467 188 464 164 465 144 c 3
 468 66 519 50 594 50 c 10
 605 50 l 18
 718 50 837 203 865 337 c 10
 882 421 l 25
753 -196 m 25
 1039 1172 l 25
EndSplineSet
EndChar

StartChar: shchacyrillic
Encoding: 1097 1097 353
Width: 1075
VWidth: 1947
GlyphClass: 2
Flags: W
VStem: 104.001 921.999<102.001 1024>
LayerCount: 2
Fore
SplineSet
105 1024 m 1
 1170 1024 l 1
 870 -410 l 1
 447 -410 l 1
 505 -80 l 1
 -124 -80 l 1
 105 1024 l 1
302 1173 m 25
 104 215 l 18
 98 188 95 164 96 144 c 3
 99 66 150 50 225 50 c 10
 236 50 l 18
 350 50 468 203 497 337 c 10
 513 421 l 25
670 1173 m 25
 472 215 l 18
 467 188 464 164 465 144 c 3
 468 66 519 50 594 50 c 10
 605 50 l 18
 718 50 837 203 865 337 c 10
 882 421 l 25
655 -228 m 0
 788 -190 852 -121 849 -41 c 3
 848 -8 838 43 812 79 c 1
 1039 1173 l 9
EndSplineSet
EndChar

StartChar: hardsigncyrillic
Encoding: 1098 1098 354
Width: 1075
VWidth: 1947
GlyphClass: 2
Flags: W
LayerCount: 2
Fore
SplineSet
175 1023 m 1
 1172 1023 l 1
 946 -60 l 1
 -120 -60 l 1
 -55 246 l 1
 108 248 l 1
 175 572 l 1
 82 572 l 1
 175 1023 l 1
394 561 m 25
 553 561 l 18
 692 561 818 488 823 376 c 7
 823 364 822 351 819 337 c 2
 804 259 l 2
 775 124 610 75 453 74 c 10
 293 74 l 25
 470 923 l 25
 236 923 l 25
 -6 462 l 25
EndSplineSet
EndChar

StartChar: yericyrillic
Encoding: 1099 1099 355
Width: 1075
VWidth: 1947
GlyphClass: 2
Flags: W
VStem: -111.998 922<0 922> 104.001 921.999<102.001 1024>
LayerCount: 2
Fore
SplineSet
105 1024 m 1x40
 1170 1024 l 1x40
 959 0 l 1
 -107 0 l 1x80
 105 1024 l 1x40
777 -132 m 25
 1046 1169 l 25
290 1169 m 25
 63 75 l 25
 188 75 l 18
 344 75 486 124 515 259 c 2
 530 337 l 18
 532 348 535 363 534 382 c 3
 530 491 424 561 287 561 c 10
 162 561 l 25
EndSplineSet
EndChar

StartChar: softsigncyrillic
Encoding: 1100 1100 356
Width: 1075
VWidth: 1947
GlyphClass: 2
Flags: W
VStem: -112 922<0 922> 111 922<127 1049>
LayerCount: 2
Fore
SplineSet
112 1049 m 1x40
 1178 1049 l 1x40
 959 0 l 1
 -107 0 l 1x80
 112 1049 l 1x40
374 1298 m 25
 121 75 l 25
 454 75 l 18
 610 75 775 124 804 259 c 2
 819 337 l 18
 822 352 823 363 822 376 c 3
 818 487 692 561 553 561 c 10
 220 561 l 25
EndSplineSet
EndChar

StartChar: ereversedcyrillic
Encoding: 1101 1101 357
Width: 1075
VWidth: 1947
GlyphClass: 2
Flags: W
LayerCount: 2
Fore
SplineSet
366 512 m 25
 837 512 l 25
277 830 m 1
 336 936 441 973 601 973 c 10
 621 973 l 18
 784 973 870 906 876 762 c 7
 877 722 866 646 856 597 c 10
 820 427 l 18
 773 201 604 50 431 50 c 10
 410 50 l 18
 253 50 163 86 145 188 c 1
EndSplineSet
EndChar

StartChar: iucyrillic
Encoding: 1102 1102 358
Width: 1075
VWidth: 1947
GlyphClass: 2
Flags: W
HStem: -54 89<389.51 593.368> 989 60<598.004 786.798>
DStem2: -163.224 -241 238.012 -241 0.207912 0.978148<566.702 1229.07> 616.012 -241 758.773 -241 0.207912 0.978148<386.348 1088.79>
LayerCount: 2
Fore
SplineSet
106 1024 m 1
 439 1024 l 1
 462 1049 l 1
 1178 1049 l 1
 948 -54 l 1
 244 -54 l 1
 238 0 l 1
 -107 0 l 1
 106 1024 l 1
481 597 m 10
 446 427 l 18
 433 363 421 275 423 227 c 3
 428 103 484 50 576 50 c 10
 597 50 l 18
 732 50 836 201 883 427 c 10
 918 597 l 18
 935 677 951 776 949 830 c 3
 945 935 896 974 788 974 c 10
 767 974 l 18
 639 974 528 821 481 597 c 10
204 512 m 25
 464 512 l 25
310 1199 m 25
 28 -141 l 25
EndSplineSet
EndChar

StartChar: iacyrillic
Encoding: 1103 1103 359
Width: 1075
VWidth: 1947
GlyphClass: 2
Flags: W
VStem: 111 922<127 1049>
LayerCount: 2
Fore
SplineSet
112 1049 m 1
 1178 1049 l 1
 959 0 l 1
 436 0 l 1
 405 -86 l 1
 -125 -86 l 1
 112 1049 l 1
84 18 m 25
 536 470 l 25
717 -153 m 25
 946 949 l 25
 613 949 l 18
 457 949 292 901 264 766 c 2
 258 743 l 2
 255 730 255 717 255 705 c 3
 259 593 378 487 518 487 c 10
 851 487 l 25
EndSplineSet
EndChar

StartChar: ecyrillic
Encoding: 1108 1108 362
Width: 1075
VWidth: 1708
GlyphClass: 2
Flags: W
LayerCount: 2
Fore
SplineSet
228 512 m 25
 698 512 l 25
884 830 m 0
 857 932 774 974 639 974 c 10
 618 974 l 18
 410 974 275 821 228 597 c 10
 193 427 l 18
 184 386 181 348 182 313 c 3
 188 157 285 50 427 50 c 10
 448 50 l 18
 581 50 679 90 748 188 c 0
EndSplineSet
EndChar

StartChar: numero
Encoding: 8470 8470 372
Width: 1075
VWidth: 1947
Flags: W
VStem: -112 922<0 922> 186 922<478 1400>
LayerCount: 2
Fore
SplineSet
953 1225 m 3x00
 1007.95 1225 1031.21 1175.05 1031.21 1089.72 c 3
 1031.21 1035.28 1021.75 966.449 1005 887 c 0
 961 681 899 546 809 546 c 3
 755.034 546 731.952 595.636 731.952 680.639 c 3
 731.952 735.822 741.68 805.91 759 887 c 0
 802 1091 864 1225 953 1225 c 3x00
263 1400 m 1x40
 1185 1400 l 1x40
 887 0 l 1
 -35 0 l 1x80
 263 1400 l 1x40
20 -144 m 25
 352 1405 l 25
 394 -5 l 17
 718 1521 l 9
EndSplineSet
EndChar

StartChar: caroncomb
Encoding: 780 780 377
Width: 1075
VWidth: 1947
Flags: W
HStem: 1422 314<257 1112>
LayerCount: 2
Fore
SplineSet
566 1600 m 25
 736 1460 l 25
 966 1600 l 25
267 1422 m 1
 334 1736 l 1
 1256 1736 l 1
 1189 1422 l 1
 267 1422 l 1
EndSplineSet
EndChar

StartChar: gravecomb
Encoding: 768 768 379
Width: 1075
VWidth: 2334
Flags: W
LayerCount: 2
Fore
SplineSet
707 1647 m 25
 861 1438 l 25
EndSplineSet
EndChar

StartChar: acutecomb
Encoding: 769 769 380
Width: 1075
VWidth: 2334
Flags: W
LayerCount: 2
Fore
SplineSet
845 1647 m 25
 603 1438 l 25
EndSplineSet
EndChar

StartChar: tildecomb
Encoding: 771 771 381
Width: 1075
VWidth: 1947
Flags: W
LayerCount: 2
Fore
SplineSet
466 1502 m 17
 492 1528 l 2
 535 1571 583 1612 652 1612 c 10
 668 1612 l 18
 703 1612 733 1595 751 1576 c 2
 766 1559 l 2
 784 1539 814 1522 850 1522 c 10
 867 1522 l 18
 937 1522 985 1562 1030 1609 c 2
 1052 1632 l 9
EndSplineSet
EndChar

StartChar: hookabovecomb
Encoding: 777 777 382
Width: 1075
VWidth: 1947
Flags: W
LayerCount: 2
Fore
SplineSet
700 1255 m 5
 728 1387 l 5
 853.838 1387 951.197 1412.54 951.197 1514.69 c 7
 951.197 1583.28 863.971 1606 786 1606 c 15
 705 1606 644 1590 573 1549 c 13
EndSplineSet
EndChar

StartChar: dotbelowcomb
Encoding: 803 803 383
Width: 1075
VWidth: 2334
Flags: W
HStem: -355 204<208.294 374.75>
VStem: 190 204<-336.089 -169.911>
LayerCount: 2
Fore
SplineSet
267 -253 m 31
 267 -197 311 -151 368 -151 c 31
 424 -151 471 -197 471 -253 c 31
 471 -309 424 -355 368 -355 c 31
 311 -355 267 -309 267 -253 c 31
EndSplineSet
EndChar

StartChar: commaturnedabovecmb
Encoding: 786 786 396
Width: 1075
VWidth: 1947
Flags: W
LayerCount: 2
Fore
SplineSet
463 28 m 21
 463 0 l 5
 426 -132 l 5
 548.915 -132 598.117 -176.836 598.117 -240.671 c 7
 598.117 -337.391 495.743 -411 379 -411 c 31
 300.85 -411 236 -379 194 -334 c 13
EndSplineSet
EndChar

StartChar: Hbar
Encoding: 294 294 400
Width: 1075
VWidth: 1947
Flags: W
VStem: -51 961<0 961> 237 958<438 1396>
LayerCount: 2
Fore
SplineSet
-51 0 m 1x80
 237 1396 l 1
 1195 1396 l 1x40
 910 0 l 1
 -51 0 l 1x80
100 1170 m 25
 1285 1170 l 25
257 732 m 25
 902 732 l 25
1074 1560 m 25
 722 -128 l 25
429 1560 m 25
 77 -128 l 25
EndSplineSet
EndChar

StartChar: hbar
Encoding: 295 295 401
Width: 1075
VWidth: 1947
Flags: W
VStem: -52 1011<0 1011>
LayerCount: 2
Fore
SplineSet
239 1400 m 5
 731 1400 l 5
 666.135 1089 l 5
 1183.01 1074 l 5
 959 0 l 5
 -52 0 l 5
 239 1400 l 5
123 1280 m 25
 835 1280 l 25
710 -183 m 25
 899 719 l 18
 905 751 908 779 907 805 c 0
 902 927 811 974 639 974 c 10
 618 974 l 18
 435 974 255 731 228 597 c 10
 210 513 l 25
425 1542 m 25
 68 -171 l 25
EndSplineSet
EndChar

StartChar: IJ
Encoding: 306 306 410
Width: 1075
VWidth: 1947
Flags: W
HStem: 1405 20G<225.789 1073>
VStem: 230 843<582 1425>
DStem2: -91.2557 -100 748.707 -100 0.207912 0.978148<456.804 1558.47>
LayerCount: 2
Fore
SplineSet
7 0 m 1
 307 1425 l 1
 1150 1425 l 1
 884.373 176 l 1
 562.24 166 l 1
 526 0 l 1
 7 0 l 1
464 337 m 9
 552 337 l 18
 642 337 705 425 742 597 c 10
 900 1340 l 25
-91 60 m 25
 691 60 l 25
256 92 m 17
180 1340 m 25
 1232 1340 l 1
521 1341 m 1
 250 60 l 9
EndSplineSet
EndChar

StartChar: Tbar
Encoding: 358 358 430
Width: 1075
VWidth: 1947
Flags: W
VStem: -42 782<0 782> 268 782<676 1458>
DStem2: -107.255 -307 674.745 -307 0.207912 0.978148<476.445 1804.45>
LayerCount: 2
Fore
SplineSet
278 1458 m 1x40
 1182 1458 l 1x40
 878 0 l 1
 -26 0 l 1x80
 278 1458 l 1x40
383 -207 m 25
 702 1325 l 25
100 1325 m 25
 1293 1325 l 25
-27 560 m 25
 1056.03 560 l 25
EndSplineSet
EndChar

StartChar: tbar
Encoding: 359 359 431
Width: 1075
VWidth: 1947
Flags: W
HStem: 1405 20<277.746 931>
VStem: -39 831<-84 747> 282 649<776 1425>
LayerCount: 2
Fore
SplineSet
295 1425 m 1xa0
 1046 1425 l 1xa0
 902 737 l 1
 1003 737 l 1
 929.675 387 l 1
 1036.53 372 l 1
 941 -84 l 1
 -19 -84 l 1xc0
 295 1425 l 1xa0
7 933 m 25
 1082 933 l 25
791 215 m 17
 786 193 776 171 760 150 c 1
 713 87 627 50 548 50 c 10
 528 50 l 18
 437 50 353 105 350 182 c 0
 350 193 352 205 354 216 c 2
 625 1506 l 9
-27 560 m 25
 1056.03 560 l 25
EndSplineSet
EndChar

StartChar: A
Encoding: 65 65 461
Width: 1075
VWidth: 1708
Flags: W
HStem: 1405 20G<186.747 1113>
VStem: -112 922<0 922> 191 922<503 1425>
DStem2: -154.936 -202 767.064 -202 0.207912 0.978148<398.207 1663.37>
LayerCount: 2
Fore
SplineSet
-107 0 m 5xc0
 190 1425 l 5
 1256 1425 l 5xa0
 959 0 l 5
 -107 0 l 5xc0
231 324 m 29
 756 324 l 29
42 -88 m 29
 708 1355 l 29
 780 -102 l 29
EndSplineSet
EndChar

StartChar: Lambda
Encoding: 923 923 462
Width: 1075
VWidth: 1708
Flags: W
HStem: 1405 20G<186.747 1113>
VStem: -112 922<0 922> 191 922<503 1425>
DStem2: -173.429 -289 748.571 -289 0.207912 0.978148<487.151 1752.31>
LayerCount: 2
Fore
SplineSet
-107 0 m 5xc0
 190 1425 l 5
 1256 1425 l 5xa0
 959 0 l 5
 -107 0 l 5xc0
11 -150 m 29
 708 1355 l 29
 786 -189 l 29
EndSplineSet
EndChar

StartChar: Delta
Encoding: 916 916 463
Width: 1075
VWidth: 1708
Flags: W
HStem: 0 60<83 642> 1405 20G<186.747 1113>
VStem: -112 922<0 922> 191 922<503 1425>
LayerCount: 2
Fore
SplineSet
-107 0 m 5xe0
 190 1425 l 5
 1256 1425 l 5xd0
 959 0 l 5
 -107 0 l 5xe0
766 75 m 13
 708 1355 l 21
 120 75 l 5
 766 75 l 13
EndSplineSet
EndChar

StartChar: Theta
Encoding: 920 920 464
Width: 1075
VWidth: 1947
Flags: W
DStem2: 46.9647 -65 623.822 -65 0.207912 0.978148<477.914 1245.63>
LayerCount: 2
Fore
SplineSet
707 1350 m 7
 882 1350 941 1217 947 1052 c 7
 950 962 944 889 923 781 c 6
 894 645 l 6
 830 369 701 50 438 50 c 7
 263 50 204 185 198 349 c 7
 194 440 215 577 235 683 c 6
 255 779 l 6
 324 1086 437 1350 707 1350 c 7
477 699 m 21
 571 699 624 699 719 699 c 13
EndSplineSet
EndChar

StartChar: Xi
Encoding: 926 926 465
Width: 1075
VWidth: 1708
Flags: W
HStem: -135 471<-120 886> 1050 447<140 1116>
LayerCount: 2
Fore
SplineSet
69 1050 m 5
 129 1497 l 5
 1333 1497 l 5
 1273 1050 l 5
 69 1050 l 5
-153 -135 m 5
 -129 336 l 5
 1076 336 l 5
 1052 -135 l 5
 -153 -135 l 5
197 447 m 29
 121 75 l 29
 766 75 l 29
 842 447 l 29
409 700 m 29
 787 700 l 29
300 944 m 29
 379 1325 l 29
 1024 1325 l 29
 945 944 l 29
EndSplineSet
EndChar

StartChar: Sigma
Encoding: 931 931 468
Width: 1075
VWidth: 1947
Flags: W
HStem: 1405 20G<276.752 1025>
VStem: -27 744<-25 719> 281 744<681 1425>
DStem2: -48.2557 -125 695.744 -125 0.207912 0.978148<256.92 1584.58>
LayerCount: 2
Fore
SplineSet
294 1425 m 5xa0
 1154 1425 l 5xa0
 852 -25 l 5
 -8 -25 l 5xc0
 294 1425 l 5xa0
1109 50 m 5
 80 50 l 5
 580 734 l 5
 345 1325 l 5
 1374 1325 l 5
EndSplineSet
EndChar

StartChar: Psi
Encoding: 936 936 473
Width: 1075
VWidth: 1947
Flags: W
HStem: 1405 20G<507.12 790.683>
VStem: -117.102 1034.1<-24 1010.1>
LayerCount: 2
Fore
SplineSet
-112 -24 m 1
 174 1351 l 1
 537 1351 l 1
 564 1425 l 1
 883 1425 l 1
 882 1351 l 1
 1370 1351 l 1
 1083 -24 l 1
 -112 -24 l 1
1067 1400 m 25
 924 728 l 18
 902 627 792 512 666 512 c 10
 400 512 l 18
 299 512 233 613 230 694 c 0
 229 705 230 717 232 728 c 10
 376 1400 l 25
750 1554 m 25
 388 -165 l 25
EndSplineSet
EndChar

StartChar: Omega
Encoding: 937 937 474
Width: 1075
VWidth: 1947
Flags: W
VStem: 202 923<559 1482>
LayerCount: 2
Fore
SplineSet
-125 75 m 5
 276 75 l 4
 327 323 l 5
 221 430 221 622 263 817 c 6
 273 872 l 6
 324 1118 433 1350 700 1350 c 6
 714 1350 l 6
 983 1350 994 1117 943 873 c 6
 931 817 l 6
 891 623 808 415 660 323 c 5
 609 75 l 5
 1010 75 l 29
-12 -42 m 5
 51 253 l 5
 -45 303 l 5
 201 1482 l 5
 1268 1482 l 5
 1010 247 l 5
 903 226 l 5
 846 -42 l 5
 -12 -42 l 5
EndSplineSet
EndChar

StartChar: alpha
Encoding: 945 945 483
Width: 1075
VWidth: 1947
Flags: W
LayerCount: 2
Fore
SplineSet
963 1024 m 5
 610 191 l 6
 570 98 492 35 384 35 c 7
 269.165 35 221.629 158.177 221.629 309.105 c 4
 221.629 368.465 229.91 437.067 246 513 c 4
 303 780 426 988 586 988 c 7
 694 988 746 923 746 832 c 6
 748 0 l 21
EndSplineSet
EndChar

StartChar: beta
Encoding: 946 946 484
Width: 1075
VWidth: 2334
Flags: W
VStem: -179.594 924.474<-318 606.474> 141.856 924.474<280.526 1205>
DStem2: -234.008 -574 690.466 -574 0.207912 0.978148<453.928 1818.27>
LayerCount: 2
Fore
SplineSet
-173 -318 m 5x80
 142 1205 l 5
 1210 1205 l 5x40
 895 -318 l 5
 -173 -318 l 5x80
5 -474 m 29
 254 719 l 22
 291 898 410 974 618 974 c 14
 623 974 l 22
 805 974 896 921 900 826 c 4
 900 813 899 799 896 784 c 4
 872 669 743 549 535 549 c 6
 471 549 l 5
 573 549 l 6
 751 549 839 482 843 379 c 4
 844 362 842 344 838 325 c 14
 826 259 l 22
 797 124 678 50 471 50 c 14
 427 50 l 22
 249 50 157 101 153 204 c 4
 153 222 154 240 159 259 c 14
EndSplineSet
EndChar

StartChar: gamma
Encoding: 947 947 485
Width: 1075
VWidth: 2334
Flags: W
VStem: -194 922<-386 536> 106 922<102 1024>
DStem2: -245.439 -628 676.561 -628 0.207912 0.978148<439.101 1688.97>
LayerCount: 2
Fore
SplineSet
107 1024 m 5x40
 1173 1024 l 5x40
 878 -386 l 5
 -187 -386 l 5x80
 107 1024 l 5x40
316 -528 m 29
 445 76 l 29
301 1226 m 29
 438 49 l 29
 1063 1226 l 29
EndSplineSet
EndChar

StartChar: delta
Encoding: 948 948 486
Width: 1075
VWidth: 1947
Flags: W
HStem: -99 134<234.835 511.195>
VStem: -138 993<-99 894>
DStem2: -159.256 -199 27.9396 -199 0.207912 0.978148<566.196 1105.03> 585.94 -199 833.744 -199 0.207912 0.978148<386.794 977.626>
LayerCount: 2
Fore
SplineSet
228 597 m 10
 193 427 l 18
 184 386 181 348 182 313 c 0
 188 157 285 50 427 50 c 10
 448 50 l 18
 656 50 791 201 838 427 c 10
 873 597 l 18
 883 646 895 722 893 762 c 0
 888 906 802 974 639 974 c 10
 618 974 l 18
 410 974 275 821 228 597 c 10
335 1506 m 1
 1062 1506 l 1
 987 1136 l 1
 1263 1083 l 1
 1015 -99 l 1
 -133 -99 l 1
 104 1029 l 1
 240 1047 l 1
 335 1506 l 1
1139 1325 m 25
 381 1325 l 25
 821 917 l 25
EndSplineSet
EndChar

StartChar: epsilon
Encoding: 949 949 487
Width: 1075
VWidth: 2334
Flags: W
HStem: -38 410<574.307 801.924> 692 447<640.287 955.786>
LayerCount: 2
Fore
SplineSet
-117 -38 m 1
 129 1139 l 1
 1197 1139 l 1
 1102 683 l 1
 737 692 l 1
 673 372 l 1
 1033 360 l 1
 951 -38 l 1
 -117 -38 l 1
903 900 m 1
 873 950 787 974 662 974 c 10
 618 974 l 18
 414 974 296 903 265 773 c 2
 263 764 l 2
 260 750 259 736 260 723 c 3
 263 634 341 533 531 533 c 10
 869 533 l 25
 531 533 l 18
 313 533 187 402 169 317 c 10
 166 300 l 18
 162 279 154 226 155 207 c 3
 159 100 251 50 427 50 c 10
 471 50 l 18
 604 50 676 66 740 124 c 1
EndSplineSet
EndChar

StartChar: zeta
Encoding: 950 950 488
Width: 1075
VWidth: 2334
Flags: W
VStem: 183 832<557 1389>
LayerCount: 2
Fore
SplineSet
182 1389 m 1
 1144 1389 l 1
 962 512 l 1
 1066 512 l 1
 874 -411 l 1
 340 -411 l 1
 405 -96 l 1
 -123 -81 l 1
 182 1389 l 1
542 1049 m 17
 635 957 790 949 946 949 c 1
 879 889 799 854 721 806 c 2
 445 637 l 2
 323 563 201 467 178 357 c 10
 174 337 l 18
 167 305 159 244 160 218 c 0
 164 96 256 50 427 50 c 10
 448 50 l 18
 633 50 727 15 730 -70 c 0
 730 -78 730 -87 728 -96 c 2
 725 -114 l 2
 697 -247 591 -294 377 -294 c 9
 65 -294 l 25
EndSplineSet
EndChar

StartChar: eta
Encoding: 951 951 489
Width: 1075
VWidth: 2334
Flags: W
LayerCount: 2
Fore
SplineSet
-109 0 m 5
 107 1024 l 5
 466 1024 l 5
 518 1223 l 5
 1214 1223 l 5
 878 -387 l 5
 346 -387 l 5
 422 0 l 5
 -109 0 l 5
634 -549 m 25
 899 719 l 18
 905 751 908 779 907 805 c 0
 902 927 811 974 639 974 c 10
 618 974 l 18
 435 974 255 731 228 597 c 10
 210 513 l 25
359 1225 m 25
 65 -186 l 25
EndSplineSet
EndChar

StartChar: theta
Encoding: 952 952 490
Width: 1075
VWidth: 1947
Flags: W
LayerCount: 2
Fore
SplineSet
228 597 m 14
 193 427 l 22
 184 386 181 348 182 313 c 4
 188 157 285 50 427 50 c 14
 448 50 l 22
 656 50 791 201 838 427 c 14
 873 597 l 22
 883 646 895 722 893 762 c 4
 888 906 802 974 639 974 c 14
 618 974 l 22
 410 974 275 821 228 597 c 14
197 512 m 21
 305 512 759 512 869 512 c 13
EndSplineSet
EndChar

StartChar: lambda
Encoding: 955 955 491
Width: 1075
VWidth: 2334
Flags: W
VStem: -112 922<0 922> 188 922<488 1410>
DStem2: -167.69 -262 754.31 -262 0.207912 0.978148<459.548 1709.41>
LayerCount: 2
Fore
SplineSet
-107 0 m 5x80
 187 1410 l 5
 1253 1410 l 5x40
 959 0 l 5
 -107 0 l 5x80
538 1791 m 21
 629 975 l 13
15 -156 m 29
 629 975 l 29
 771 -162 l 29
EndSplineSet
EndChar

StartChar: xi
Encoding: 958 958 494
Width: 1075
VWidth: 2334
Flags: W
HStem: 1405 20G<186.749 931>
LayerCount: 2
Fore
SplineSet
190 1425 m 5
 1046 1425 l 5
 913 788 l 5
 800 773 l 5
 689 235 l 5
 1009 235 l 5
 874 -410 l 5
 340 -410 l 5
 403 -105 l 5
 -125 -90 l 5
 190 1425 l 5
474 1244 m 21
 556 1151 652 1083 811 1077 c 5
 602 956 326 1025 266 776 c 6
 263 764 l 6
 260 750 259 736 260 723 c 7
 263 634 341 533 531 533 c 14
 996 533 l 29
 531 533 l 22
 313 533 187 402 169 317 c 14
 166 300 l 22
 162 279 154 226 155 207 c 7
 159 100 251 50 427 50 c 14
 471 50 l 22
 548 50 728 -0 731 -76 c 4
 731 -80 729 -105 728 -109 c 14
 721 -141 l 22
 701 -241 524 -294 396 -294 c 13
 82 -294 l 29
EndSplineSet
EndChar

StartChar: pi
Encoding: 960 960 496
Width: 1075
VWidth: 2334
Flags: W
VStem: -22 742<0 742> 268 742<623 1365>
DStem2: -73.4387 -242 668.561 -242 0.207912 0.978148<401.677 1642.87>
LayerCount: 2
Fore
SplineSet
278 1350 m 5x40
 1136 1350 l 5x40
 855 0 l 5
 -3 0 l 5x80
 278 1350 l 5x40
81 844 m 21
 164 910 259 949 428 949 c 6
 819 949 l 6
 992 949 1098 988 1169 1062 c 13
842 949 m 29
 681 168 l 22
 671 122 675 116 677 79 c 4
 680 -14 711 -97 768 -142 c 13
26 -142 m 21
 124 -80 221 64 244 168 c 14
 405 949 l 29
EndSplineSet
EndChar

StartChar: rho
Encoding: 961 961 497
Width: 1075
VWidth: 2334
Flags: W
HStem: -384 419<208.347 511.195> 989 381<404.805 695.438>
VStem: -193.622 926.023<-384 542.023> 178.378 926.022<443.978 1370>
DStem2: -252.5 -661 -70.2615 -661 0.207912 0.978148<985.696 1577.16> 487.738 -661 673.523 -661 0.207912 0.978148<859.955 1430.84>
LayerCount: 2
Fore
SplineSet
-187 -384 m 5xe0
 174 1355 l 5
 1245 1355 l 5xd0
 883 -384 l 5
 -187 -384 l 5xe0
-13 -561 m 29
 210 514 l 29
838 427 m 14
 873 597 l 22
 882 638 892 708 891 743 c 7
 885 900 781 974 639 974 c 14
 618 974 l 22
 410 974 275 823 228 597 c 14
 193 427 l 22
 183 379 172 302 174 262 c 7
 179 119 264 50 427 50 c 14
 448 50 l 22
 656 50 791 203 838 427 c 14
EndSplineSet
EndChar

StartChar: sigmafinal
Encoding: 962 962 498
Width: 1075
VWidth: 2334
Flags: W
VStem: 156.649 913.501<309.499 1223>
DStem2: -215.515 -487 706.484 -487 0.207912 0.978148<535.092 1750.01>
LayerCount: 2
Fore
SplineSet
-119 -57 m 1
 158 1223 l 1
 1214 1223 l 1
 878 -387 l 1
 346 -387 l 1
 412 -57 l 1
 -119 -57 l 1
989 919 m 9
 945 934 l 18
 866 962 789 974 717 974 c 0
 467 974 271 806 228 597 c 10
 193 427 l 18
 184 386 181 348 182 313 c 0
 188 157 285 50 427 50 c 10
 448 50 l 18
 593 50 728 10 731 -72 c 0
 731 -79 730 -86 729 -93 c 2
 725 -111 l 2
 701 -227 581 -294 385 -294 c 9
 72 -294 l 25
EndSplineSet
EndChar

StartChar: sigma
Encoding: 963 963 499
Width: 1075
VWidth: 1947
Flags: W
HStem: -84 119<234.835 511.195> 989 195<404.805 708.106>
VStem: -129.855 921.855<-84 837.855>
DStem2: -151.111 -184 31.1279 -184 0.207912 0.978148<549.831 1088.66> 589.128 -184 771.141 -184 0.207912 0.978148<371.458 962.291>
LayerCount: 2
Fore
SplineSet
-124 -84 m 5
 140 1184 l 5
 1137 1184 l 5
 1067 851 l 5
 1132 827 l 5
 941 -84 l 5
 -124 -84 l 5
228 597 m 14
 193 427 l 22
 184 386 181 348 182 313 c 4
 188 157 285 50 427 50 c 14
 448 50 l 22
 656 50 791 201 838 427 c 14
 873 597 l 22
 883 646 895 722 893 762 c 4
 888 906 802 974 639 974 c 14
 618 974 l 22
 410 974 275 821 228 597 c 14
1242 918 m 29
 754 917 l 29
EndSplineSet
EndChar

StartChar: tau
Encoding: 964 964 500
Width: 1075
VWidth: 2334
Flags: W
VStem: -22 742<0 742> 268 742<623 1365>
DStem2: -73.4387 -242 668.561 -242 0.207912 0.978148<401.677 1642.87>
LayerCount: 2
Fore
SplineSet
278 1350 m 1x40
 1136 1350 l 1x40
 855 0 l 1
 -3 0 l 1x80
 278 1350 l 1x40
81 844 m 17
 164 910 259 949 428 949 c 2
 819 949 l 2
 992 949 1098 988 1169 1062 c 9
198 -142 m 17
 309 -88 433 30 463 168 c 2
 623 949 l 9
EndSplineSet
EndChar

StartChar: upsilon
Encoding: 965 965 501
Width: 1075
VWidth: 1947
Flags: W
VStem: -135.594 918.594<-111 807.594>
LayerCount: 2
Fore
SplineSet
-130 -111 m 1
 106 1024 l 1
 472 1024 l 1
 438 862 l 1
 687 862 l 1
 728 1063 l 1
 1178 1063 l 1
 932 -111 l 1
 -130 -111 l 1
356 1211 m 1
 210 513 l 0
 201 469 187 369 189 309 c 0
 194 159 263 50 438 50 c 3
 680 50 811 244 867 513 c 0
 887 609 906 725 903 793 c 0
 899 916 844 973 709 973 c 11
 573 974 l 25
EndSplineSet
EndChar

StartChar: phi
Encoding: 966 966 502
Width: 1075
VWidth: 1947
Flags: W
VStem: -194.26 939<-387 552>
LayerCount: 2
Fore
SplineSet
-188 -387 m 5
 96 974 l 5
 462 974 l 5
 478 1047 l 5
 1194 1047 l 5
 898 -387 l 5
 -188 -387 l 5
308 -567 m 1
 579 734 l 2
 613 899 702 973 795 973 c 3
 891 973 941 912 946 784 c 0
 947 738 941 652 928 594 c 2
 893 435 l 2
 842 206 656 50 438 50 c 3
 245 50 145 179 138 358 c 0
 136 406 141 458 153 513 c 2
 275 1098 l 1
EndSplineSet
EndChar

StartChar: chi
Encoding: 967 967 503
Width: 1075
VWidth: 2062
Flags: W
VStem: -194 922<-387 535> 105 922<101 1023>
DStem2: -279.66 -790 642.34 -790 0.207912 0.978148<603.698 1853.36>
LayerCount: 2
Fore
SplineSet
106 1023 m 5x40
 1172 1023 l 5x40
 879 -387 l 5
 -187 -387 l 5x80
 106 1023 l 5x40
1132 1328 m 29
 -147 -690 l 21
59 1229 m 4
 257 945 l 6
 339 837 399 709 437 552 c 6
 551 111 l 6
 589 -45 637 -202 714 -309 c 6
 883 -543 l 12
EndSplineSet
EndChar

StartChar: psi
Encoding: 968 968 504
Width: 1075
VWidth: 1947
Flags: W
VStem: -194 939<-387 552>
LayerCount: 2
Fore
SplineSet
-187 -387 m 5
 95 974 l 5
 462 974 l 5
 478 1047 l 5
 862 1047 l 5
 847 974 l 5
 1179 974 l 5
 898 -387 l 5
 -187 -387 l 5
320 -510 m 5
 687 1253 l 21
1052 1181 m 4
 913 513 l 6
 864 276 680 50 438 50 c 7
 246 50 144 178 138 358 c 7
 136 405 141 457 153 513 c 6
 292 1184 l 5
EndSplineSet
EndChar

StartChar: omega
Encoding: 969 969 505
Width: 1075
VWidth: 2334
Flags: W
VStem: -136 922<-114 808> 106 922<102 1024>
LayerCount: 2
Fore
SplineSet
-130 -114 m 5x80
 107 1024 l 5
 1173 1024 l 5x40
 935 -114 l 5
 -130 -114 l 5x80
415 1128 m 4
 303 951 l 6
 263 891 225 807 210 734 c 14
 127 336 l 22
 122 313 113 245 114 216 c 7
 117 118 164 50 238 50 c 14
 249 50 l 22
 362 50 445 84 472 215 c 14
 579 732 l 29
 472 215 l 22
 468 195 466 176 467 159 c 7
 470 70 542 50 621 50 c 14
 633 50 l 22
 746 50 837 203 865 337 c 14
 948 734 l 22
 957 779 962 830 960 880 c 7
 959 912 951 929 943 957 c 6
 911 1104 l 4
EndSplineSet
EndChar

StartChar: dieresiscmb
Encoding: 776 776 508
Width: 1075
VWidth: 1947
Flags: W
HStem: 1285 198<373.719 531.283 750.928 907.598>
VStem: 356 193<1302.19 1466.9> 734 191<1302.46 1467.07>
LayerCount: 2
Fore
SplineSet
626 1386 m 0
 626 1332 583 1285 530 1285 c 0
 478 1285 433 1330 433 1386 c 0
 433 1446 481 1483 529 1483 c 0
 584 1483 626 1438 626 1386 c 0
1002 1386 m 0
 1002 1327 955 1285 907 1285 c 0
 856 1285 811 1331 811 1386 c 0
 811 1442 856 1483 907 1483 c 0
 954 1483 1002 1446 1002 1386 c 0
EndSplineSet
EndChar

StartChar: Djecyrillic
Encoding: 1026 1026 512
Width: 1075
VWidth: 2334
Flags: W
DStem2: -95.7768 -253 756.222 -253 0.207912 0.978148<360.945 1609.1>
LayerCount: 2
Fore
SplineSet
-26 0 m 1
 278 1446 l 1
 1053 1446 l 1
 999 1184 l 1
 1205 1178 l 1
 934 -120 l 1
 520 -120 l 1
 543 0 l 1
 -26 0 l 1
360 239 m 25
 399 425 l 18
 462 731 667 904 755 904 c 10
 775 904 l 18
 870 904 936 877 940 786 c 0
 940 766 938 744 933 719 c 2
 853 336 l 2
 830 226 766 75 633 75 c 10
 612 75 l 25
587 1325 m 25
 278 -153 l 25
40 1325 m 25
 1200 1325 l 25
EndSplineSet
EndChar

StartChar: Ljecyrillic
Encoding: 1033 1033 513
Width: 1075
VWidth: 1947
Flags: W
HStem: 1405 20G<186.747 1113>
VStem: 191 922<503 1425>
DStem2: -160.038 -226 762.218 -226 0.207912 0.978148<320.563 1687.91>
LayerCount: 2
Fore
SplineSet
190 1425 m 1
 1256 1425 l 1
 938 -100 l 1
 215 -100 l 1
 235 0 l 1
 -107 0 l 1
 190 1425 l 1
2 -126 m 25
 373 1075 l 18
 406 1183 505 1325 554 1325 c 10
 715 1325 l 1
 456 75 l 1
 535 75 l 2
 753 75 863 158 900 337 c 2
 932 495 l 2
 939 528 942 557 941 583 c 7
 937 705 855 797 684 797 c 2
 606 797 l 25
EndSplineSet
EndChar

StartChar: Njecyrillic
Encoding: 1034 1034 514
Width: 1075
VWidth: 1947
Flags: W
VStem: 186 922<478 1400>
DStem2: -172.791 -286 749.464 -286 0.207912 0.978148<381.903 1723.75>
LayerCount: 2
Fore
SplineSet
185 1400 m 1
 1251 1400 l 1
 938 -100 l 1
 215 -100 l 1
 235 0 l 1
 -107 0 l 1
 185 1400 l 1
367 1542 m 25
 2 -186 l 25
213 797 m 25
 684 797 l 2
 855 797 937 705 941 583 c 7
 942 557 939 528 932 495 c 2
 900 337 l 2
 863 158 753 75 535 75 c 2
 456 75 l 1
 759 1542 l 1
EndSplineSet
EndChar

StartChar: Tshecyrillic
Encoding: 1035 1035 515
Width: 1075
VWidth: 1947
Flags: W
VStem: -40 848.086<0 848.086>
DStem2: -98.8782 -277 749.208 -277 0.207912 0.978148<459.515 1633.63>
LayerCount: 2
Fore
SplineSet
280 1446 m 1
 1057 1446 l 1
 1001 1184 l 1
 1206 1184 l 1
 957 0 l 1
 -24 0 l 1
 280 1446 l 1
747 -177 m 25
 933 719 l 18
 938 744 940 766 940 786 c 3
 936 877 870 904 775 904 c 10
 755 904 l 18
 667 904 468 755 399 417 c 10
 361 231 l 25
587 1325 m 25
 275 -177 l 25
77 1325 m 17
 1165 1325 l 9
EndSplineSet
EndChar

StartChar: Dzhecyrillic
Encoding: 1039 1039 516
Width: 1075
VWidth: 2334
Flags: W
VStem: -193.622 916.622<-384 532.622> 186.378 919.622<481.378 1401>
DStem2: -243.573 -619 673.049 -619 0.207912 0.978148<430.826 2065.25>
LayerCount: 2
Fore
SplineSet
-187 -384 m 5x80
 186 1401 l 5
 1249 1401 l 5x40
 873 -384 l 5
 -187 -384 l 5x80
444 75 m 25
 318 -519 l 25
423 1533 m 25
 121 75 l 25
 766 75 l 17
 1068 1533 l 9
EndSplineSet
EndChar

StartChar: djecyrillic
Encoding: 1106 1106 517
Width: 1075
VWidth: 2334
Flags: W
HStem: -410 269.25<-141.918 180> 1406 20G<216.76 794>
LayerCount: 2
Fore
SplineSet
-194 -410 m 1
 -136 -140 l 1
 236 -144 l 1
 298 0 l 1
 -71 0 l 1
 225 1426 l 1
 887 1426 l 1
 800 1001 l 1
 1297 1001 l 1
 1005 -410 l 1
 -194 -410 l 1
-91 1185 m 25
 955 1185 l 25
228 -228 m 1
 258 -271 316 -294 381 -294 c 10
 440 -294 l 18
 595 -294 713 -170 743 -28 c 10
 864 553 l 18
 874 601 886 673 885 708 c 7
 881 806 826 855 673 855 c 10
 652 855 l 18
 469 855 286 597 257 463 c 10
 241 379 l 25
500 1620 m 25
 144 -84 l 25
EndSplineSet
EndChar

StartChar: dzhecyrillic
Encoding: 1119 1119 519
Width: 1075
VWidth: 1947
Flags: W
VStem: -194.261 922<-387 535> 105 922<102 1024>
DStem2: -235.284 -580 686.716 -580 0.207912 0.978148<389.006 1639.7>
LayerCount: 2
Fore
SplineSet
106 1024 m 5x40
 1172 1024 l 5x40
 878 -387 l 5
 -188 -387 l 5x80
 106 1024 l 5x40
326 -480 m 25
 443 76 l 25
355 1205 m 25
 121 76 l 25
 766 76 l 25
 999 1205 l 25
EndSplineSet
EndChar

StartChar: ljecyrillic
Encoding: 1113 1113 520
Width: 1075
VWidth: 1947
Flags: W
VStem: -112 922<0 922> 111 922<126 1048>
LayerCount: 2
Fore
SplineSet
112 1048 m 1x40
 1178 1048 l 1x40
 959 0 l 1
 -107 0 l 1x80
 112 1048 l 1x40
15 -99 m 16
 212 615 l 2
 253 763 315 900 466 948 c 9
 626 948 l 25
 445 75 l 25
 604 75 l 18
 714 75 821 124 850 259 c 2
 865 337 l 18
 868 351 871 378 871 397 c 3
 867 497 796 561 703 561 c 10
 544 561 l 25
EndSplineSet
EndChar

StartChar: njecyrillic
Encoding: 1114 1114 521
Width: 1075
VWidth: 1947
Flags: W
VStem: -112 922<0 922> 105 922<102 1024>
LayerCount: 2
Fore
SplineSet
106 1024 m 1x40
 1172 1024 l 1x40
 959 0 l 1
 -107 0 l 1x80
 106 1024 l 1x40
298 1160 m 25
 28 -153 l 25
668 1160 m 25
 445 75 l 25
 604 75 l 18
 714 75 821 124 850 259 c 2
 865 337 l 18
 868 351 871 378 871 397 c 3
 867 497 796 561 703 561 c 10
 544 561 l 25
 174 561 l 25
EndSplineSet
EndChar

StartChar: apostrophereverse
Encoding: 8219 8219 523
Width: 1075
VWidth: 1708
Flags: HW
LayerCount: 2
Fore
SplineSet
602.003 1347 m 17
 576.003 1218 554.003 1032 774.003 959 c 9
 800.003 1010 l 17
 738.003 1049 619.003 1172 738.003 1238 c 9
 602.003 1347 l 17
600.003 1327 m 0
 600.003 1275 640.003 1230 698.003 1230 c 0
 754.003 1230 795.003 1275 795.003 1327 c 0
 795.003 1378 756.003 1424 698.003 1424 c 0
 641.003 1424 600.003 1379 600.003 1327 c 0
EndSplineSet
EndChar

StartChar: arrowleft
Encoding: 8592 8592 526
Width: 1075
VWidth: 1708
Flags: W
VStem: 50 872<-99 1224>
LayerCount: 2
Fore
SplineSet
999 -99 m 5
 127 -99 l 5
 127 1224 l 5
 999 1224 l 5
 999 -99 l 5
538 960 m 29
 167 600 l 29
 538 240 l 29
167 600 m 29
 949 600 l 29
EndSplineSet
EndChar

StartChar: arrowright
Encoding: 8594 8594 527
Width: 1075
VWidth: 1708
Flags: W
VStem: 0 872<-99 1224>
LayerCount: 2
Fore
SplineSet
77 -99 m 1
 77 1224 l 1
 949 1224 l 1
 949 -99 l 1
 77 -99 l 1
538 960 m 25
 909 600 l 25
 538 240 l 25
909 600 m 25
 127 600 l 25
EndSplineSet
EndChar

StartChar: lthorizform
Encoding: 9472 9472 528
Width: 1075
Flags: W
LayerCount: 2
Fore
SplineSet
1075 523 m 1
 -0 523 l 1
EndSplineSet
EndChar

StartChar: ltvertform
Encoding: 9474 9474 529
Width: 1075
Flags: W
LayerCount: 2
Fore
SplineSet
538 1775 m 1
 538 -615 l 1
EndSplineSet
EndChar

StartChar: rightanglenw
Encoding: 9484 9484 530
Width: 1075
Flags: W
LayerCount: 2
Fore
SplineSet
538 -615 m 1
 538 523 l 1
 1075 523 l 1
EndSplineSet
EndChar

StartChar: rightanglene
Encoding: 9488 9488 531
Width: 1075
Flags: W
LayerCount: 2
Fore
SplineSet
538 -615 m 1
 538 523 l 1
 -0 523 l 1
EndSplineSet
EndChar

StartChar: rightanglesw
Encoding: 9492 9492 532
Width: 1075
Flags: W
LayerCount: 2
Fore
SplineSet
538 1775 m 5
 538 523 l 1
 1075 523 l 1
EndSplineSet
EndChar

StartChar: rightanglese
Encoding: 9496 9496 533
Width: 1075
Flags: W
LayerCount: 2
Fore
SplineSet
538 1775 m 5
 538 523 l 1
 -0 523 l 1
EndSplineSet
EndChar

StartChar: ltvertrightform
Encoding: 9500 9500 534
Width: 1075
Flags: W
LayerCount: 2
Fore
SplineSet
538 1775 m 5
 538 -615 l 1
1075 523 m 1
 538 523 l 1
EndSplineSet
EndChar

StartChar: ltvertleftform
Encoding: 9508 9508 535
Width: 1075
Flags: W
LayerCount: 2
Fore
SplineSet
538 1775 m 5
 538 -615 l 1
538 523 m 1
 -0 523 l 1
EndSplineSet
EndChar

StartChar: ltdnhorizform
Encoding: 9516 9516 536
Width: 1075
Flags: W
LayerCount: 2
Fore
SplineSet
538 523 m 1
 538 -615 l 1
1075 523 m 1
 -0 523 l 1
EndSplineSet
EndChar

StartChar: ltuphorizform
Encoding: 9524 9524 537
Width: 1075
Flags: W
LayerCount: 2
Fore
SplineSet
538 1775 m 5
 538 523 l 1
1075 523 m 1
 -0 523 l 1
EndSplineSet
EndChar

StartChar: ltverthorizform
Encoding: 9532 9532 538
Width: 1075
Flags: W
LayerCount: 2
Fore
SplineSet
538 1775 m 5
 538 -615 l 1
1075 523 m 1
 -0 523 l 1
EndSplineSet
EndChar

StartChar: horizdblbar
Encoding: 9552 9552 539
Width: 1075
Flags: W
LayerCount: 2
Fore
SplineSet
1075 363 m 1
 0 363 l 1
1075 683 m 1
 0 683 l 1
EndSplineSet
EndChar

StartChar: vertdblbar
Encoding: 9553 9553 540
Width: 1075
Flags: W
LayerCount: 2
Fore
SplineSet
378 1775 m 5
 378 -615 l 1
698 1775 m 5
 698 -615 l 1
EndSplineSet
EndChar

StartChar: dnrtdblform
Encoding: 9554 9554 541
Width: 1075
Flags: W
LayerCount: 2
Fore
SplineSet
1075 363 m 1
 538 363 l 1
1075 683 m 1
 538 683 l 1
 538 -615 l 1
EndSplineSet
EndChar

StartChar: dndblrtform
Encoding: 9555 9555 542
Width: 1075
Flags: W
LayerCount: 2
Fore
SplineSet
378 -615 m 1
 378 523 l 1
 1075 523 l 1
698 523 m 1
 698 -615 l 1
EndSplineSet
EndChar

StartChar: dbldnrtform
Encoding: 9556 9556 543
Width: 1075
Flags: W
LayerCount: 2
Fore
SplineSet
1075 363 m 1
 698 363 l 1
 698 -615 l 1
1075 683 m 1
 378 683 l 1
 378 -615 l 1
EndSplineSet
EndChar

StartChar: dnleftdblform
Encoding: 9557 9557 544
Width: 1075
Flags: W
LayerCount: 2
Fore
SplineSet
538 363 m 1
 0 363 l 1
0 683 m 1
 538 683 l 1
 538 -615 l 1
EndSplineSet
EndChar

StartChar: dndblleftform
Encoding: 9558 9558 545
Width: 1075
Flags: W
LayerCount: 2
Fore
SplineSet
378 523 m 1
 378 -615 l 1
698 -615 m 1
 698 523 l 1
 -0 523 l 1
EndSplineSet
EndChar

StartChar: dbldnleftform
Encoding: 9559 9559 546
Width: 1075
Flags: W
LayerCount: 2
Fore
SplineSet
0 363 m 1
 378 363 l 1
 378 -615 l 1
0 683 m 1
 698 683 l 1
 698 -615 l 1
EndSplineSet
EndChar

StartChar: uprtdblform
Encoding: 9560 9560 547
Width: 1075
Flags: W
LayerCount: 2
Fore
SplineSet
1075 363 m 1
 538 363 l 1
 538 1775 l 5
1075 683 m 1
 538 683 l 1
EndSplineSet
EndChar

StartChar: updblrtform
Encoding: 9561 9561 548
Width: 1075
Flags: W
LayerCount: 2
Fore
SplineSet
378 1775 m 5
 378 523 l 1
 1075 523 l 1
698 1775 m 5
 698 523 l 1
EndSplineSet
EndChar

StartChar: dbluprtform
Encoding: 9562 9562 549
Width: 1075
Flags: W
LayerCount: 2
Fore
SplineSet
1075 363 m 1
 378 363 l 1
 378 1775 l 5
1075 683 m 1
 698 683 l 1
 698 1775 l 5
EndSplineSet
EndChar

StartChar: upleftdblform
Encoding: 9563 9563 550
Width: 1075
Flags: W
LayerCount: 2
Fore
SplineSet
0 363 m 1
 538 363 l 1
 538 1775 l 5
538 683 m 1
 0 683 l 1
EndSplineSet
EndChar

StartChar: updblleftform
Encoding: 9564 9564 551
Width: 1075
Flags: W
LayerCount: 2
Fore
SplineSet
378 1775 m 5
 378 523 l 1
698 1775 m 5
 698 523 l 1
 -0 523 l 1
EndSplineSet
EndChar

StartChar: dblupleftform
Encoding: 9565 9565 552
Width: 1075
Flags: W
LayerCount: 2
Fore
SplineSet
0 363 m 1
 698 363 l 1
 698 1775 l 5
0 683 m 1
 378 683 l 1
 378 1775 l 5
EndSplineSet
EndChar

StartChar: vertrtdblform
Encoding: 9566 9566 553
Width: 1075
Flags: W
LayerCount: 2
Fore
SplineSet
1075 363 m 1
 538 363 l 1
1075 683 m 1
 538 683 l 1
538 1775 m 5
 538 -615 l 1
EndSplineSet
EndChar

StartChar: vertdblrtform
Encoding: 9567 9567 554
Width: 1075
Flags: W
LayerCount: 2
Fore
SplineSet
378 1775 m 1
 378 -615 l 1
698 1775 m 1
 698 -615 l 1
1075 523 m 1
 698 523 l 1
EndSplineSet
EndChar

StartChar: dblvertrtform
Encoding: 9568 9568 555
Width: 1075
Flags: W
LayerCount: 2
Fore
SplineSet
1075 363 m 1
 698 363 l 1
 698 -615 l 1
1075 683 m 1
 698 683 l 1
 698 1775 l 5
378 1775 m 5
 378 -615 l 1
EndSplineSet
EndChar

StartChar: vertleftdblform
Encoding: 9569 9569 556
Width: 1075
Flags: W
LayerCount: 2
Fore
SplineSet
538 363 m 1
 0 363 l 1
538 683 m 1
 0 683 l 1
538 1775 m 5
 538 -615 l 1
EndSplineSet
EndChar

StartChar: vertdblleftform
Encoding: 9570 9570 557
Width: 1075
Flags: W
LayerCount: 2
Fore
SplineSet
378 1775 m 5
 378 -615 l 1
698 1775 m 5
 698 -615 l 1
378 523 m 1
 -0 523 l 1
EndSplineSet
EndChar

StartChar: dblvertleftform
Encoding: 9571 9571 558
Width: 1075
Flags: W
LayerCount: 2
Fore
SplineSet
0 363 m 1
 378 363 l 1
 378 -615 l 1
0 683 m 1
 378 683 l 1
 378 1775 l 5
698 1775 m 5
 698 -615 l 1
EndSplineSet
EndChar

StartChar: dnhorizdblform
Encoding: 9572 9572 559
Width: 1075
Flags: W
LayerCount: 2
Fore
SplineSet
1075 363 m 1
 0 363 l 1
1075 683 m 1
 0 683 l 1
538 363 m 1
 538 -615 l 1
EndSplineSet
EndChar

StartChar: dndblhorizform
Encoding: 9573 9573 560
Width: 1075
Flags: W
LayerCount: 2
Fore
SplineSet
378 523 m 1
 378 -615 l 1
698 523 m 1
 698 -615 l 1
1075 523 m 1
 0 523 l 1
EndSplineSet
EndChar

StartChar: dbldnhorizform
Encoding: 9574 9574 561
Width: 1075
Flags: W
LayerCount: 2
Fore
SplineSet
1075 363 m 1
 698 363 l 1
 698 -615 l 1
0 363 m 1
 378 363 l 1
 378 -615 l 1
1075 683 m 1
 0 683 l 1
EndSplineSet
EndChar

StartChar: uphorizdblform
Encoding: 9575 9575 562
Width: 1075
Flags: W
LayerCount: 2
Fore
SplineSet
1075 363 m 1
 0 363 l 1
1075 683 m 1
 0 683 l 1
538 1775 m 5
 538 683 l 1
EndSplineSet
EndChar

StartChar: updblhorizform
Encoding: 9576 9576 563
Width: 1075
Flags: W
LayerCount: 2
Fore
SplineSet
378 1775 m 5
 378 523 l 1
698 1775 m 5
 698 523 l 1
1075 523 m 1
 -0 523 l 1
EndSplineSet
EndChar

StartChar: dbluphorizform
Encoding: 9577 9577 564
Width: 1075
Flags: W
LayerCount: 2
Fore
SplineSet
1075 363 m 1
 0 363 l 1
1075 683 m 1
 698 683 l 1
 698 1775 l 5
0 683 m 1
 378 683 l 1
 378 1775 l 5
EndSplineSet
EndChar

StartChar: verthorizdblform
Encoding: 9578 9578 565
Width: 1075
Flags: W
LayerCount: 2
Fore
SplineSet
1075 363 m 1
 0 363 l 1
1075 715 m 1
 0 715 l 1
538 1775 m 1
 538 715 l 1
538 363 m 1
 538 -615 l 1
EndSplineSet
EndChar

StartChar: vertdblhorizform
Encoding: 9579 9579 566
Width: 1075
Flags: W
LayerCount: 2
Fore
SplineSet
378 1775 m 1
 378 -615 l 1
698 1775 m 1
 698 -615 l 1
1075 523 m 1
 698 523 l 1
378 523 m 1
 -0 523 l 1
EndSplineSet
EndChar

StartChar: dblverthorizform
Encoding: 9580 9580 567
Width: 1075
Flags: W
LayerCount: 2
Fore
SplineSet
1075 363 m 1
 698 363 l 1
 698 -615 l 1
0 363 m 1
 378 363 l 1
 378 -615 l 1
1075 683 m 1
 698 683 l 1
 698 1775 l 5
0 683 m 1
 378 683 l 1
 378 1775 l 5
EndSplineSet
EndChar

StartChar: upblock
Encoding: 9600 9600 568
Width: 1075
Flags: W
VStem: -0 922<523 1775>
LayerCount: 2
Fore
SplineSet
1075 523 m 1
 -0 523 l 1
 0 1775 l 5
 1075 1775 l 5
 1075 523 l 1
EndSplineSet
EndChar

StartChar: dnblock
Encoding: 9604 9604 569
Width: 1075
Flags: W
HStem: -615 1138<0 922>
VStem: -0 922<-615 523>
LayerCount: 2
Fore
SplineSet
1075 -615 m 1
 -0 -615 l 1
 -0 523 l 1
 1075 523 l 1
 1075 -615 l 1
EndSplineSet
EndChar

StartChar: block
Encoding: 9608 9608 570
Width: 1075
Flags: W
VStem: -0 922<-615 1775>
LayerCount: 2
Fore
SplineSet
-0 -615 m 1
 0 1775 l 5
 1075 1775 l 5
 1075 -615 l 1
 -0 -615 l 1
EndSplineSet
EndChar

StartChar: lfblock
Encoding: 9612 9612 571
Width: 1075
Flags: W
VStem: -0 461<-615 1775>
LayerCount: 2
Fore
SplineSet
-0 -615 m 1
 0 1775 l 5
 538 1775 l 5
 538 -615 l 1
 -0 -615 l 1
EndSplineSet
EndChar

StartChar: rtblock
Encoding: 9616 9616 572
Width: 1075
Flags: W
VStem: 461 461<-615 1775>
LayerCount: 2
Fore
SplineSet
538 -615 m 1
 538 1775 l 5
 1075 1775 l 5
 1075 -615 l 1
 538 -615 l 1
EndSplineSet
EndChar

StartChar: shadelight
Encoding: 9617 9617 573
Width: 1075
Flags: W
HStem: -514 100<153 230 461 540 769 846> -315 100<0 77 307 385 616 693> -115 99<153 230 461 540 769 846> 83 100<0 77 307 385 616 693> 283 99<153 230 461 540 769 846> 482 99<0 77 307 385 616 693> 681 100<153 230 461 540 769 846> 881 99<0 77 307 385 616 693> 1080 99<153 230 461 540 769 846> 1278 100<0 77 307 385 616 693> 1477 100<153 230 461 540 769 846> 1677 98<0 77 307 385 616 693>
VStem: 0 77<-315 -215 83 183 482 581 881 980 1278 1378 1677 1775> 153 77<-514 -414 -115 -16 283 382 681 781 1080 1179 1477 1577> 307 78<-315 -215 83 183 482 581 881 980 1278 1378 1677 1775> 461 79<-514 -414 -115 -16 283 382 681 781 1080 1179 1477 1577> 616 77<-315 -215 83 183 482 581 881 980 1278 1378 1677 1775> 769 77<-514 -414 -115 -16 283 382 681 781 1080 1179 1477 1577>
LayerCount: 2
Fore
SplineSet
0 1378 m 1
 90 1378 l 1
 90 1278 l 1
 0 1278 l 1
 0 1378 l 1
358 1378 m 1
 449 1378 l 1
 449 1278 l 1
 358 1278 l 1
 358 1378 l 1
719 1378 m 1
 808 1378 l 1
 808 1278 l 1
 719 1278 l 1
 719 1378 l 1
179 1179 m 1
 269 1179 l 1
 269 1080 l 1
 179 1080 l 1
 179 1179 l 1
538 1179 m 1
 630 1179 l 1
 630 1080 l 1
 538 1080 l 1
 538 1179 l 1
897 1179 m 1
 987 1179 l 1
 987 1080 l 1
 897 1080 l 1
 897 1179 l 1
719 980 m 1
 808 980 l 1
 808 881 l 1
 719 881 l 1
 719 980 l 1
358 980 m 1
 449 980 l 1
 449 881 l 1
 358 881 l 1
 358 980 l 1
0 980 m 1
 90 980 l 1
 90 881 l 1
 0 881 l 1
 0 980 l 1
897 781 m 1
 987 781 l 1
 987 681 l 1
 897 681 l 1
 897 781 l 1
538 781 m 1
 630 781 l 1
 630 681 l 1
 538 681 l 1
 538 781 l 1
179 781 m 1
 269 781 l 1
 269 681 l 1
 179 681 l 1
 179 781 l 1
0 581 m 1
 90 581 l 1
 90 482 l 1
 0 482 l 1
 0 581 l 1
358 581 m 1
 449 581 l 1
 449 482 l 1
 358 482 l 1
 358 581 l 1
719 581 m 1
 808 581 l 1
 808 482 l 1
 719 482 l 1
 719 581 l 1
897 382 m 1
 987 382 l 1
 987 283 l 1
 897 283 l 1
 897 382 l 1
538 382 m 1
 630 382 l 1
 630 283 l 1
 538 283 l 1
 538 382 l 1
179 382 m 1
 269 382 l 1
 269 283 l 1
 179 283 l 1
 179 382 l 1
0 183 m 1
 90 183 l 1
 90 83 l 1
 0 83 l 1
 0 183 l 1
358 183 m 1
 449 183 l 1
 449 83 l 1
 358 83 l 1
 358 183 l 1
719 183 m 1
 808 183 l 1
 808 83 l 1
 719 83 l 1
 719 183 l 1
179 -16 m 1
 269 -16 l 1
 269 -115 l 1
 179 -115 l 1
 179 -16 l 1
538 -16 m 1
 630 -16 l 1
 630 -115 l 1
 538 -115 l 1
 538 -16 l 1
897 -16 m 1
 987 -16 l 1
 987 -115 l 1
 897 -115 l 1
 897 -16 l 1
719 -215 m 1
 808 -215 l 1
 808 -315 l 1
 719 -315 l 1
 719 -215 l 1
358 -215 m 1
 449 -215 l 1
 449 -315 l 1
 358 -315 l 1
 358 -215 l 1
0 -215 m 1
 90 -215 l 1
 90 -315 l 1
 0 -315 l 1
 0 -215 l 1
179 -414 m 1
 269 -414 l 1
 269 -514 l 1
 179 -514 l 1
 179 -414 l 1
538 -414 m 1
 630 -414 l 1
 630 -514 l 1
 538 -514 l 1
 538 -414 l 1
897 -414 m 1
 987 -414 l 1
 987 -514 l 1
 897 -514 l 1
 897 -414 l 1
179 1577 m 1
 269 1577 l 1
 269 1477 l 1
 179 1477 l 1
 179 1577 l 1
538 1577 m 1
 630 1577 l 1
 630 1477 l 1
 538 1477 l 1
 538 1577 l 1
897 1577 m 1
 987 1577 l 1
 987 1477 l 1
 897 1477 l 1
 897 1577 l 1
0 1775 m 1
 90 1775 l 1
 90 1677 l 1
 0 1677 l 1
 0 1775 l 1
358 1775 m 1
 449 1775 l 1
 449 1677 l 1
 358 1677 l 1
 358 1775 l 1
719 1775 m 1
 808 1775 l 1
 808 1677 l 1
 719 1677 l 1
 719 1775 l 1
EndSplineSet
EndChar

StartChar: shademedium
Encoding: 9618 9618 574
Width: 1075
Flags: W
HStem: -514 100<0 77 153 230 307 384 461 539 616 692 769 846> -315 100<77 153 230 307 384 461 539 616 692 769 846 922> -115 99<0 77 153 230 307 384 461 539 616 692 769 846> 83 100<77 153 230 307 384 461 539 616 692 769 846 922> 283 99<0 77 153 230 307 384 461 539 616 692 769 846> 482 99<77 153 230 307 384 461 539 616 692 769 846 922> 681 100<0 77 153 230 307 384 461 539 616 692 769 846> 881 99<77 153 230 307 384 461 539 616 692 769 846 922> 1080 99<0 77 153 230 307 384 461 539 616 692 769 846> 1278 100<77 153 230 307 384 461 539 616 692 769 846 922> 1477 100<0 77 153 230 307 384 461 539 616 692 769 846> 1677 98<77 153 230 307 384 461 539 616 692 769 846 922>
VStem: 0 77<-514 -414 -115 -16 283 382 681 781 1080 1179 1477 1577> 77 76<-315 -215 83 183 482 581 881 980 1278 1378 1677 1775> 153 77<-514 -414 -115 -16 283 382 681 781 1080 1179 1477 1577> 230 77<-315 -215 83 183 482 581 881 980 1278 1378 1677 1775> 307 77<-514 -414 -115 -16 283 382 681 781 1080 1179 1477 1577> 384 77<-315 -215 83 183 482 581 881 980 1278 1378 1677 1775> 461 78<-514 -414 -115 -16 283 382 681 781 1080 1179 1477 1577> 539 77<-315 -215 83 183 482 581 881 980 1278 1378 1677 1775> 616 76<-514 -414 -115 -16 283 382 681 781 1080 1179 1477 1577> 692 77<-315 -215 83 183 482 581 881 980 1278 1378 1677 1775> 769 77<-514 -414 -115 -16 283 382 681 781 1080 1179 1477 1577> 846 76<-315 -215 83 183 482 581 881 980 1278 1378 1677 1775>
LayerCount: 2
Fore
SplineSet
90 1378 m 1
 179 1378 l 1
 179 1278 l 1
 90 1278 l 1
 90 1378 l 1
269 1378 m 1
 358 1378 l 1
 358 1278 l 1
 269 1278 l 1
 269 1378 l 1
448 1378 m 1
 538 1378 l 1
 538 1278 l 1
 448 1278 l 1
 448 1378 l 1
629 1378 m 1
 719 1378 l 1
 719 1278 l 1
 629 1278 l 1
 629 1378 l 1
807 1378 m 1
 897 1378 l 1
 897 1278 l 1
 807 1278 l 1
 807 1378 l 1
987 1378 m 1
 1075 1378 l 1
 1075 1278 l 1
 987 1278 l 1
 987 1378 l 1
0 1179 m 1
 90 1179 l 1
 90 1080 l 1
 0 1080 l 1
 0 1179 l 1
179 1179 m 1
 269 1179 l 1
 269 1080 l 1
 179 1080 l 1
 179 1179 l 1
358 1179 m 1
 448 1179 l 1
 448 1080 l 1
 358 1080 l 1
 358 1179 l 1
538 1179 m 1
 629 1179 l 1
 629 1080 l 1
 538 1080 l 1
 538 1179 l 1
719 1179 m 1
 807 1179 l 1
 807 1080 l 1
 719 1080 l 1
 719 1179 l 1
897 1179 m 1
 987 1179 l 1
 987 1080 l 1
 897 1080 l 1
 897 1179 l 1
90 980 m 1
 179 980 l 1
 179 881 l 1
 90 881 l 1
 90 980 l 1
269 980 m 1
 358 980 l 1
 358 881 l 1
 269 881 l 1
 269 980 l 1
448 980 m 1
 538 980 l 1
 538 881 l 1
 448 881 l 1
 448 980 l 1
629 980 m 1
 719 980 l 1
 719 881 l 1
 629 881 l 1
 629 980 l 1
807 980 m 1
 897 980 l 1
 897 881 l 1
 807 881 l 1
 807 980 l 1
987 980 m 1
 1075 980 l 1
 1075 881 l 1
 987 881 l 1
 987 980 l 1
0 781 m 1
 90 781 l 1
 90 681 l 1
 0 681 l 1
 0 781 l 1
179 781 m 1
 269 781 l 1
 269 681 l 1
 179 681 l 1
 179 781 l 1
358 781 m 1
 448 781 l 1
 448 681 l 1
 358 681 l 1
 358 781 l 1
538 781 m 1
 629 781 l 1
 629 681 l 1
 538 681 l 1
 538 781 l 1
719 781 m 1
 807 781 l 1
 807 681 l 1
 719 681 l 1
 719 781 l 1
897 781 m 1
 987 781 l 1
 987 681 l 1
 897 681 l 1
 897 781 l 1
90 581 m 1
 179 581 l 1
 179 482 l 1
 90 482 l 1
 90 581 l 1
269 581 m 1
 358 581 l 1
 358 482 l 1
 269 482 l 1
 269 581 l 1
448 581 m 1
 538 581 l 1
 538 482 l 1
 448 482 l 1
 448 581 l 1
629 581 m 1
 719 581 l 1
 719 482 l 1
 629 482 l 1
 629 581 l 1
807 581 m 1
 897 581 l 1
 897 482 l 1
 807 482 l 1
 807 581 l 1
987 581 m 1
 1075 581 l 1
 1075 482 l 1
 987 482 l 1
 987 581 l 1
0 382 m 1
 90 382 l 1
 90 283 l 1
 0 283 l 1
 0 382 l 1
358 382 m 1
 448 382 l 1
 448 283 l 1
 358 283 l 1
 358 382 l 1
538 382 m 1
 629 382 l 1
 629 283 l 1
 538 283 l 1
 538 382 l 1
719 382 m 1
 807 382 l 1
 807 283 l 1
 719 283 l 1
 719 382 l 1
897 382 m 1
 987 382 l 1
 987 283 l 1
 897 283 l 1
 897 382 l 1
179 382 m 1
 269 382 l 1
 269 283 l 1
 179 283 l 1
 179 382 l 1
987 183 m 1
 1075 183 l 1
 1075 83 l 1
 987 83 l 1
 987 183 l 1
807 183 m 1
 897 183 l 1
 897 83 l 1
 807 83 l 1
 807 183 l 1
629 183 m 1
 719 183 l 1
 719 83 l 1
 629 83 l 1
 629 183 l 1
448 183 m 1
 538 183 l 1
 538 83 l 1
 448 83 l 1
 448 183 l 1
269 183 m 1
 358 183 l 1
 358 83 l 1
 269 83 l 1
 269 183 l 1
90 183 m 1
 179 183 l 1
 179 83 l 1
 90 83 l 1
 90 183 l 1
0 -16 m 1
 90 -16 l 1
 90 -115 l 1
 0 -115 l 1
 0 -16 l 1
179 -16 m 1
 269 -16 l 1
 269 -115 l 1
 179 -115 l 1
 179 -16 l 1
358 -16 m 1
 448 -16 l 1
 448 -115 l 1
 358 -115 l 1
 358 -16 l 1
538 -16 m 1
 629 -16 l 1
 629 -115 l 1
 538 -115 l 1
 538 -16 l 1
719 -16 m 1
 807 -16 l 1
 807 -115 l 1
 719 -115 l 1
 719 -16 l 1
897 -16 m 1
 987 -16 l 1
 987 -115 l 1
 897 -115 l 1
 897 -16 l 1
987 -215 m 1
 1075 -215 l 1
 1075 -315 l 1
 987 -315 l 1
 987 -215 l 1
807 -215 m 1
 897 -215 l 1
 897 -315 l 1
 807 -315 l 1
 807 -215 l 1
629 -215 m 1
 719 -215 l 1
 719 -315 l 1
 629 -315 l 1
 629 -215 l 1
448 -215 m 1
 538 -215 l 1
 538 -315 l 1
 448 -315 l 1
 448 -215 l 1
269 -215 m 1
 358 -215 l 1
 358 -315 l 1
 269 -315 l 1
 269 -215 l 1
90 -215 m 1
 179 -215 l 1
 179 -315 l 1
 90 -315 l 1
 90 -215 l 1
0 -414 m 1
 90 -414 l 1
 90 -514 l 1
 0 -514 l 1
 0 -414 l 1
179 -414 m 1
 269 -414 l 1
 269 -514 l 1
 179 -514 l 1
 179 -414 l 1
358 -414 m 1
 448 -414 l 1
 448 -514 l 1
 358 -514 l 1
 358 -414 l 1
538 -414 m 1
 629 -414 l 1
 629 -514 l 1
 538 -514 l 1
 538 -414 l 1
719 -414 m 1
 807 -414 l 1
 807 -514 l 1
 719 -514 l 1
 719 -414 l 1
897 -414 m 1
 987 -414 l 1
 987 -514 l 1
 897 -514 l 1
 897 -414 l 1
0 1577 m 1
 90 1577 l 1
 90 1477 l 1
 0 1477 l 1
 0 1577 l 1
179 1577 m 1
 269 1577 l 1
 269 1477 l 1
 179 1477 l 1
 179 1577 l 1
358 1577 m 1
 448 1577 l 1
 448 1477 l 1
 358 1477 l 1
 358 1577 l 1
538 1577 m 1
 629 1577 l 1
 629 1477 l 1
 538 1477 l 1
 538 1577 l 1
719 1577 m 1
 807 1577 l 1
 807 1477 l 1
 719 1477 l 1
 719 1577 l 1
897 1577 m 1
 987 1577 l 1
 987 1477 l 1
 897 1477 l 1
 897 1577 l 1
90 1775 m 1
 179 1775 l 1
 179 1677 l 1
 90 1677 l 1
 90 1775 l 1
269 1775 m 1
 358 1775 l 1
 358 1677 l 1
 269 1677 l 1
 269 1775 l 1
448 1775 m 1
 538 1775 l 1
 538 1677 l 1
 448 1677 l 1
 448 1775 l 1
629 1775 m 1
 719 1775 l 1
 719 1677 l 1
 629 1677 l 1
 629 1775 l 1
807 1775 m 1
 897 1775 l 1
 897 1677 l 1
 807 1677 l 1
 807 1775 l 1
987 1775 m 1
 1075 1775 l 1
 1075 1677 l 1
 987 1677 l 1
 987 1775 l 1
EndSplineSet
EndChar

StartChar: shadedark
Encoding: 9619 9619 575
Width: 1075
Flags: W
HStem: -615 300<0 77 153 230 307 384 461 539 616 692 769 846> -615 101<77 153 230 307 384 461 539 616 692 769 846 922> -414 299<77 153 230 307 384 461 539 616 692 769 846 922> -215 299<0 77 153 230 307 384 461 539 616 692 769 846> -16 299<77 153 230 307 384 461 539 616 692 769 846 922> 183 299<0 77 153 230 307 384 461 539 616 692 769 846> 382 299<77 153 230 307 384 461 539 616 692 769 846 922> 581 299<0 77 153 230 307 384 461 539 616 692 769 846> 781 299<77 153 230 307 384 461 539 616 692 769 846 922> 980 299<0 77 153 230 307 384 461 539 616 692 769 846> 1179 299<77 153 230 307 384 461 539 616 692 769 846 922> 1378 299<0 77 153 230 307 384 461 539 616 692 769 846> 1577 198<77 153 230 307 384 461 539 616 692 769 846 922>
VStem: 0 77<-514 -414 -115 -16 283 382 681 781 1080 1179 1478 1577> 77 76<-315 -215 84 183 482 581 881 980 1279 1378 1677 1775> 153 77<-514 -414 -115 -16 283 382 681 781 1080 1179 1478 1577> 230 77<-315 -215 84 183 482 581 880 980 1279 1378 1677 1775> 307 77<-514 -414 -115 -16 283 382 681 781 1080 1179 1478 1577> 384 77<-315 -215 84 183 482 581 880 980 1279 1378 1677 1775> 461 78<-514 -414 -115 -16 283 382 681 781 1080 1179 1478 1577> 539 77<-315 -215 84 183 482 581 880 980 1279 1378 1677 1775> 616 76<-514 -414 -115 -16 283 382 681 781 1080 1179 1478 1577> 692 77<-315 -215 84 183 482 581 880 980 1279 1378 1677 1775> 769 77<-514 -414 -115 -16 283 382 681 781 1080 1179 1478 1577> 846 76<-315 -215 84 183 482 581 880 980 1279 1378 1677 1775>
LayerCount: 2
Fore
SplineSet
1075 1577 m 1x000fff80
 987 1577 l 1
 987 1478 l 1
 1075 1478 l 1
 1075 1179 l 1
 987 1179 l 1
 987 1080 l 1
 1075 1080 l 1
 1075 781 l 1
 987 781 l 1
 987 681 l 1
 1075 681 l 1
 1075 382 l 1
 987 382 l 1
 987 283 l 1
 1075 283 l 1
 1075 -16 l 1
 987 -16 l 1
 987 -115 l 1
 1075 -115 l 1
 1075 -414 l 1
 987 -414 l 1
 987 -514 l 1
 1075 -514 l 1
 1075 -615 l 1x6aafff80
 0 -615 l 1
 0 -315 l 1
 90 -315 l 1
 90 -215 l 1
 0 -215 l 1
 0 83 l 1
 90 83 l 1
 90 183 l 1
 0 183 l 1
 0 482 l 1
 90 482 l 1
 90 581 l 1
 0 581 l 1
 0 881 l 1
 90 881 l 1
 90 980 l 1
 0 980 l 1
 0 1279 l 1
 90 1279 l 1
 90 1378 l 1
 0 1378 l 1
 0 1677 l 1
 90 1677 l 1x9557ff80
 90 1775 l 1
 179 1775 l 1x000fff80
 179 1677 l 1
 269 1677 l 1x0017ff80
 269 1775 l 1
 358 1775 l 1x000fff80
 358 1677 l 1
 448 1677 l 1x0017ff80
 448 1775 l 1
 538 1775 l 1x000fff80
 538 1677 l 1
 629 1677 l 1x0017ff80
 629 1775 l 1
 719 1775 l 1x000fff80
 719 1677 l 1
 807 1677 l 1x0017ff80
 807 1775 l 1
 897 1775 l 1x000fff80
 897 1677 l 1
 987 1677 l 1x0017ff80
 987 1775 l 1
 1075 1775 l 1
 1075 1577 l 1x000fff80
90 1179 m 1
 90 1080 l 1
 179 1080 l 1
 179 1179 l 1
 90 1179 l 1
269 1179 m 1
 269 1080 l 1
 358 1080 l 1
 358 1179 l 1
 269 1179 l 1
448 1179 m 1
 448 1080 l 1
 538 1080 l 1
 538 1179 l 1
 448 1179 l 1
629 1179 m 1
 629 1080 l 1
 719 1080 l 1
 719 1179 l 1
 629 1179 l 1
807 1179 m 1
 807 1080 l 1
 897 1080 l 1
 897 1179 l 1
 807 1179 l 1
987 980 m 1x0147ff80
 897 980 l 1
 897 880 l 1
 987 880 l 1
 987 980 l 1x0147ff80
807 980 m 1
 719 980 l 1
 719 880 l 1
 807 880 l 1
 807 980 l 1
629 980 m 1
 538 980 l 1
 538 880 l 1
 629 880 l 1
 629 980 l 1
448 980 m 1
 358 980 l 1
 358 880 l 1
 448 880 l 1
 448 980 l 1
269 980 m 1
 179 980 l 1
 179 880 l 1
 269 880 l 1
 269 980 l 1
90 781 m 1x0287ff80
 90 681 l 1
 179 681 l 1
 179 781 l 1
 90 781 l 1x0287ff80
269 781 m 1
 269 681 l 1
 358 681 l 1
 358 781 l 1
 269 781 l 1
448 781 m 1
 448 681 l 1
 538 681 l 1
 538 781 l 1
 448 781 l 1
629 781 m 1
 629 681 l 1
 719 681 l 1
 719 781 l 1
 629 781 l 1
807 781 m 1
 807 681 l 1
 897 681 l 1
 897 781 l 1
 807 781 l 1
269 581 m 1x0507ff80
 179 581 l 1
 179 482 l 1
 269 482 l 1
 269 581 l 1x0507ff80
358 581 m 1
 358 482 l 1
 448 482 l 1
 448 581 l 1
 358 581 l 1
538 581 m 1
 538 482 l 1
 629 482 l 1
 629 581 l 1
 538 581 l 1
719 581 m 1
 719 482 l 1
 807 482 l 1
 807 581 l 1
 719 581 l 1
897 581 m 1
 897 482 l 1
 987 482 l 1
 987 581 l 1
 897 581 l 1
90 382 m 1x0a07ff80
 90 283 l 1
 179 283 l 1
 179 382 l 1
 90 382 l 1x0a07ff80
448 382 m 1
 448 283 l 1
 538 283 l 1
 538 382 l 1
 448 382 l 1
358 283 m 1
 358 382 l 1
 269 382 l 1
 269 283 l 1
 358 283 l 1
629 382 m 1
 629 283 l 1
 719 283 l 1
 719 382 l 1
 629 382 l 1
807 382 m 1
 807 283 l 1
 897 283 l 1
 897 382 l 1
 807 382 l 1
987 84 m 1x1407ff80
 987 183 l 1
 897 183 l 1
 897 84 l 1
 987 84 l 1x1407ff80
807 84 m 1
 807 183 l 1
 719 183 l 1
 719 84 l 1
 807 84 l 1
629 84 m 1
 629 183 l 1
 538 183 l 1
 538 84 l 1
 629 84 l 1
448 84 m 1
 448 183 l 1
 358 183 l 1
 358 84 l 1
 448 84 l 1
269 84 m 1
 269 183 l 1
 179 183 l 1
 179 84 l 1
 269 84 l 1
90 -16 m 1x2807ff80
 90 -115 l 1
 179 -115 l 1
 179 -16 l 1
 90 -16 l 1x2807ff80
269 -16 m 1
 269 -115 l 1
 358 -115 l 1
 358 -16 l 1
 269 -16 l 1
448 -16 m 1
 448 -115 l 1
 538 -115 l 1
 538 -16 l 1
 448 -16 l 1
629 -16 m 1
 629 -115 l 1
 719 -115 l 1
 719 -16 l 1
 629 -16 l 1
807 -16 m 1
 807 -115 l 1
 897 -115 l 1
 897 -16 l 1
 807 -16 l 1
987 -315 m 1x9007ff80
 987 -215 l 1
 897 -215 l 1
 897 -315 l 1
 987 -315 l 1x9007ff80
807 -315 m 1
 807 -215 l 1
 719 -215 l 1
 719 -315 l 1
 807 -315 l 1
629 -315 m 1
 629 -215 l 1
 538 -215 l 1
 538 -315 l 1
 629 -315 l 1
448 -315 m 1
 448 -215 l 1
 358 -215 l 1
 358 -315 l 1
 448 -315 l 1
269 -315 m 1
 269 -215 l 1
 179 -215 l 1
 179 -315 l 1
 269 -315 l 1
90 -414 m 1x6007ff80
 90 -514 l 1
 179 -514 l 1
 179 -414 l 1
 90 -414 l 1x6007ff80
269 -414 m 1
 269 -514 l 1
 358 -514 l 1
 358 -414 l 1
 269 -414 l 1
448 -414 m 1
 448 -514 l 1
 538 -514 l 1
 538 -414 l 1
 448 -414 l 1
629 -414 m 1
 629 -514 l 1
 719 -514 l 1
 719 -414 l 1
 629 -414 l 1
807 -414 m 1
 807 -514 l 1
 897 -514 l 1
 897 -414 l 1
 807 -414 l 1
987 1378 m 1x0057ff80
 897 1378 l 1
 897 1279 l 1
 987 1279 l 1
 987 1378 l 1x0057ff80
807 1378 m 1
 719 1378 l 1
 719 1279 l 1
 807 1279 l 1
 807 1378 l 1
629 1378 m 1
 538 1378 l 1
 538 1279 l 1
 629 1279 l 1
 629 1378 l 1
448 1378 m 1
 358 1378 l 1
 358 1279 l 1
 448 1279 l 1
 448 1378 l 1
269 1378 m 1
 179 1378 l 1
 179 1279 l 1
 269 1279 l 1
 269 1378 l 1
897 1577 m 1x002fff80
 807 1577 l 1
 807 1478 l 1
 897 1478 l 1
 897 1577 l 1x002fff80
719 1577 m 1
 629 1577 l 1
 629 1478 l 1
 719 1478 l 1
 719 1577 l 1
538 1577 m 1
 448 1577 l 1
 448 1478 l 1
 538 1478 l 1
 538 1577 l 1
358 1577 m 1
 269 1577 l 1
 269 1478 l 1
 358 1478 l 1
 358 1577 l 1
179 1577 m 1
 90 1577 l 1
 90 1478 l 1
 179 1478 l 1
 179 1577 l 1
EndSplineSet
EndChar

StartChar: blacksquare
Encoding: 9632 9632 576
Width: 1075
Flags: W
HStem: 116 993<0 922>
VStem: 0 922<116 1109>
LayerCount: 2
Fore
SplineSet
0 1294 m 5
 1075 1294 l 5
 1075 136 l 5
 0 136 l 5
 0 1294 l 5
EndSplineSet
EndChar

StartChar: whitesquare
Encoding: 9633 9633 577
Width: 1075
Flags: W
HStem: 116 192<187 734> 917 192<187 734>
VStem: 0 187<308 917> 734 188<308 917>
LayerCount: 2
Fore
SplineSet
0 1294 m 1
 1075 1294 l 1
 1075 136 l 1
 0 136 l 1
 0 1294 l 1
219 1070 m 1
 219 360 l 1
 856 360 l 1
 856 1070 l 1
 219 1070 l 1
EndSplineSet
EndChar

StartChar: blacksmallsquare
Encoding: 9642 9642 578
Width: 1075
Flags: W
HStem: 400 473<224 697>
VStem: 224 473<400 873>
LayerCount: 2
Fore
SplineSet
813 467 m 5
 262 467 l 5
 262 1018 l 5
 813 1018 l 5
 813 467 l 5
EndSplineSet
EndChar

StartChar: whitesmallsquare
Encoding: 9643 9643 579
Width: 1075
Flags: W
HStem: 400 114<342 579> 759 114<342 579>
VStem: 224 118<514 759> 579 118<514 759>
LayerCount: 2
Fore
SplineSet
813 467 m 1
 262 467 l 1
 262 1018 l 1
 813 1018 l 1
 813 467 l 1
676 600 m 1
 676 885 l 1
 399 885 l 1
 399 600 l 1
 676 600 l 1
EndSplineSet
EndChar

StartChar: blackrectangle
Encoding: 9644 9644 580
Width: 1075
Flags: W
HStem: 395 231<0 922>
LayerCount: 2
Fore
SplineSet
0 730 m 1
 1075 730 l 5
 1075 461 l 5
 0 461 l 1
 0 730 l 1
EndSplineSet
EndChar

StartChar: triagup
Encoding: 9650 9650 581
Width: 1075
Flags: W
LayerCount: 2
Fore
SplineSet
0 133 m 5
 537 1066 l 5
 1075 133 l 5
 0 133 l 5
EndSplineSet
EndChar

StartChar: triagrt
Encoding: 9658 9658 582
Width: 1075
Flags: W
LayerCount: 2
Fore
SplineSet
74 -73 m 1
 72 1003 l 1
 1004 465 l 1
 74 -73 l 1
EndSplineSet
EndChar

StartChar: triagdn
Encoding: 9660 9660 583
Width: 1075
Flags: W
LayerCount: 2
Fore
SplineSet
1075 1066 m 5
 539 133 l 5
 0 1066 l 5
 1075 1066 l 5
EndSplineSet
EndChar

StartChar: triaglf
Encoding: 9668 9668 584
Width: 1075
Flags: W
LayerCount: 2
Fore
SplineSet
73 465 m 5
 1003 1004 l 5
 1003 -73 l 5
 73 465 l 5
EndSplineSet
EndChar

StartChar: lozenge
Encoding: 9674 9674 585
Width: 1075
Flags: W
DStem2: 261 710 89 709 0.489251 -0.872143<0 400.76> 89 709 261 710 0.486669 0.873586<84.5807 485.336> 501 1287 458 1059 0.499203 -0.866485<176.093 577.838> 458 361 501 135 0.501808 0.864979<0 401.737>
LayerCount: 2
Fore
SplineSet
585 1501 m 1
 973 827 l 1
 585 158 l 1
 480 158 l 1
 104 827 l 1
 480 1501 l 1
 585 1501 l 1
535 1235 m 1
 305 828 l 1
 535 421 l 1
 767 828 l 1
 535 1235 l 1
EndSplineSet
EndChar

StartChar: whitecircle
Encoding: 9675 9675 586
Width: 1075
Flags: W
HStem: 221 150<334.35 586.595> 784 150<333.91 587.132>
VStem: 104 150<452.439 703.668> 668 150<451.815 701.975>
LayerCount: 2
Fore
SplineSet
538 1089 m 0
 774 1089 954 898 954 674 c 0
 954 440 768 258 538 258 c 0
 301 258 122 445 122 674 c 0
 122 890 293 1089 538 1089 c 0
538 915 m 0
 398 915 297 803 297 674 c 0
 297 529 414 433 538 433 c 256
 673 433 779 540 779 674 c 0
 779 797 681 915 538 915 c 0
EndSplineSet
EndChar

StartChar: blackcircle
Encoding: 9679 9679 587
Width: 1075
Flags: W
HStem: 221 713<292.824 631.094>
VStem: 104 714<407.906 745.646>
LayerCount: 2
Fore
SplineSet
538 1089 m 0
 774 1089 954 898 954 674 c 0
 954 440 768 258 538 258 c 0
 301 258 122 445 122 674 c 0
 122 890 293 1089 538 1089 c 0
EndSplineSet
EndChar

StartChar: bulletinverse
Encoding: 9688 9688 588
Width: 1075
Flags: W
HStem: 93.0996 233.28<349.727 573.114> 653.62 233.28<348.385 573.674>
VStem: 63 234<377.921 601.629> 624 233<379.634 603.318>
LayerCount: 2
Fore
SplineSet
74 109 m 1
 74 1035 l 1
 1000 1035 l 1
 1000 109 l 1
 74 109 l 1
537 763 m 256
 434 763 347 682 347 572 c 0
 347 460 438 381 537 381 c 0
 642 381 728 465 728 572 c 0
 728 678 644 763 537 763 c 256
EndSplineSet
EndChar

StartChar: whitecircleinverse
Encoding: 9689 9689 589
Width: 1075
Flags: W
HStem: 110 111<289.809 635.959> 371 413<335.607 588.433> 934 111<293.797 632.866>
VStem: 0 105<406.695 749.753> 255 413<448.029 702.431> 818 104<402.264 747.094>
CounterMasks: 1 e0
LayerCount: 2
Fore
SplineSet
0 129 m 1
 0 1219 l 1
 1075 1219 l 1
 1075 129 l 1
 0 129 l 1
538 1089 m 0
 315 1089 123 910 123 673 c 0
 123 442 305 258 538 258 c 0
 761 258 954 431 954 673 c 0
 954 903 772 1089 538 1089 c 0
539 915 m 0
 673 915 779 806 779 673 c 0
 779 536 670 433 539 433 c 0
 407 433 298 536 298 673 c 0
 298 811 410 915 539 915 c 0
EndSplineSet
EndChar

StartChar: whitebullet
Encoding: 9702 9702 590
Width: 1075
Flags: W
HStem: 406 113<368.896 552.757> 754 113<368.685 552.223>
VStem: 230 113<545.062 727.979> 579 112<546.84 727.446>
LayerCount: 2
Fore
SplineSet
806 743 m 0
 806 582 677 474 537 474 c 256
 389 474 269 592 269 743 c 0
 269 892 388 1011 537 1011 c 0
 690 1011 806 891 806 743 c 0
676 743 m 0
 676 822 611 880 537 880 c 256
 466 880 400 825 400 743 c 0
 400 660 466 606 537 606 c 256
 614 606 676 666 676 743 c 0
EndSplineSet
EndChar

StartChar: smileface
Encoding: 9786 9786 591
Width: 1075
Flags: W
HStem: 124 126<298.564 622.839> 338 54<371.617 548.201> 608 114<255.697 366.296 555.643 665.674> 919 126<293.127 624.394>
VStem: -0 127<417.754 749.129> 254 114<609.589 720.417> 554 113<609.487 720.519> 795 126<419.528 752.828>
LayerCount: 2
Fore
SplineSet
1074 681 m 0
 1074 382 839 145 537 145 c 0
 236 145 0 384 0 681 c 0
 0 992 248 1219 537 1219 c 0
 839 1219 1074 981 1074 681 c 0
927 681 m 0
 927 899 757 1072 537 1072 c 0
 318 1072 149 898 149 681 c 0
 149 455 329 292 537 292 c 0
 749 292 927 458 927 681 c 0
430 777 m 256
 430 740 400 709 362 709 c 256
 325 709 297 742 297 777 c 256
 297 810 323 842 362 842 c 256
 402 842 430 811 430 777 c 256
778 777 m 256
 778 740 751 709 714 709 c 256
 674 709 646 740 646 777 c 256
 646 812 673 842 714 842 c 256
 751 842 778 812 778 777 c 256
327 535 m 1
 372 560 l 1
 410 493 465 458 537 458 c 256
 610 458 665 493 702 560 c 1
 748 535 l 1
 700 441 629 395 537 395 c 0
 424 395 362 468 327 535 c 1
EndSplineSet
EndChar

StartChar: invsmileface
Encoding: 9787 9787 592
Width: 1075
Flags: W
HStem: 124 171<330.15 591.942> 738 307<261.901 661.515>
VStem: -0 226<494.273 736.313> 343 236<622.894 736.048> 695 226<493.852 734.781>
LayerCount: 2
Fore
SplineSet
1074 681 m 0
 1074 382 839 145 537 145 c 0
 236 145 0 384 0 681 c 0
 0 992 248 1219 537 1219 c 0
 839 1219 1074 981 1074 681 c 0
400 793 m 256
 400 828 371 861 332 861 c 256
 292 861 264 827 264 793 c 256
 264 758 293 725 332 725 c 256
 370 725 400 756 400 793 c 256
811 793 m 256
 811 829 784 861 744 861 c 256
 704 861 676 829 676 793 c 256
 676 756 705 725 744 725 c 256
 783 725 811 756 811 793 c 256
290 509 m 1
 330 431 404 344 537 344 c 0
 671 344 743 430 785 509 c 1
 732 539 l 1
 687 459 623 418 537 418 c 256
 452 418 388 459 343 539 c 1
 290 509 l 1
EndSplineSet
EndChar

StartChar: compass
Encoding: 9788 9788 593
Width: 1075
Flags: W
HStem: 448 46<0 162 760 922> 722 47<486 563.283>
VStem: 162 48<494 578.675> 436 50<10 176.035 769 932> 710 50<492 580.419>
DStem2: 125 839 95 802 0.70761 -0.706603<4.91603 201.901 792.879 991.33> 95 139 127 106 0.708621 0.705589<0 197.718 790.25 988.636>
LayerCount: 2
Fore
SplineSet
509 1087 m 1
 567 1087 l 1
 567 897 l 1
 648 897 707 861 763 818 c 1
 927 978 l 1
 966 938 l 1
 805 776 l 1
 856 708 887 641 887 574 c 1
 1075 574 l 1
 1075 523 l 1
 887 523 l 1
 878 453 852 385 806 327 c 1
 966 160 l 1
 925 123 l 1
 763 283 l 1
 698 234 649 212 567 202 c 1
 567 12 l 1
 509 12 l 1
 509 202 l 1
 435 213 371 240 314 280 c 1
 149 124 l 1
 111 163 l 1
 271 325 l 1
 224 384 198 449 189 523 c 1
 0 523 l 1
 0 576 l 1
 189 576 l 1
 189 651 223 716 270 774 c 1
 111 936 l 1
 146 979 l 1
 313 819 l 1
 379 864 446 890 509 897 c 1
 509 1087 l 1
537 842 m 256
 369 842 245 708 245 550 c 0
 245 388 371 258 537 258 c 256
 705 258 828 391 828 550 c 0
 828 713 699 842 537 842 c 256
EndSplineSet
EndChar

StartChar: female
Encoding: 9792 9792 594
Width: 1075
Flags: W
HStem: 343 69<175 426 499 747> 577 81<346.207 426 499 579.178> 1069 84<343.449 581.435>
VStem: 183 79<741.948 982.372> 426 73<80 343 412 583.449> 661 80<741.559 986.112>
LayerCount: 2
Fore
SplineSet
497 673 m 1
 335 697 214 834 214 1006 c 0
 214 1210 370 1345 539 1345 c 0
 709 1345 864 1207 864 1006 c 0
 864 821 733 693 582 673 c 1
 582 481 l 1
 871 481 l 1
 871 400 l 1
 582 400 l 1
 582 94 l 1
 497 94 l 1
 497 400 l 1
 205 400 l 1
 205 481 l 1
 497 481 l 1
 497 673 l 1
538 1247 m 0
 410 1247 306 1142 306 1008 c 256
 306 871 411 768 538 768 c 256
 663 768 771 868 771 1008 c 256
 771 1147 664 1247 538 1247 c 0
EndSplineSet
EndChar

StartChar: male
Encoding: 9794 9794 595
Width: 1075
Flags: W
HStem: 250 75<211.388 439.888> 750 75<207.521 441.935>
VStem: 42 76<417.863 660.889> 531 75<414.96 660.222>
DStem2: 474 782 525 740 0.693164 0.72078<2.91155 360.117>
LayerCount: 2
Fore
SplineSet
553 912 m 1
 846 1217 l 1
 785 1247 602 1311 602 1317 c 1
 627 1345 l 9
 1008 1345 l 0
 1027 1327 l 0
 1027 925 l 273
 1000 901 l 1
 994 901 927 1102 899 1162 c 1
 613 863 l 1
 676 800 707 726 707 639 c 0
 707 441 558 292 377 292 c 256
 189 292 49 445 49 624 c 0
 49 810 192 962 379 962 c 0
 433 962 490 946 553 912 c 1
379 875 m 0
 244 875 138 767 138 628 c 256
 138 484 252 379 379 379 c 256
 503 379 620 476 620 628 c 0
 620 774 507 875 379 875 c 0
EndSplineSet
EndChar

StartChar: spade
Encoding: 9824 9824 596
Width: 1075
Flags: W
HStem: 152 28<168 272.283 656.397 754>
VStem: 456 14<417.894 503>
LayerCount: 2
Fore
SplineSet
538 1259 m 1
 621 915 964 860 964 615 c 0
 964 500 876 419 772 419 c 0
 681 419 607 475 548 587 c 1
 548 285 715 210 880 210 c 1
 885 178 l 1
 189 178 l 1
 196 210 l 1
 466 210 532 390 532 587 c 1
 477 468 395 419 304 419 c 0
 199 419 111 504 111 611 c 0
 111 870 459 898 538 1259 c 1
EndSplineSet
EndChar

StartChar: club
Encoding: 9827 9827 597
Width: 1075
Flags: W
HStem: 151 25<150 211.374 718.551 773> 355 416<78.7852 299.617 619.973 842.203>
VStem: 252 415<744.613 993.475> 453 15<445.978 533>
LayerCount: 2
Fore
SplineSet
909 177 m 1xd0
 170 177 l 1
 175 206 l 1
 199 210 529 238 529 581 c 0
 529 590 529 603 529 622 c 1xd0
 463 488 356 414 242 414 c 0
 118 414 0 507 0 658 c 0
 0 817 121 899 209 899 c 0
 245 899 293 884 353 854 c 1
 304 936 294 965 294 1014 c 0
 294 1143 392 1249 536 1249 c 0
 676 1249 778 1144 778 1016 c 0xe0
 778 964 758 910 718 854 c 1
 800 892 812 899 860 899 c 0
 974 899 1075 802 1075 662 c 0
 1075 518 965 414 836 414 c 0
 655 414 564 593 546 622 c 1
 546 285 734 240 902 206 c 1
 909 177 l 1xd0
EndSplineSet
EndChar

StartChar: heart
Encoding: 9829 9829 598
Width: 1075
Flags: W
LayerCount: 2
Fore
SplineSet
540 143 m 1
 445 496 93 718 93 952 c 0
 93 1079 186 1165 304 1165 c 0
 398 1165 488 1113 540 961 c 1
 582 1113 680 1166 771 1166 c 0
 895 1166 982 1070 982 962 c 0
 982 691 632 496 540 143 c 1
EndSplineSet
EndChar

StartChar: diamond
Encoding: 9830 9830 599
Width: 1075
Flags: W
LayerCount: 2
Fore
SplineSet
537 1246 m 1
 624 1039 788 833 939 700 c 1
 812 602 635 367 537 152 c 1
 458 332 266 602 138 700 c 1
 291 833 424 1008 537 1246 c 1
EndSplineSet
EndChar

StartChar: musicalnote
Encoding: 9834 9834 600
Width: 1075
Flags: W
HStem: 135.78 236.52<235.114 404.073>
VStem: 419 61<357.72 767.58 964.41 1046.22> 626 67<401.088 670.848>
LayerCount: 2
Fore
SplineSet
489 418 m 1
 489 1220 l 1
 560 1220 l 1
 560 1125 l 1
 706 945 l 2
 759 870 808 764 808 644 c 0
 808 547 778 462 719 388 c 1
 674 388 l 1
 712 470 730 549 730 623 c 256
 730 786 633 884 560 895 c 1
 560 418 l 2
 560 264 460 159 322 159 c 0
 254 159 214 191 214 252 c 0
 214 346 295 435 404 435 c 0
 429 435 457 430 489 418 c 1
EndSplineSet
EndChar

StartChar: musicalnotedbl
Encoding: 9835 9835 601
Width: 1075
Flags: W
HStem: 71 235<87.9738 255.579> 147 235<593.354 761.757>
VStem: 272 61<292 611 714 807> 779 60<368 732 835 928>
DStem2: 272 900 333 807 0.968822 0.247759<36.0566 498.13> 333 714 333 611 0.965113 0.261835<0 435.153>
LayerCount: 2
Fore
SplineSet
979 430 m 2xb0
 979 261 863 172 742 172 c 0
 651 172 634 228 634 265 c 0
 634 358 714 446 824 446 c 0x70
 855 446 883 439 909 430 c 1
 909 854 l 1
 389 713 l 1
 389 341 l 2
 389 172 273 83 151 83 c 0
 60 83 42 139 42 177 c 0
 42 269 123 357 234 357 c 0
 265 357 295 351 318 341 c 1
 318 1050 l 1
 979 1219 l 1
 979 430 l 2xb0
389 833 m 1
 909 974 l 1
 909 1082 l 1
 389 941 l 1
 389 833 l 1
EndSplineSet
EndChar

StartChar: arrowboth
Encoding: 8596 8596 602
Width: 1075
VWidth: 1708
Flags: W
VStem: 0 922<-99 1224>
LayerCount: 2
Fore
SplineSet
448 960 m 29
 127 600 l 29
 448 240 l 29
77 -99 m 5
 77 1224 l 5
 999 1224 l 5
 999 -99 l 5
 77 -99 l 5
628 960 m 29
 949 600 l 29
 628 240 l 29
949 600 m 29
 127 600 l 29
EndSplineSet
EndChar

StartChar: arrowbothv
Encoding: 8597 8597 603
Width: 1075
VWidth: 1708
Flags: W
HStem: 87 1026<0 922>
VStem: 0 922<87 1113>
LayerCount: 2
Fore
SplineSet
898 690 m 29
 538 1061 l 29
 178 690 l 29
77 87 m 5
 77 1113 l 5
 999 1113 l 5
 999 87 l 5
 77 87 l 5
898 510 m 29
 538 139 l 29
 178 510 l 29
538 139 m 29
 538 1061 l 29
EndSplineSet
EndChar

StartChar: updownarrowbar
Encoding: 8616 8616 604
Width: 1075
VWidth: 1708
Flags: W
VStem: 0 922<-443 1113>
LayerCount: 2
Fore
SplineSet
127 58 m 25
 949 58 l 25
898 690 m 25
 538 1061 l 25
 178 690 l 25
77 -443 m 1
 77 1113 l 1
 999 1113 l 1
 999 -443 l 1
 77 -443 l 1
898 510 m 25
 538 139 l 25
 178 510 l 25
538 139 m 25
 538 1061 l 25
EndSplineSet
EndChar

StartChar: nsuperior
Encoding: 8319 8319 605
Width: 1075
VWidth: 1947
Flags: W
HStem: 1405 20G<304.755 1063>
VStem: 122 754<544 1298> 309 754<671 1425>
LayerCount: 2
Fore
SplineSet
327 1425 m 1xa0
 1198 1425 l 1xa0
 1015 544 l 1
 143 544 l 1xc0
 327 1425 l 1xa0
769 390 m 25
 925 1135 l 18
 931 1165 934 1192 933 1216 c 3
 929 1315 859 1349 716 1349 c 10
 698 1349 l 18
 543 1349 401 1140 377 1026 c 10
 366 972 l 25
485 1545 m 25
 244 390 l 25
EndSplineSet
EndChar

StartChar: radical
Encoding: 8730 8730 606
Width: 1075
VWidth: 1708
Flags: W
VStem: -67 872<-25 847> 285 872<761 1633>
DStem2: -88.2557 -125 783.744 -125 0.207912 0.978148<283.533 1797.19>
LayerCount: 2
Fore
SplineSet
-67 -25 m 5x80
 285 1633 l 5
 1310 1633 l 5x40
 958 -25 l 5
 -67 -25 l 5x80
1246 1755 m 25
 484 37 l 25
 430 995 l 25
 -13 995 l 25
EndSplineSet
EndChar

StartChar: intersection
Encoding: 8745 8745 608
Width: 1075
VWidth: 1708
Flags: W
VStem: -115 922<0 922> 234 925<713 1638>
DStem2: -175.154 -283 746.846 -283 0.207912 0.978148<481.017 1964.09>
LayerCount: 2
Fore
SplineSet
-115 0 m 1x80
 234 1638 l 1
 1312 1638 l 1x40
 960 0 l 1
 -115 0 l 1x80
31.1006 -183 m 25
 296 1063 l 18
 401.468 1196.9 565 1333 700 1333 c 10
 718 1333 l 18
 838.265 1333 1011.52 1225.07 1011.52 1106.77 c 3
 1011.52 1092.27 1001.43 1037.03 991.43 990 c 10
 666.101 -183 l 25
EndSplineSet
EndChar

StartChar: infinity
Encoding: 8734 8734 609
Width: 1075
Flags: W
HStem: 392 451<238.817 425.982 703.454 868.172>
VStem: 115 442<520.089 718.769> 557 441<523.398 704.535>
LayerCount: 2
Fore
SplineSet
830 843 m 7
 975 843 1020 720 998 618 c 4
 978 522 873 392 734 392 c 7
 608 392 534 512 557 618 c 4
 578 717 714 843 830 843 c 7
373 843 m 7
 231 843 136 719 115 618 c 4
 96 526 131 392 277 392 c 7
 431 392 534 512 557 618 c 4
 578 717 527 843 373 843 c 7
EndSplineSet
EndChar

StartChar: almostequal
Encoding: 8776 8776 610
Width: 1075
VWidth: 1947
Flags: W
LayerCount: 2
Fore
SplineSet
99 340 m 17
 153 448 232 517 382 517 c 10
 397 517 l 18
 426 517 462 500 483 473 c 2
 556 381 l 2
 575 356 610 341 637 341 c 10
 652 341 l 18
 733 341 810 426 935 517 c 9
197 800 m 17
 251 908 407 977 480 977 c 10
 495 977 l 18
 524 977 559 960 580 933 c 2
 654 841 l 2
 673 816 708 801 735 801 c 10
 750 801 l 18
 831 801 983 886 1033 977 c 9
EndSplineSet
EndChar

StartChar: equivalence
Encoding: 8801 8801 611
Width: 1075
Flags: W
LayerCount: 2
Fore
SplineSet
136 920 m 25
 1111 920 l 25
66 600 m 25
 1041 600 l 25
-5 280 m 25
 970 280 l 25
EndSplineSet
EndChar

StartChar: lessequal
Encoding: 8804 8804 612
Width: 1075
VWidth: 1708
Flags: W
VStem: -54 742<-150 592> 321 742<870 1612>
DStem2: -75.2557 -250 666.744 -250 0.207912 0.978148<256.505 1903.7>
LayerCount: 2
Fore
SplineSet
-61 669 m 25
 1044 117 l 25x00
398 1612 m 1x40
 1216 1612 l 1x40
 765 -150 l 1
 -54 -150 l 1x80
 398 1612 l 1x40
1290 1290 m 25
 226 877 l 25
 1110 465 l 25
EndSplineSet
EndChar

StartChar: greaterequal
Encoding: 8805 8805 613
Width: 1075
VWidth: 1708
Flags: W
VStem: -54 742<-150 592> 321 742<870 1612>
DStem2: -75.2557 -250 666.744 -250 0.207912 0.978148<256.505 1903.7>
LayerCount: 2
Fore
SplineSet
1176 661 m 25
 -144 117 l 25x00
398 1612 m 1x40
 1216 1612 l 1x40
 765 -150 l 1
 -54 -150 l 1x80
 398 1612 l 1x40
75 1308 m 25
 997 877 l 29
 -105 447 l 25
EndSplineSet
EndChar

StartChar: revlogicalnot
Encoding: 8976 8976 614
Width: 1075
VWidth: 1947
Flags: W
HStem: 246 778<105 812>
LayerCount: 2
Fore
SplineSet
105 1024 m 5
 1130 1024 l 5
 965 246 l 5
 -60 246 l 5
 105 1024 l 5
1191 600 m 25
 198 600 l 25
 91.042 99 l 25
EndSplineSet
EndChar

StartChar: integraltp
Encoding: 8992 8992 615
Width: 1075
Flags: W
LayerCount: 2
Fore
SplineSet
538 -615 m 25
 538 1414 l 18
 538 1489.5 588.5 1548 677 1548 c 2
 687 1548 l 2
 770 1548 817 1489.5 817 1414 c 9
 817 1308 l 25
EndSplineSet
EndChar

StartChar: integralbt
Encoding: 8993 8993 616
Width: 1075
Flags: W
LayerCount: 2
Fore
SplineSet
538 1775 m 29
 538 -324 l 18
 538 -399.5 487.5 -458 399 -458 c 2
 389 -458 l 2
 229 -458 182 -399.5 182 -324 c 9
 182 -218 l 25
EndSplineSet
EndChar

StartChar: exclam
Encoding: -1 33 617
Width: 1075
Flags: MW
LayerCount: 2
Fore
SplineSet
523 29 m 0xe0
 523 -23 483 -68 425 -68 c 0
 370 -68 328 -24 328 29 c 0
 328 80 367 126 425 126 c 0
 482 126 523 82 523 29 c 0xe0
721 1418 m 3
 757 1418 789 1382 791 1331 c 3
 791 1312 788 1297 786 1290 c 2
 576 384 l 1
 438 384 l 1xd0
 605 1291 l 2
 610 1319 648 1418 721 1418 c 3
EndSplineSet
EndChar
